<svg width="35" height="39" viewBox="0 0 35 39" fill="none" xmlns="http://www.w3.org/2000/svg">
<path d="M19.2225 10.0245C18.1938 9.72357 17.1075 9.56242 15.9845 9.56242C14.4176 9.56242 12.9223 9.8761 11.5549 10.4455M26.6427 16.4949C27.3589 18.0535 27.7593 19.7946 27.7593 21.6317C27.7593 24.6446 26.6822 27.3997 24.9011 29.5145M22.055 31.9754C20.2823 33.0708 18.2052 33.7009 15.9845 33.7009C13.8035 33.7009 11.7611 33.0931 10.0096 32.0339M7.15331 29.6149C5.32125 27.4873 4.20959 24.6926 4.20959 21.6317C4.20959 19.4418 4.7786 17.3881 5.77334 15.6175" stroke="white" stroke-width="1.36842"/>
<path fill-rule="evenodd" clip-rule="evenodd" d="M4.47807 0.521099C1.00845 2.95075 -0.479712 7.30324 1.9 10.7015L1.90666 10.7111L1.91335 10.7206L1.92005 10.7302L1.92677 10.7398L1.9335 10.7494L1.94026 10.759L1.94702 10.7687L1.95381 10.7784L1.96061 10.7881L1.96743 10.7978L1.97427 10.8076L1.98112 10.8174L1.98798 10.8272L1.99487 10.837L2.00177 10.8469L2.00868 10.8567L2.01561 10.8666L2.02256 10.8766L2.02952 10.8865L2.0365 10.8965L2.04349 10.9065L2.0505 10.9165L2.05752 10.9265L2.06456 10.9365L2.07161 10.9466L2.07868 10.9567L2.08576 10.9668L2.09286 10.977L2.09997 10.9871L2.1071 10.9973L2.11424 11.0075L2.12139 11.0177L2.12856 11.0279L2.13574 11.0382L2.14294 11.0485L2.15015 11.0588L2.15737 11.0691L2.16461 11.0794L2.17186 11.0898L2.17912 11.1001L2.1864 11.1105L2.19369 11.1209L2.201 11.1314L2.20831 11.1418L2.21564 11.1523L2.22298 11.1628L2.23034 11.1733L2.23771 11.1838L2.24509 11.1943L2.25248 11.2049L2.25988 11.2155L2.2673 11.2261L2.27473 11.2367L2.28217 11.2473L2.28962 11.2579L2.29709 11.2686L2.30456 11.2793L2.31205 11.29L2.31955 11.3007L2.32706 11.3114L2.33458 11.3221L2.34211 11.3329L2.34966 11.3437L2.35721 11.3545L2.36478 11.3653L2.37236 11.3761L2.37994 11.3869L2.38754 11.3978L2.39515 11.4086L2.40277 11.4195L2.41039 11.4304L2.41803 11.4413L2.42568 11.4522L2.43334 11.4632L2.44101 11.4741L2.44869 11.4851L2.45637 11.4961L2.46407 11.5071L2.47178 11.5181L2.47949 11.5291L2.48722 11.5401L2.49495 11.5512L2.5027 11.5622L2.51045 11.5733L2.51821 11.5844L2.52598 11.5955L2.53376 11.6066L2.54154 11.6177L2.54934 11.6288L2.55714 11.64L2.56495 11.6511L2.57277 11.6623L2.5806 11.6735L2.58844 11.6847L2.59628 11.6959L2.60413 11.7071L2.61199 11.7183L2.61986 11.7295L2.62773 11.7408L2.63561 11.752L2.6435 11.7633L2.6514 11.7746L2.6593 11.7858L2.66721 11.7971L2.67512 11.8084L2.68304 11.8198L2.69097 11.8311L2.69891 11.8424L2.70685 11.8538L2.7148 11.8651L2.72275 11.8765L2.73071 11.8878L2.73868 11.8992L2.74665 11.9106L2.75463 11.922L2.76261 11.9334L2.7706 11.9448L2.7786 11.9562L2.7866 11.9676L2.7946 11.9791L2.80261 11.9905L2.81063 12.002L2.81865 12.0134L2.82667 12.0249L2.8347 12.0363L2.84274 12.0478L2.85078 12.0593L2.85882 12.0708L2.86687 12.0823L2.87492 12.0938L2.88298 12.1053L2.89104 12.1168L2.8991 12.1283L2.90717 12.1398L2.91524 12.1513L2.92332 12.1629L2.93139 12.1744L2.93948 12.186L2.94756 12.1975L2.95565 12.2091L2.96374 12.2206L2.97184 12.2322L2.97994 12.2437L2.98804 12.2553L2.99614 12.2669L3.00425 12.2784L3.01235 12.29L3.02047 12.3016L3.02858 12.3132L3.03669 12.3248L3.04481 12.3364L3.05293 12.348L3.06105 12.3596L3.06918 12.3712L3.0773 12.3828L3.08543 12.3944L3.09356 12.406L3.10168 12.4176L3.10982 12.4292L3.11795 12.4408L3.12608 12.4524L3.13421 12.464L3.14235 12.4757L3.15048 12.4873L3.15862 12.4989L3.16676 12.5105L3.17489 12.5221L3.18303 12.5338L3.19117 12.5454L3.19931 12.557L3.20745 12.5686L3.21558 12.5802L3.22372 12.5919L3.23186 12.6035L3.24 12.6151L3.24813 12.6267L3.25627 12.6383L3.26441 12.65L3.27254 12.6616L3.28068 12.6732L3.28881 12.6848L3.29694 12.6964L3.30507 12.708L3.3132 12.7196L3.32133 12.7313L3.32946 12.7429L3.33758 12.7545L3.34571 12.7661L3.35383 12.7777L3.36195 12.7893L3.37007 12.8008L3.37818 12.8124L3.3863 12.824L3.39441 12.8356L3.40252 12.8472L3.41063 12.8588L3.41873 12.8703L3.42683 12.8819L3.43493 12.8935L3.44303 12.905L3.45112 12.9166L3.45921 12.9281L3.4673 12.9397L3.47538 12.9512L3.48346 12.9628L3.49153 12.9743L3.49961 12.9858L3.50768 12.9974L3.51574 13.0089L3.5238 13.0204L3.53186 13.0319L3.53992 13.0434L3.54796 13.0549L3.55601 13.0664L3.56405 13.0779L3.57209 13.0893L3.58012 13.1008L3.58814 13.1123L3.59617 13.1237L3.60418 13.1352L3.61219 13.1466L3.6202 13.1581L3.6282 13.1695L3.6362 13.1809L3.64419 13.1923L3.65218 13.2037L3.66016 13.2151L3.66813 13.2265L3.6761 13.2379L3.68406 13.2492L3.69202 13.2606L3.69997 13.272L3.70791 13.2833L3.71585 13.2946L3.72378 13.306L3.7317 13.3173L3.73962 13.3286L3.74753 13.3399L3.75544 13.3512L3.76334 13.3625L3.77123 13.3737L3.77911 13.385L3.78699 13.3962L3.79485 13.4075L3.80272 13.4187L3.81057 13.4299L3.81841 13.4411L3.82625 13.4523L3.83408 13.4635L3.84191 13.4747L3.84972 13.4858L3.85753 13.497L3.86532 13.5081L3.87311 13.5192L3.8809 13.5303L3.88867 13.5414L3.89643 13.5525L3.90419 13.5636L3.91193 13.5747L3.91967 13.5857L3.9274 13.5967L3.93512 13.6078L3.94283 13.6188L3.95053 13.6298L3.95822 13.6407L3.9659 13.6517L3.97357 13.6627L3.98123 13.6736L3.98889 13.6845L3.99653 13.6955L4.00416 13.7064L4.01178 13.7172L4.01939 13.7281L4.02699 13.739L4.03458 13.7498L4.04216 13.7606L4.04973 13.7714L4.05729 13.7822L4.06484 13.793L4.07238 13.8038L4.0799 13.8145L4.08741 13.8252L4.09492 13.836L4.10241 13.8467L4.10989 13.8573L4.11736 13.868L4.12481 13.8787L4.13226 13.8893L4.13969 13.8999L4.14711 13.9105L4.15452 13.9211L4.16192 13.9316L4.1693 13.9422L4.17667 13.9527L4.18403 13.9632L4.19138 13.9737L4.19871 13.9842L4.20603 13.9946L4.21334 14.0051L4.22064 14.0155L4.22792 14.0259L4.23519 14.0363L4.24244 14.0466L4.24968 14.057L4.25691 14.0673L4.26413 14.0776L4.27133 14.0879L4.27851 14.0981L4.28569 14.1084L4.29285 14.1186L4.29999 14.1288L4.30712 14.139L4.31424 14.1492L4.32134 14.1593L4.32843 14.1694L4.3355 14.1795L4.34256 14.1896L4.3496 14.1997L4.35663 14.2097L4.36364 14.2197L4.37064 14.2297L4.37762 14.2397L4.38459 14.2496L4.39154 14.2595L4.39848 14.2695L4.4054 14.2793L4.4123 14.2892L4.41919 14.299L4.42606 14.3088L4.43292 14.3186L4.43976 14.3284L4.44658 14.3382L4.45339 14.3479L4.46018 14.3576L4.46696 14.3672L4.47371 14.3769L4.48046 14.3865L4.48718 14.3961L4.49389 14.4057L4.50058 14.4153L4.50725 14.4248L4.51391 14.4343L4.52054 14.4438L4.52716 14.4532L4.53377 14.4627L4.54035 14.4721L4.54692 14.4814L4.55347 14.4908L4.56 14.5001L4.56652 14.5094L4.57301 14.5187L4.57949 14.5279L4.58595 14.5372L4.59239 14.5464L4.59881 14.5555L4.60521 14.5647L4.61159 14.5738L4.61796 14.5829L4.6243 14.5919L4.63063 14.601L4.63694 14.61L4.64323 14.619L4.6495 14.6279L4.65575 14.6368L4.66197 14.6457L4.66818 14.6546L4.67437 14.6634L4.68054 14.6723L4.68669 14.681L4.69282 14.6898L4.69893 14.6985L4.70502 14.7072L4.71109 14.7159L4.71714 14.7245L4.72317 14.7331L4.72917 14.7417L4.73516 14.7502L4.74112 14.7588L4.74707 14.7673L4.75299 14.7757L4.75889 14.7841L4.76477 14.7925L4.77063 14.8009L4.77647 14.8092L4.78228 14.8175L4.78808 14.8258L4.79385 14.8341L4.7996 14.8423L4.80533 14.8504L4.81103 14.8586L4.81671 14.8667L4.82238 14.8748L4.82801 14.8828L4.83363 14.8909L4.83922 14.8989L4.84479 14.9068L4.85034 14.9147L4.85586 14.9226L4.86137 14.9305L4.86684 14.9383L4.8723 14.9461L4.87773 14.9538L4.88314 14.9616L4.88852 14.9693L4.89388 14.9769L4.89922 14.9845L4.90453 14.9921L4.90982 14.9997L4.91508 15.0072L4.92033 15.0147L4.92554 15.0221L4.93073 15.0295L4.9359 15.0369L4.94104 15.0443L4.94616 15.0516L4.95125 15.0588L4.95632 15.0661L4.96137 15.0733L4.96638 15.0804L4.97138 15.0876L4.97634 15.0947L4.98129 15.1017L4.9862 15.1087L4.99109 15.1157L4.99596 15.1227L5.0008 15.1296L5.00561 15.1365L5.0104 15.1433L5.01516 15.1501L5.01989 15.1569L5.0246 15.1636L5.02928 15.1703L5.03394 15.1769L5.03857 15.1835L5.04317 15.1901L5.04774 15.1966L5.05229 15.2031L5.05681 15.2096L5.06131 15.216L5.06577 15.2224L5.07021 15.2287L5.07463 15.235L5.07901 15.2413L5.08337 15.2475L5.0877 15.2537L5.092 15.2598L5.09627 15.2659L5.10052 15.272L5.10473 15.278L5.10892 15.284L5.11308 15.2899L5.11721 15.2958L5.12132 15.3017L5.12539 15.3075L5.12944 15.3133L5.13345 15.319L5.13744 15.3247L5.1414 15.3304L5.14533 15.336L5.14923 15.3416L5.1531 15.3471L5.15694 15.3526L5.16075 15.358L5.16453 15.3634L5.16829 15.3688L5.17201 15.3741L5.1757 15.3794L5.17936 15.3846L5.18299 15.3898L5.1866 15.3949L5.19017 15.4L5.19371 15.4051L5.19722 15.4101L5.2007 15.4151L5.20415 15.42L5.20756 15.4249L5.21095 15.4297L5.21431 15.4345L5.21763 15.4392L5.22092 15.4439L5.22418 15.4486L5.22741 15.4532L5.23061 15.4578L5.23378 15.4623L5.23691 15.4668L5.24002 15.4712L5.24309 15.4756L5.24613 15.4799L5.24913 15.4842L5.25211 15.4885L5.25505 15.4927L5.25796 15.4968L5.26083 15.5009L5.26368 15.505L5.26649 15.509L5.26927 15.513L5.27201 15.5169L5.27472 15.5208L5.2774 15.5246L5.28005 15.5284L5.28266 15.5321L5.28524 15.5358L5.28778 15.5394L5.29029 15.543L5.29277 15.5465L5.29521 15.55L5.29762 15.5535L5.29999 15.5568L5.30233 15.5602L5.30464 15.5635L5.30691 15.5667L5.30915 15.5699C6.50458 17.277 8.19527 17.7817 9.6768 18.0699C9.94101 18.1214 10.1942 18.1653 10.4364 18.2073C10.8868 18.2854 11.2988 18.3569 11.6721 18.4575C12.24 18.6105 12.6387 18.8135 12.8698 19.1435L14.2007 21.044L3.73473 33.3775C2.77081 34.5134 2.20622 35.5303 1.97507 36.3551C1.74799 37.1655 1.8269 37.869 2.28591 38.2585C2.74492 38.648 3.45188 38.6114 4.21447 38.2555C4.99074 37.8931 5.90219 37.1706 6.86611 36.0347L6.90172 35.9927L6.93733 35.9508L6.97294 35.9088L7.00856 35.8668L7.04419 35.8248L7.07981 35.7828L7.11545 35.7409L7.15108 35.6989L7.18672 35.6569L7.22235 35.6149L7.258 35.5729L7.29364 35.5309L7.32929 35.4889L7.36493 35.4468L7.40058 35.4048L7.43624 35.3628L7.47189 35.3208L7.50754 35.2788L7.5432 35.2368L7.57886 35.1948L7.61451 35.1527L7.65017 35.1107L7.68583 35.0687L7.72149 35.0267L7.75714 34.9847L7.7928 34.9426L7.82846 34.9006L7.86411 34.8586L7.89977 34.8166L7.93543 34.7746L7.97108 34.7325L8.00673 34.6905L8.04238 34.6485L8.07803 34.6065L8.11368 34.5645L8.14933 34.5225L8.18497 34.4805L8.22061 34.4385L8.25625 34.3965L8.29189 34.3545L8.32752 34.3125L8.36315 34.2705L8.39877 34.2285L8.4344 34.1866L8.47001 34.1446L8.50563 34.1026L8.54124 34.0606L8.57685 34.0187L8.61245 33.9767L8.64805 33.9348L8.68364 33.8928L8.71923 33.8509L8.75481 33.809L8.79039 33.767L8.82596 33.7251L8.86152 33.6832L8.89709 33.6413L8.93264 33.5994L8.96819 33.5575L9.00373 33.5156L9.03927 33.4738L9.07479 33.4319L9.11032 33.39L9.14583 33.3482L9.18134 33.3063L9.21684 33.2645L9.25233 33.2227L9.28781 33.1809L9.32329 33.139L9.35876 33.0973L9.39421 33.0555L9.42966 33.0137L9.46511 32.9719L9.50054 32.9302L9.53596 32.8884L9.57138 32.8467L9.60678 32.805L9.64217 32.7633L9.67756 32.7216L9.71293 32.6799L9.7483 32.6382L9.78365 32.5965L9.819 32.5549L9.85433 32.5132L9.88965 32.4716L9.92496 32.43L9.96026 32.3884L9.99555 32.3468L10.0308 32.3053L10.0661 32.2637L10.1013 32.2222L10.1366 32.1806L10.1718 32.1391L10.207 32.0976L10.2422 32.0561L10.2774 32.0147L10.3126 31.9732L10.3478 31.9318L10.3829 31.8904L10.418 31.849L10.4532 31.8076L10.4883 31.7662L10.5234 31.7248L10.5584 31.6835L10.5935 31.6422L10.6286 31.6009L10.6636 31.5596L10.6986 31.5183L10.7336 31.4771L10.7686 31.4358L10.8036 31.3946L10.8385 31.3534L10.8735 31.3123L10.9084 31.2711L10.9433 31.23L10.9782 31.1889L11.0131 31.1478L11.0479 31.1067L11.0828 31.0656L11.1176 31.0246L11.1524 30.9836L11.1872 30.9426L11.2219 30.9016L11.2567 30.8607L11.2914 30.8197L11.3261 30.7788L11.3608 30.7379L11.3955 30.6971L11.4302 30.6562L11.4648 30.6154L11.4994 30.5746L11.534 30.5338L11.5686 30.4931L11.6032 30.4523L11.6377 30.4116L11.6722 30.371L11.7067 30.3303L11.7412 30.2897L11.7757 30.2491L11.8101 30.2085L11.8445 30.1679L11.8789 30.1274L11.9133 30.0869L11.9476 30.0464L11.982 30.006L12.0163 29.9655L12.0505 29.9251L12.0848 29.8848L12.1191 29.8444L12.1533 29.8041L12.1875 29.7638L12.2216 29.7235L12.2558 29.6833L12.2899 29.6431L12.324 29.6029L12.3581 29.5627L12.3921 29.5226L12.4262 29.4825L12.4602 29.4424L12.4941 29.4024L12.5281 29.3624L12.562 29.3224L12.5959 29.2825L12.6298 29.2425L12.6636 29.2026L12.6975 29.1628L12.7313 29.1229L12.765 29.0831L12.7988 29.0434L12.8325 29.0036L12.8662 28.9639L12.8999 28.9243L12.9335 28.8846L12.9671 28.845L13.0007 28.8054L13.0343 28.7659L13.0678 28.7264L13.1013 28.6869L13.1348 28.6474L13.1682 28.608L13.2016 28.5686L13.235 28.5293L13.2684 28.49L13.3017 28.4507L13.335 28.4115L13.3683 28.3722L13.4015 28.3331L13.4348 28.2939L13.4679 28.2548L13.5011 28.2158L13.5342 28.1767L13.5673 28.1377L13.6004 28.0988L13.6334 28.0598L13.6664 28.021L13.6994 27.9821L13.7323 27.9433L13.7652 27.9045L13.7981 27.8658L13.8309 27.8271L13.8637 27.7884L13.8965 27.7498L13.9292 27.7112L13.962 27.6727L13.9946 27.6341L14.0273 27.5957L14.0599 27.5572L14.0925 27.5189L14.125 27.4805L14.1575 27.4422L14.19 27.4039L14.2224 27.3657L14.2549 27.3275L14.2872 27.2893L14.3196 27.2512L14.3519 27.2132L14.3841 27.1751L14.4164 27.1371L14.4486 27.0992L14.4807 27.0613L14.5129 27.0234L14.545 26.9856L14.577 26.9478L14.609 26.9101L14.641 26.8724L14.673 26.8348L14.7049 26.7972L14.7367 26.7596L14.7686 26.7221L14.8004 26.6846L14.8321 26.6472L14.8639 26.6098L14.8955 26.5725L14.9272 26.5352L14.9588 26.4979L14.9904 26.4607L15.0219 26.4236L15.0534 26.3865L15.0848 26.3494L15.1162 26.3124L15.1476 26.2754L15.179 26.2385L15.2102 26.2016L15.2415 26.1648L15.2727 26.128L15.3039 26.0913L15.335 26.0546L15.3661 26.0179L15.3972 25.9813L15.4282 25.9448L15.4591 25.9083L15.4901 25.8719L15.521 25.8355L15.5518 25.7991L15.5826 25.7628L15.6134 25.7266L15.6441 25.6904L15.6747 25.6542L15.7054 25.6181L15.736 25.5821L15.7665 25.5461L15.797 25.5101L15.8275 25.4743L15.8579 25.4384L15.8883 25.4026L15.9186 25.3669L15.9489 25.3312L15.9791 25.2956L16.0093 25.26L16.0395 25.2244L16.0696 25.189L16.0996 25.1535L16.1296 25.1182L16.1596 25.0829L16.1895 25.0476L16.2194 25.0124L16.2492 24.9772L16.279 24.9421L16.3088 24.9071L16.3384 24.8721L16.3681 24.8372L16.3977 24.8023L16.4272 24.7675L16.4567 24.7327L16.4862 24.698L16.5156 24.6633L16.545 24.6287L16.5743 24.5942L16.6035 24.5597L16.6328 24.5253L16.6359 24.5216L24.6125 35.9124C25.3843 37.0147 26.1622 37.7321 26.8603 38.1071C27.5512 38.4782 28.2189 38.5373 28.6971 38.2024C29.1753 37.8675 29.3482 37.2199 29.2357 36.4438C29.122 35.6594 28.7138 34.6832 27.9419 33.5809L27.9236 33.5548L27.9053 33.5287L27.8871 33.5026L27.8688 33.4765L27.8505 33.4504L27.8322 33.4243L27.8139 33.3982L27.7957 33.3721L27.7774 33.346L27.7591 33.3199L27.7408 33.2938L27.7225 33.2676L27.7042 33.2415L27.686 33.2154L27.6677 33.1893L27.6494 33.1632L27.6311 33.1371L27.6128 33.1109L27.5945 33.0848L27.5762 33.0587L27.5579 33.0326L27.5396 33.0064L27.5213 32.9803L27.503 32.9542L27.4847 32.9281L27.4664 32.9019L27.4481 32.8758L27.4298 32.8497L27.4115 32.8235L27.3932 32.7974L27.3749 32.7713L27.3566 32.7452L27.3383 32.719L27.32 32.6929L27.3017 32.6668L27.2834 32.6406L27.2652 32.6145L27.2469 32.5884L27.2286 32.5622L27.2103 32.5361L27.192 32.51L27.1737 32.4838L27.1554 32.4577L27.1371 32.4316L27.1188 32.4054L27.1005 32.3793L27.0822 32.3532L27.0639 32.3271L27.0456 32.3009L27.0273 32.2748L27.009 32.2487L26.9907 32.2225L26.9724 32.1964L26.9541 32.1703L26.9358 32.1442L26.9175 32.1181L26.8992 32.0919L26.8809 32.0658L26.8626 32.0397L26.8443 32.0136L26.8261 31.9875L26.8078 31.9613L26.7895 31.9352L26.7712 31.9091L26.7529 31.883L26.7346 31.8569L26.7164 31.8308L26.6981 31.8047L26.6798 31.7786L26.6615 31.7525L26.6432 31.7264L26.625 31.7003L26.6067 31.6742L26.5884 31.6481L26.5701 31.622L26.5519 31.5959L26.5336 31.5698L26.5153 31.5437L26.4971 31.5176L26.4788 31.4916L26.4605 31.4655L26.4423 31.4394L26.424 31.4133L26.4058 31.3873L26.3875 31.3612L26.3693 31.3351L26.351 31.3091L26.3328 31.283L26.3145 31.2569L26.2963 31.2309L26.278 31.2048L26.2598 31.1788L26.2415 31.1527L26.2233 31.1267L26.2051 31.1007L26.1868 31.0746L26.1686 31.0486L26.1504 31.0225L26.1321 30.9965L26.1139 30.9705L26.0957 30.9445L26.0775 30.9185L26.0593 30.8924L26.041 30.8664L26.0228 30.8404L26.0046 30.8144L25.9864 30.7884L25.9682 30.7624L25.95 30.7364L25.9318 30.7105L25.9136 30.6845L25.8954 30.6585L25.8772 30.6325L25.8591 30.6066L25.8409 30.5806L25.8227 30.5546L25.8045 30.5287L25.7863 30.5027L25.7682 30.4768L25.75 30.4508L25.7318 30.4249L25.7137 30.399L25.6955 30.373L25.6774 30.3471L25.6592 30.3212L25.6411 30.2953L25.6229 30.2694L25.6048 30.2434L25.5867 30.2175L25.5685 30.1917L25.5504 30.1658L25.5323 30.1399L25.5141 30.114L25.496 30.0881L25.4779 30.0623L25.4598 30.0364L25.4417 30.0105L25.4236 29.9847L25.4055 29.9588L25.3874 29.933L25.3693 29.9072L25.3512 29.8813L25.3331 29.8555L25.315 29.8297L25.297 29.8039L25.2789 29.7781L25.2608 29.7523L25.2428 29.7265L25.2247 29.7007L25.2067 29.6749L25.1886 29.6491L25.1706 29.6234L25.1525 29.5976L25.1345 29.5718L25.1165 29.5461L25.0984 29.5203L25.0804 29.4946L25.0624 29.4689L25.0444 29.4432L25.0264 29.4174L25.0084 29.3917L24.9904 29.366L24.9724 29.3403L24.9544 29.3146L24.9364 29.289L24.9184 29.2633L24.9004 29.2376L24.8825 29.212L24.8645 29.1863L24.8465 29.1607L24.8286 29.135L24.8106 29.1094L24.7927 29.0838L24.7748 29.0581L24.7568 29.0325L24.7389 29.0069L24.721 28.9813L24.7031 28.9558L24.6852 28.9302L24.6672 28.9046L24.6493 28.879L24.6315 28.8535L24.6136 28.8279L24.5957 28.8024L24.5778 28.7769L24.5599 28.7514L24.5421 28.7258L24.5242 28.7003L24.5063 28.6748L24.4885 28.6493L24.4707 28.6239L24.4528 28.5984L24.435 28.5729L24.4172 28.5475L24.3993 28.522L24.3815 28.4966L24.3637 28.4712L24.3459 28.4457L24.3281 28.4203L24.3103 28.3949L24.2926 28.3695L24.2748 28.3442L24.257 28.3188L24.2393 28.2934L24.2215 28.2681L24.2038 28.2427L24.186 28.2174L24.1683 28.1921L24.1505 28.1667L24.1328 28.1414L24.1151 28.1161L24.0974 28.0908L24.0797 28.0656L24.062 28.0403L24.0443 28.015L24.0266 27.9898L24.009 27.9645L23.9913 27.9393L23.9736 27.9141L23.956 27.8889L23.9383 27.8637L23.9207 27.8385L23.903 27.8133L23.8854 27.7881L23.8678 27.763L23.8502 27.7378L23.8326 27.7127L23.815 27.6876L23.7974 27.6624L23.7798 27.6373L23.7623 27.6122L23.7447 27.5872L23.7271 27.5621L23.7096 27.537L23.692 27.512L23.6745 27.4869L23.657 27.4619L23.6394 27.4369L23.6219 27.4119L23.6044 27.3869L23.5869 27.3619L23.5694 27.3369L23.552 27.3119L23.5345 27.287L23.517 27.262L23.4996 27.2371L23.4821 27.2122L23.4647 27.1873L23.4472 27.1624L23.4298 27.1375L23.4124 27.1126L23.395 27.0878L23.3776 27.0629L23.3602 27.0381L23.3428 27.0133L23.3254 26.9885L23.3081 26.9637L23.2907 26.9389L23.2734 26.9141L23.256 26.8893L23.2387 26.8646L23.2214 26.8399L23.2041 26.8151L23.1868 26.7904L23.1695 26.7657L23.1522 26.741L23.1349 26.7164L23.1176 26.6917L23.1004 26.667L23.0831 26.6424L23.0659 26.6178L23.0486 26.5932L23.0314 26.5686L23.0142 26.544L22.997 26.5194L22.9798 26.4949L22.9626 26.4703L22.9454 26.4458L22.9283 26.4213L22.9111 26.3968L22.8939 26.3723L22.8768 26.3478L22.8597 26.3233L22.8426 26.2989L22.8254 26.2744L22.8083 26.25L22.7912 26.2256L22.7742 26.2012L22.7571 26.1768L22.74 26.1525L22.723 26.1281L22.7059 26.1038L22.6889 26.0794L22.6719 26.0551L22.6548 26.0308L22.6378 26.0065L22.6208 25.9823L22.6039 25.958L22.5869 25.9338L22.5699 25.9096L22.553 25.8853L22.536 25.8611L22.5191 25.837L22.5022 25.8128L22.4853 25.7886L22.4684 25.7645L22.4515 25.7404L22.4346 25.7163L22.4177 25.6922L22.4008 25.6681L22.384 25.644L22.3672 25.62L22.3503 25.596L22.3335 25.5719L22.3167 25.5479L22.2999 25.524L22.2831 25.5L22.2663 25.476L22.2496 25.4521L22.2328 25.4282L22.2161 25.4043L22.1994 25.3804L22.1826 25.3565L22.1659 25.3326L22.1492 25.3088L22.1325 25.285L22.1159 25.2611L22.0992 25.2373L22.0825 25.2136L22.0659 25.1898L22.0493 25.166L22.0327 25.1423L22.016 25.1186L21.9994 25.0949L21.9829 25.0712L21.9663 25.0476L21.9497 25.0239L21.9332 25.0003L21.9166 24.9766L21.9001 24.953L21.8836 24.9295L21.8671 24.9059L21.8506 24.8823L21.8341 24.8588L21.8177 24.8353L21.8012 24.8118L21.7848 24.7883L21.7683 24.7649L21.7519 24.7414L21.7355 24.718L21.7191 24.6946L21.7027 24.6712L21.6864 24.6478L21.67 24.6244L21.6536 24.6011L21.6373 24.5778L21.621 24.5544L21.6047 24.5312L21.5884 24.5079L21.5721 24.4846L21.5558 24.4614L21.5396 24.4382L21.5233 24.415L21.5071 24.3918L21.4909 24.3686L21.4747 24.3455L21.4585 24.3224L21.4423 24.2992L21.4261 24.2761L21.41 24.2531L21.3938 24.23L21.3777 24.207L21.3616 24.184L21.3454 24.161L21.3294 24.138L21.3133 24.115L21.2972 24.0921L21.2812 24.0692L21.2651 24.0462L21.2491 24.0234L21.2331 24.0005L21.2171 23.9776L21.2011 23.9548L21.1851 23.932L21.1692 23.9092L21.1532 23.8864L21.1373 23.8637L21.1214 23.841L21.1055 23.8182L21.0896 23.7955L21.0737 23.7729L21.0578 23.7502L21.042 23.7276L21.0261 23.705L21.0103 23.6824L20.9945 23.6598L20.9787 23.6372L20.9629 23.6147L20.9472 23.5922L20.9314 23.5697L20.9157 23.5472L20.8999 23.5248L20.8842 23.5023L20.8685 23.4799L20.8528 23.4575L20.8372 23.4351L20.8215 23.4128L20.8059 23.3904L20.7903 23.3681L20.7746 23.3458L20.759 23.3236L20.7435 23.3013L20.7279 23.2791L20.7123 23.2569L20.6968 23.2347L20.6813 23.2125L20.6658 23.1904L20.6503 23.1682L20.6348 23.1461L20.6193 23.124L20.6039 23.102L20.5884 23.0799L20.573 23.0579L20.5576 23.0359L20.5422 23.0139L20.5269 22.992L20.5115 22.97L20.4961 22.9481L20.4808 22.9262L20.4655 22.9044L20.4502 22.8825L20.4349 22.8607L20.4196 22.8389L20.4044 22.8171L20.3892 22.7954L20.3739 22.7736L20.3587 22.7519L20.3435 22.7302L20.3284 22.7085L20.3132 22.6869L20.2981 22.6653L20.2829 22.6436L20.2678 22.6221L20.2527 22.6005L20.2376 22.579L20.2226 22.5574L20.2075 22.536L20.1925 22.5145L20.1775 22.493L20.1625 22.4716L20.1475 22.4502L20.1325 22.4288L20.1175 22.4075L20.1026 22.3861L20.0877 22.3648L20.0728 22.3435L20.0579 22.3223L20.043 22.301L20.0282 22.2798L20.0133 22.2586L19.9985 22.2375L19.9837 22.2163L19.9689 22.1952L19.9541 22.1741L19.9394 22.153L19.9246 22.132L19.9099 22.1109L19.8952 22.0899L19.8805 22.0689L19.8658 22.048L19.8511 22.0271L19.8365 22.0061L19.8219 21.9853L19.8073 21.9644L19.7927 21.9436L19.7781 21.9228L19.7636 21.902L19.749 21.8812L19.7345 21.8605L19.72 21.8397L19.7055 21.8191L19.691 21.7984L19.6766 21.7777L19.6621 21.7571L19.6477 21.7365L19.6333 21.716L19.6189 21.6954L19.6046 21.6749L19.5902 21.6544L19.5759 21.634L19.5616 21.6135L19.5473 21.5931L19.533 21.5727L19.5187 21.5523L19.5045 21.532L19.4902 21.5117L19.476 21.4914L19.4618 21.4711L19.4477 21.4509L19.4335 21.4307L19.4194 21.4105L19.4053 21.3903L19.3912 21.3702L19.3771 21.3501L19.363 21.33L19.3545 21.3178L19.3718 21.2975L19.3949 21.2703L19.4179 21.2431L19.4409 21.216L19.4638 21.189L19.4867 21.1621L19.5094 21.1353L19.5322 21.1085L19.5548 21.0818L19.5774 21.0552L19.5999 21.0287L19.6223 21.0023L19.6447 20.9759L19.667 20.9497L19.6892 20.9235L19.7113 20.8974L19.7334 20.8713L19.7554 20.8454L19.7774 20.8195L19.7992 20.7938L19.821 20.7681L19.8428 20.7425L19.8644 20.717L19.886 20.6915L19.9075 20.6662L19.929 20.6409L19.9503 20.6157L19.9716 20.5906L19.9929 20.5656L20.014 20.5407L20.0351 20.5158L20.0561 20.4911L20.077 20.4664L20.0979 20.4418L20.1187 20.4173L20.1394 20.3929L20.16 20.3686L20.1806 20.3444L20.2011 20.3202L20.2215 20.2962L20.2418 20.2722L20.2621 20.2483L20.2823 20.2245L20.3024 20.2008L20.3224 20.1772L20.3424 20.1537L20.3623 20.1302L20.3821 20.1069L20.4019 20.0836L20.4215 20.0605L20.4411 20.0374L20.4606 20.0144L20.48 19.9915L20.4994 19.9687L20.5187 19.946L20.5379 19.9233L20.557 19.9008L20.576 19.8784L20.595 19.856L20.6139 19.8338L20.6327 19.8116L20.6514 19.7895L20.6701 19.7675L20.6886 19.7457L20.7071 19.7239L20.7256 19.7022L20.7439 19.6806L20.7621 19.659L20.7803 19.6376L20.7984 19.6163L20.8164 19.5951L20.8344 19.5739L20.8522 19.5529L20.87 19.5319L20.8877 19.5111L20.9053 19.4903L20.9228 19.4697L20.9403 19.4491L20.9576 19.4287L20.9749 19.4083L20.9921 19.388L21.0093 19.3678L21.0263 19.3478L21.0433 19.3278L21.0601 19.3079L21.0769 19.2881L21.0936 19.2684L21.1103 19.2488L21.1268 19.2293L21.1432 19.2099L21.1596 19.1906L21.1759 19.1714L21.1921 19.1523L21.2082 19.1333L21.2243 19.1144L21.2402 19.0956L21.2561 19.0769L21.2719 19.0583L21.2876 19.0399L21.3032 19.0215L21.3187 19.0032L21.3342 18.985L21.3495 18.9669L21.3648 18.9489L21.38 18.931L21.3951 18.9132L21.4101 18.8955L21.425 18.8779L21.4398 18.8604L21.4546 18.8431L21.4692 18.8258L21.4838 18.8086L21.4983 18.7916L21.5127 18.7746L21.527 18.7577L21.5412 18.741L21.5553 18.7243L21.5694 18.7078L21.5833 18.6913C21.9227 18.2914 22.342 18.0633 22.8511 17.8924C23.1818 17.7813 23.5291 17.7 23.9111 17.6105L23.9112 17.6105C24.1377 17.5574 24.3764 17.5015 24.631 17.4349C25.9787 17.0822 27.5505 16.4731 29.1803 14.5524L34.264 8.56156C34.7731 7.96169 34.6994 7.06273 34.0996 6.55369C33.4997 6.04465 32.6007 6.11828 32.0917 6.71816L27.1724 12.5153L26.058 11.5882L31.6516 4.72343C32.1406 4.12333 32.0555 3.24149 31.4608 2.74593C30.8616 2.24657 29.971 2.32742 29.4715 2.92654L23.8385 9.68292L22.8159 8.81515L27.7596 2.99741C28.2821 2.38249 28.1914 1.457 27.5593 0.955306C26.9562 0.476551 26.082 0.562585 25.5837 1.14974L20.4774 7.16727C18.9922 8.91745 18.8416 10.7925 18.8697 12.4006C18.8747 12.6859 18.8849 12.9582 18.8948 13.2189L18.8948 13.2191C18.9131 13.7051 18.9299 14.1507 18.9081 14.5652C18.875 15.1938 18.7534 15.6789 18.4519 16.0341L16.9193 17.8403L16.9181 17.8385L16.9162 17.8358L16.9142 17.8331L16.9123 17.8303L16.9104 17.8276L16.9085 17.8249L16.9066 17.8222L16.9047 17.8195L16.9028 17.8168L16.9009 17.8141L16.8991 17.8114L16.8972 17.8087L16.8953 17.806L16.8934 17.8033L16.8915 17.8006L16.8896 17.7979L16.8877 17.7952L16.8858 17.7925L16.8839 17.7898L16.882 17.7871L16.8802 17.7844L16.8783 17.7817L16.8764 17.779L16.8745 17.7763L16.8726 17.7736L16.8707 17.7709L16.8689 17.7683L16.867 17.7656L16.8651 17.7629L16.8632 17.7602L16.8614 17.7575L16.8595 17.7549L16.8576 17.7522L16.8557 17.7495L16.8539 17.7468L16.852 17.7442L16.8501 17.7415L16.8483 17.7388L16.8464 17.7362L16.8445 17.7335L16.8427 17.7308L16.8408 17.7282L16.8389 17.7255L16.8371 17.7229L16.8352 17.7202L16.8334 17.7176L16.8315 17.7149L16.8297 17.7123L16.8278 17.7096L16.8259 17.707L16.8241 17.7043L16.8222 17.7017L16.8204 17.699L16.8185 17.6964L16.8167 17.6937L16.8148 17.6911L16.813 17.6885L16.8111 17.6858L16.8093 17.6832L16.8075 17.6806L16.8056 17.6779L16.8038 17.6753L16.8019 17.6727L16.8001 17.67L16.7982 17.6674L16.7964 17.6648L16.7946 17.6622L16.7927 17.6595L16.7909 17.6569L16.7891 17.6543L16.7872 17.6517L16.7854 17.6491L16.7836 17.6465L16.7817 17.6438L16.7799 17.6412L16.7781 17.6386L16.7763 17.636L16.7744 17.6334L16.7726 17.6308L16.7708 17.6282L16.769 17.6256L16.7672 17.623L16.7653 17.6204L16.7635 17.6178L16.7617 17.6152L16.7599 17.6126L16.7581 17.61L16.7563 17.6074L16.7544 17.6049L16.7526 17.6023L16.7508 17.5997L16.749 17.5971L16.7472 17.5945L16.7454 17.5919L16.7436 17.5893L16.7418 17.5868L16.74 17.5842L16.7382 17.5816L16.7364 17.579L16.7346 17.5765L16.7328 17.5739L16.731 17.5713L16.7292 17.5688L16.7274 17.5662L16.7256 17.5636L16.7238 17.5611L16.722 17.5585L16.7202 17.5559L16.7184 17.5534L16.7166 17.5508L16.7148 17.5483L16.713 17.5457L16.7112 17.5432L16.7095 17.5406L16.7077 17.5381L16.7059 17.5355L16.7041 17.533L16.7023 17.5304L16.7005 17.5279L16.6988 17.5253L16.697 17.5228L16.6952 17.5203L16.6934 17.5177L16.6917 17.5152L16.6899 17.5127L16.6881 17.5101L16.6863 17.5076L16.6846 17.5051L16.6828 17.5025L16.681 17.5L16.6793 17.4975L16.6775 17.495L16.6757 17.4924L16.674 17.4899L16.6722 17.4874L16.6704 17.4849L16.6687 17.4824L16.6669 17.4799L16.6652 17.4774L16.6634 17.4748L16.6616 17.4723L16.6599 17.4698L16.6581 17.4673L16.6564 17.4648L16.6546 17.4623L16.6529 17.4598L16.6511 17.4573L16.6494 17.4548L16.6476 17.4523L16.6459 17.4498L16.6441 17.4473L16.6424 17.4448L16.6406 17.4423L16.6389 17.4399L16.6372 17.4374L16.6354 17.4349L16.6337 17.4324L16.6319 17.4299L16.6302 17.4274L16.6285 17.425L16.6267 17.4225L16.625 17.42L16.6233 17.4175L16.6215 17.4151L16.6198 17.4126L16.6181 17.4101L16.6163 17.4076L16.6146 17.4052L16.6129 17.4027L16.6112 17.4002L16.6094 17.3978L16.6077 17.3953L16.606 17.3929L16.6043 17.3904L16.6026 17.388L16.6008 17.3855L16.5991 17.383L16.5974 17.3806L16.5957 17.3781L16.594 17.3757L16.5923 17.3733L16.5905 17.3708L16.5888 17.3684L16.5871 17.3659L16.5854 17.3635L16.5837 17.361L16.582 17.3586L16.5803 17.3562L16.5786 17.3537L16.5769 17.3513L16.5752 17.3489L16.5735 17.3464L16.5718 17.344L16.5701 17.3416L16.5684 17.3392L16.5667 17.3367L16.565 17.3343L16.5633 17.3319L16.5616 17.3295L16.5599 17.3271L16.5582 17.3246L16.5565 17.3222L16.5548 17.3198L16.5532 17.3174L16.5515 17.315L16.5498 17.3126L16.5481 17.3102L16.5464 17.3078L16.5447 17.3054L16.5431 17.303L16.5414 17.3006L16.5397 17.2982L16.538 17.2958L16.5363 17.2934L16.5347 17.291L16.533 17.2886L16.5313 17.2862L16.5296 17.2838L16.528 17.2814L16.5263 17.2791L16.5246 17.2767L16.523 17.2743L16.5213 17.2719L16.5196 17.2695L16.518 17.2672L16.5163 17.2648L16.5146 17.2624L16.513 17.26L16.5113 17.2577L16.5097 17.2553L16.508 17.2529L16.5063 17.2506L16.5047 17.2482L16.503 17.2458L16.5014 17.2435L16.4997 17.2411L16.4981 17.2388L16.4964 17.2364L16.4948 17.2341L16.4931 17.2317L16.4915 17.2293L16.4898 17.227L16.4882 17.2246L16.4866 17.2223L16.4849 17.22L16.4833 17.2176L16.4816 17.2153L16.48 17.2129L16.4784 17.2106L16.4767 17.2083L16.4751 17.2059L16.4734 17.2036L16.4718 17.2013L16.4702 17.1989L16.4686 17.1966L16.4669 17.1943L16.4653 17.1919L16.4637 17.1896L16.462 17.1873L16.4604 17.185L16.4588 17.1827L16.4572 17.1803L16.4555 17.178L16.4539 17.1757L16.4523 17.1734L16.4507 17.1711L16.4491 17.1688L16.4474 17.1665L16.4458 17.1642L16.4442 17.1618L16.4426 17.1595L16.441 17.1572L16.4394 17.1549L16.4378 17.1526L16.4362 17.1503L16.4346 17.1481L16.433 17.1458L16.4313 17.1435L16.4297 17.1412L16.4281 17.1389L16.4265 17.1366L16.4249 17.1343L16.4233 17.132L16.4217 17.1297L16.4201 17.1275L16.4185 17.1252L16.417 17.1229L16.4154 17.1206L16.4138 17.1184L16.4122 17.1161L16.4106 17.1138L16.409 17.1115L16.4074 17.1093L16.4058 17.107L16.4042 17.1047L16.4026 17.1025L16.4011 17.1002L16.3995 17.098L16.3979 17.0957L16.3963 17.0934L16.3947 17.0912L16.3932 17.0889L16.3916 17.0867L16.39 17.0844L16.3884 17.0822L16.3869 17.0799L16.3853 17.0777L16.3837 17.0755L16.3822 17.0732L16.3806 17.071L16.379 17.0687L16.3774 17.0665L16.3759 17.0643L16.3743 17.062L16.3728 17.0598L16.3712 17.0576L16.3696 17.0553L16.3681 17.0531L16.3665 17.0509L16.365 17.0487L16.3634 17.0464L16.3618 17.0442L16.3603 17.042L16.3587 17.0398L16.3572 17.0376L16.3556 17.0353L16.3541 17.0331L16.3525 17.0309L16.351 17.0287L16.3494 17.0265L16.3479 17.0243L16.3464 17.0221L16.3448 17.0199L16.3433 17.0177L16.3417 17.0155L16.3402 17.0133L16.3387 17.0111L16.3371 17.0089L16.3356 17.0067L16.334 17.0045L16.3325 17.0023L16.331 17.0001L16.3295 16.998L16.3279 16.9958L16.3264 16.9936L16.3249 16.9914L16.3233 16.9892L16.3218 16.987L16.3203 16.9849L16.3188 16.9827L16.3172 16.9805L16.3157 16.9784L16.3142 16.9762L16.3127 16.974L16.3112 16.9718L16.3097 16.9697L16.3081 16.9675L16.3066 16.9654L16.3051 16.9632L16.3036 16.961L16.3021 16.9589L16.3006 16.9567L16.2991 16.9546L16.2976 16.9524L16.2961 16.9503L16.2946 16.9481L16.2931 16.946L16.2915 16.9438L16.29 16.9417L16.2885 16.9395L16.2871 16.9374L16.2856 16.9353L16.2841 16.9331L16.2826 16.931L16.2811 16.9289L16.2796 16.9267L16.2781 16.9246L16.2766 16.9225L16.2751 16.9203L16.2736 16.9182L16.2721 16.9161L16.2706 16.914L16.2692 16.9118L16.2677 16.9097L16.2662 16.9076L16.2647 16.9055L16.2632 16.9034L16.2617 16.9013L16.2603 16.8992L16.2588 16.8971L16.2573 16.8949L16.2558 16.8928L16.2544 16.8907L16.2529 16.8886L16.2514 16.8865L16.25 16.8844L16.2485 16.8823L16.247 16.8802L16.2456 16.8782L16.2441 16.8761L16.2426 16.874L16.2412 16.8719L16.2397 16.8698L16.2382 16.8677L16.2368 16.8656L16.2353 16.8635L16.2339 16.8615L16.2324 16.8594L16.231 16.8573L16.2295 16.8552L16.2281 16.8532L16.2266 16.8511L16.2252 16.849L16.2237 16.8469L16.2223 16.8449L16.2208 16.8428L16.2194 16.8407L16.2179 16.8387L16.2165 16.8366L16.215 16.8346L16.2136 16.8325L16.2122 16.8305L16.2107 16.8284L16.2093 16.8263L16.2078 16.8243L16.2064 16.8223L16.205 16.8202L16.2035 16.8182L16.2021 16.8161L16.2007 16.8141L16.1993 16.812L4.83542 0.584095L4.68824 0.373924L4.47807 0.521099ZM16.5761 18.2447L16.5748 18.2429L16.5728 18.2401L16.5709 18.2373L16.5689 18.2346L16.567 18.2318L16.565 18.229L16.5631 18.2262L16.5612 18.2235L16.5592 18.2207L16.5573 18.2179L16.5554 18.2152L16.5534 18.2124L16.5515 18.2096L16.5495 18.2069L16.5476 18.2041L16.5457 18.2014L16.5437 18.1986L16.5418 18.1958L16.5399 18.1931L16.538 18.1903L16.536 18.1876L16.5341 18.1848L16.5322 18.1821L16.5303 18.1793L16.5283 18.1766L16.5264 18.1738L16.5245 18.1711L16.5226 18.1684L16.5207 18.1656L16.5187 18.1629L16.5168 18.1601L16.5149 18.1574L16.513 18.1547L16.5111 18.1519L16.5092 18.1492L16.5073 18.1465L16.5053 18.1438L16.5034 18.141L16.5015 18.1383L16.4996 18.1356L16.4977 18.1329L16.4958 18.1301L16.4939 18.1274L16.492 18.1247L16.4901 18.122L16.4882 18.1193L16.4863 18.1166L16.4844 18.1138L16.4825 18.1111L16.4806 18.1084L16.4787 18.1057L16.4768 18.103L16.4749 18.1003L16.473 18.0976L16.4711 18.0949L16.4692 18.0922L16.4674 18.0895L16.4655 18.0868L16.4636 18.0841L16.4617 18.0814L16.4598 18.0787L16.4579 18.076L16.456 18.0733L16.4542 18.0707L16.4523 18.068L16.4504 18.0653L16.4485 18.0626L16.4466 18.0599L16.4448 18.0572L16.4429 18.0546L16.441 18.0519L16.4391 18.0492L16.4373 18.0465L16.4354 18.0439L16.4335 18.0412L16.4317 18.0385L16.4298 18.0359L16.4279 18.0332L16.4261 18.0305L16.4242 18.0279L16.4223 18.0252L16.4205 18.0225L16.4186 18.0199L16.4167 18.0172L16.4149 18.0146L16.413 18.0119L16.4112 18.0093L16.4093 18.0066L16.4075 18.004L16.4056 18.0013L16.4037 17.9987L16.4019 17.996L16.4 17.9934L16.3982 17.9907L16.3963 17.9881L16.3945 17.9855L16.3926 17.9828L16.3908 17.9802L16.389 17.9775L16.3871 17.9749L16.3853 17.9723L16.3834 17.9696L16.3816 17.967L16.3797 17.9644L16.3779 17.9618L16.3761 17.9591L16.3742 17.9565L16.3724 17.9539L16.3706 17.9513L16.3687 17.9487L16.3669 17.946L16.3651 17.9434L16.3632 17.9408L16.3614 17.9382L16.3596 17.9356L16.3578 17.933L16.3559 17.9304L16.3541 17.9278L16.3523 17.9252L16.3505 17.9226L16.3486 17.92L16.3468 17.9174L16.345 17.9148L16.3432 17.9122L16.3414 17.9096L16.3395 17.907L16.3377 17.9044L16.3359 17.9018L16.3341 17.8992L16.3323 17.8966L16.3305 17.894L16.3287 17.8914L16.3269 17.8889L16.325 17.8863L16.3232 17.8837L16.3214 17.8811L16.3196 17.8785L16.3178 17.876L16.316 17.8734L16.3142 17.8708L16.3124 17.8683L16.3106 17.8657L16.3088 17.8631L16.307 17.8605L16.3052 17.858L16.3034 17.8554L16.3016 17.8529L16.2999 17.8503L16.2981 17.8477L16.2963 17.8452L16.2945 17.8426L16.2927 17.8401L16.2909 17.8375L16.2891 17.835L16.2873 17.8324L16.2855 17.8299L16.2838 17.8273L16.282 17.8248L16.2802 17.8222L16.2784 17.8197L16.2766 17.8172L16.2749 17.8146L16.2731 17.8121L16.2713 17.8095L16.2695 17.807L16.2678 17.8045L16.266 17.802L16.2642 17.7994L16.2625 17.7969L16.2607 17.7944L16.2589 17.7918L16.2572 17.7893L16.2554 17.7868L16.2536 17.7843L16.2519 17.7818L16.2501 17.7792L16.2483 17.7767L16.2466 17.7742L16.2448 17.7717L16.2431 17.7692L16.2413 17.7667L16.2395 17.7642L16.2378 17.7617L16.236 17.7592L16.2343 17.7567L16.2325 17.7542L16.2308 17.7517L16.229 17.7492L16.2273 17.7467L16.2255 17.7442L16.2238 17.7417L16.222 17.7392L16.2203 17.7367L16.2186 17.7342L16.2168 17.7317L16.2151 17.7292L16.2133 17.7268L16.2116 17.7243L16.2099 17.7218L16.2081 17.7193L16.2064 17.7168L16.2047 17.7144L16.2029 17.7119L16.2012 17.7094L16.1995 17.7069L16.1977 17.7045L16.196 17.702L16.1943 17.6995L16.1925 17.6971L16.1908 17.6946L16.1891 17.6921L16.1874 17.6897L16.1857 17.6872L16.1839 17.6848L16.1822 17.6823L16.1805 17.6798L16.1788 17.6774L16.1771 17.6749L16.1753 17.6725L16.1736 17.67L16.1719 17.6676L16.1702 17.6652L16.1685 17.6627L16.1668 17.6603L16.1651 17.6578L16.1634 17.6554L16.1617 17.653L16.16 17.6505L16.1582 17.6481L16.1565 17.6457L16.1548 17.6432L16.1531 17.6408L16.1514 17.6384L16.1497 17.6359L16.148 17.6335L16.1463 17.6311L16.1447 17.6287L16.143 17.6262L16.1413 17.6238L16.1396 17.6214L16.1379 17.619L16.1362 17.6166L16.1345 17.6142L16.1328 17.6118L16.1311 17.6094L16.1294 17.6069L16.1278 17.6045L16.1261 17.6021L16.1244 17.5997L16.1227 17.5973L16.121 17.5949L16.1194 17.5925L16.1177 17.5901L16.116 17.5877L16.1143 17.5854L16.1126 17.583L16.111 17.5806L16.1093 17.5782L16.1076 17.5758L16.106 17.5734L16.1043 17.571L16.1026 17.5687L16.101 17.5663L16.0993 17.5639L16.0976 17.5615L16.096 17.5591L16.0943 17.5568L16.0926 17.5544L16.091 17.552L16.0893 17.5497L16.0877 17.5473L16.086 17.5449L16.0843 17.5426L16.0827 17.5402L16.081 17.5378L16.0794 17.5355L16.0777 17.5331L16.0761 17.5308L16.0744 17.5284L16.0728 17.526L16.0711 17.5237L16.0695 17.5213L16.0679 17.519L16.0662 17.5167L16.0646 17.5143L16.0629 17.512L16.0613 17.5096L16.0596 17.5073L16.058 17.5049L16.0564 17.5026L16.0547 17.5003L16.0531 17.4979L16.0515 17.4956L16.0498 17.4933L16.0482 17.4909L16.0466 17.4886L16.0449 17.4863L16.0433 17.484L16.0417 17.4816L16.0401 17.4793L16.0384 17.477L16.0368 17.4747L16.0352 17.4724L16.0336 17.4701L16.032 17.4677L16.0303 17.4654L16.0287 17.4631L16.0271 17.4608L16.0255 17.4585L16.0239 17.4562L16.0223 17.4539L16.0207 17.4516L16.019 17.4493L16.0174 17.447L16.0158 17.4447L16.0142 17.4424L16.0126 17.4401L16.011 17.4378L16.0094 17.4355L16.0078 17.4332L16.0062 17.431L16.0046 17.4287L16.003 17.4264L16.0014 17.4241L15.9998 17.4218L15.9982 17.4195L15.9966 17.4173L15.995 17.415L15.9934 17.4127L15.9918 17.4104L15.9902 17.4082L15.9887 17.4059L15.9871 17.4036L15.9855 17.4014L15.9839 17.3991L15.9823 17.3968L15.9807 17.3946L15.9791 17.3923L15.9776 17.3901L15.976 17.3878L15.9744 17.3855L15.9728 17.3833L15.9712 17.381L15.9697 17.3788L15.9681 17.3765L15.9665 17.3743L15.9649 17.372L15.9634 17.3698L15.9618 17.3676L15.9602 17.3653L15.9587 17.3631L15.9571 17.3608L15.9555 17.3586L15.954 17.3564L15.9524 17.3541L15.9508 17.3519L15.9493 17.3497L15.9477 17.3475L15.9462 17.3452L15.9446 17.343L15.9431 17.3408L15.9415 17.3386L15.9399 17.3363L15.9384 17.3341L15.9368 17.3319L15.9353 17.3297L15.9337 17.3275L15.9322 17.3253L15.9306 17.3231L15.9291 17.3209L15.9276 17.3186L15.926 17.3164L15.9245 17.3142L15.9229 17.312L15.9214 17.3098L15.9199 17.3076L15.9183 17.3054L15.9168 17.3033L15.9152 17.3011L15.9137 17.2989L15.9122 17.2967L15.9106 17.2945L15.9091 17.2923L15.9076 17.2901L15.906 17.2879L15.9045 17.2858L15.903 17.2836L15.9015 17.2814L15.8999 17.2792L15.8984 17.277L15.8969 17.2749L15.8954 17.2727L15.8939 17.2705L15.8923 17.2684L15.8908 17.2662L15.8893 17.264L15.8878 17.2619L15.8863 17.2597L15.8848 17.2575L15.8833 17.2554L15.8817 17.2532L15.8802 17.2511L15.8787 17.2489L15.8772 17.2468L15.8757 17.2446L15.8742 17.2425L15.8727 17.2403L15.8712 17.2382L15.8697 17.236L15.8682 17.2339L15.8667 17.2318L15.8652 17.2296L15.8637 17.2275L15.8622 17.2253L15.8607 17.2232L15.8592 17.2211L15.8577 17.2189L15.8562 17.2168L15.8548 17.2147L15.8533 17.2126L15.8518 17.2104L15.8503 17.2083L15.8488 17.2062L15.8473 17.2041L15.8458 17.202L15.8444 17.1999L15.8429 17.1977L15.8414 17.1956L15.8399 17.1935L15.8385 17.1914L15.837 17.1893L15.8355 17.1872L15.834 17.1851L15.8326 17.183L15.8311 17.1809L15.8296 17.1788L15.8281 17.1767L15.8267 17.1746L15.8252 17.1725L15.8237 17.1704L15.8223 17.1683L15.8208 17.1662L15.8194 17.1641L15.8179 17.1621L15.8164 17.16L15.815 17.1579L15.8135 17.1558L15.8121 17.1537L15.8106 17.1517L15.8092 17.1496L15.8077 17.1475L15.8063 17.1454L15.8048 17.1434L15.8034 17.1413L15.8019 17.1392L15.8005 17.1372L15.799 17.1351L15.7976 17.133L15.7961 17.131L15.7947 17.1289L15.7933 17.1269L15.7918 17.1248L15.7904 17.1228L15.7889 17.1207L15.7875 17.1187L15.7861 17.1166L15.7846 17.1146L15.7832 17.1125L15.7818 17.1105L15.7803 17.1084L15.7789 17.1064L4.56423 1.09144C1.40065 3.43626 0.200402 7.37985 2.32034 10.4072L2.32701 10.4167L2.33369 10.4263L2.34039 10.4358L2.34711 10.4454L2.35385 10.455L2.3606 10.4647L2.36737 10.4743L2.37415 10.484L2.38096 10.4938L2.38777 10.5035L2.39461 10.5132L2.40146 10.523L2.40833 10.5328L2.41521 10.5427L2.42211 10.5525L2.42903 10.5624L2.43596 10.5723L2.4429 10.5822L2.44986 10.5922L2.45684 10.6021L2.46383 10.6121L2.47084 10.6221L2.47787 10.6321L2.4849 10.6422L2.49196 10.6523L2.49902 10.6624L2.50611 10.6725L2.5132 10.6826L2.52031 10.6928L2.52744 10.7029L2.53458 10.7131L2.54173 10.7233L2.5489 10.7336L2.55609 10.7438L2.56328 10.7541L2.57049 10.7644L2.57772 10.7747L2.58495 10.7851L2.5922 10.7954L2.59947 10.8058L2.60675 10.8162L2.61404 10.8266L2.62134 10.837L2.62866 10.8475L2.63599 10.8579L2.64333 10.8684L2.65068 10.8789L2.65805 10.8895L2.66543 10.9L2.67282 10.9105L2.68023 10.9211L2.68764 10.9317L2.69507 10.9423L2.70251 10.9529L2.70997 10.9636L2.71743 10.9742L2.72491 10.9849L2.73239 10.9956L2.73989 11.0063L2.7474 11.0171L2.75493 11.0278L2.76246 11.0385L2.77 11.0493L2.77756 11.0601L2.78512 11.0709L2.7927 11.0817L2.80029 11.0926L2.80788 11.1034L2.81549 11.1143L2.82311 11.1252L2.83074 11.1361L2.83838 11.147L2.84602 11.1579L2.85368 11.1688L2.86135 11.1798L2.86903 11.1907L2.87672 11.2017L2.88441 11.2127L2.89212 11.2237L2.89984 11.2347L2.90756 11.2458L2.9153 11.2568L2.92304 11.2679L2.93079 11.2789L2.93855 11.29L2.94632 11.3011L2.9541 11.3122L2.96189 11.3233L2.96968 11.3345L2.97749 11.3456L2.9853 11.3568L2.99312 11.3679L3.00095 11.3791L3.00878 11.3903L3.01662 11.4015L3.02448 11.4127L3.03233 11.4239L3.0402 11.4352L3.04807 11.4464L3.05596 11.4577L3.06384 11.4689L3.07174 11.4802L3.07964 11.4915L3.08755 11.5028L3.09547 11.5141L3.10339 11.5254L3.11132 11.5367L3.11925 11.5481L3.12719 11.5594L3.13514 11.5708L3.1431 11.5821L3.15106 11.5935L3.15902 11.6049L3.167 11.6162L3.17497 11.6276L3.18296 11.639L3.19095 11.6504L3.19894 11.6619L3.20694 11.6733L3.21495 11.6847L3.22296 11.6962L3.23097 11.7076L3.23899 11.7191L3.24702 11.7305L3.25505 11.742L3.26308 11.7535L3.27112 11.7649L3.27916 11.7764L3.28721 11.7879L3.29526 11.7994L3.30332 11.8109L3.31138 11.8224L3.31944 11.8339L3.32751 11.8455L3.33558 11.857L3.34366 11.8685L3.35174 11.8801L3.35982 11.8916L3.36791 11.9031L3.37599 11.9147L3.38409 11.9263L3.39218 11.9378L3.40028 11.9494L3.40838 11.9609L3.41648 11.9725L3.42459 11.9841L3.4327 11.9957L3.44081 12.0073L3.44892 12.0188L3.45704 12.0304L3.46515 12.042L3.47327 12.0536L3.4814 12.0652L3.48952 12.0768L3.49764 12.0884L3.50577 12.1L3.5139 12.1116L3.52203 12.1232L3.53016 12.1349L3.53829 12.1465L3.54642 12.1581L3.55456 12.1697L3.56269 12.1813L3.57083 12.1929L3.57896 12.2045L3.5871 12.2162L3.59524 12.2278L3.60338 12.2394L3.61151 12.251L3.61965 12.2626L3.62779 12.2743L3.63593 12.2859L3.64407 12.2975L3.6522 12.3091L3.66034 12.3208L3.66848 12.3324L3.67661 12.344L3.68475 12.3556L3.69288 12.3672L3.70102 12.3788L3.70915 12.3905L3.71728 12.4021L3.72542 12.4137L3.73355 12.4253L3.74167 12.4369L3.7498 12.4485L3.75793 12.4601L3.76605 12.4717L3.77417 12.4833L3.78229 12.4949L3.79041 12.5065L3.79853 12.5181L3.80664 12.5297L3.81475 12.5413L3.82286 12.5528L3.83097 12.5644L3.83907 12.576L3.84717 12.5876L3.85527 12.5991L3.86337 12.6107L3.87146 12.6222L3.87955 12.6338L3.88764 12.6453L3.89572 12.6569L3.9038 12.6684L3.91188 12.68L3.91995 12.6915L3.92802 12.703L3.93609 12.7145L3.94415 12.726L3.9522 12.7375L3.96026 12.749L3.96831 12.7605L3.97635 12.772L3.98439 12.7835L3.99243 12.795L4.00046 12.8065L4.00849 12.8179L4.01651 12.8294L4.02453 12.8408L4.03254 12.8523L4.04054 12.8637L4.04855 12.8751L4.05654 12.8865L4.06453 12.898L4.07252 12.9094L4.0805 12.9208L4.08847 12.9321L4.09644 12.9435L4.1044 12.9549L4.11236 12.9663L4.12031 12.9776L4.12825 12.989L4.13619 13.0003L4.14412 13.0116L4.15205 13.0229L4.15997 13.0342L4.16788 13.0455L4.17578 13.0568L4.18368 13.0681L4.19157 13.0794L4.19945 13.0906L4.20733 13.1019L4.2152 13.1131L4.22306 13.1243L4.23091 13.1356L4.23876 13.1468L4.2466 13.1579L4.25443 13.1691L4.26225 13.1803L4.27006 13.1915L4.27787 13.2026L4.28567 13.2137L4.29346 13.2249L4.30124 13.236L4.30901 13.2471L4.31678 13.2582L4.32453 13.2692L4.33228 13.2803L4.34001 13.2914L4.34774 13.3024L4.35546 13.3134L4.36317 13.3244L4.37087 13.3354L4.37856 13.3464L4.38624 13.3574L4.39392 13.3683L4.40158 13.3793L4.40923 13.3902L4.41687 13.4011L4.4245 13.412L4.43212 13.4229L4.43974 13.4338L4.44734 13.4446L4.45493 13.4555L4.46251 13.4663L4.47008 13.4771L4.47763 13.4879L4.48518 13.4987L4.49272 13.5094L4.50024 13.5202L4.50776 13.5309L4.51526 13.5416L4.52275 13.5523L4.53023 13.563L4.5377 13.5737L4.54516 13.5843L4.5526 13.5949L4.56003 13.6055L4.56745 13.6161L4.57486 13.6267L4.58226 13.6373L4.58964 13.6478L4.59702 13.6584L4.60438 13.6689L4.61172 13.6794L4.61906 13.6898L4.62638 13.7003L4.63368 13.7107L4.64098 13.7211L4.64826 13.7315L4.65553 13.7419L4.66278 13.7523L4.67003 13.7626L4.67725 13.7729L4.68447 13.7832L4.69167 13.7935L4.69886 13.8038L4.70603 13.814L4.71319 13.8243L4.72033 13.8345L4.72747 13.8446L4.73458 13.8548L4.74168 13.8649L4.74877 13.8751L4.75584 13.8852L4.7629 13.8952L4.76994 13.9053L4.77697 13.9153L4.78398 13.9254L4.79098 13.9353L4.79796 13.9453L4.80493 13.9553L4.81188 13.9652L4.81882 13.9751L4.82574 13.985L4.83264 13.9948L4.83953 14.0047L4.84641 14.0145L4.85326 14.0243L4.8601 14.0341L4.86693 14.0438L4.87373 14.0535L4.88053 14.0632L4.8873 14.0729L4.89406 14.0825L4.9008 14.0922L4.90752 14.1018L4.91423 14.1114L4.92092 14.1209L4.92759 14.1304L4.93425 14.1399L4.94089 14.1494L4.94751 14.1589L4.95411 14.1683L4.9607 14.1777L4.96726 14.1871L4.97381 14.1964L4.98035 14.2058L4.98686 14.2151L4.99335 14.2243L4.99983 14.2336L5.00629 14.2428L5.01273 14.252L5.01915 14.2612L5.02555 14.2703L5.03194 14.2794L5.0383 14.2885L5.04465 14.2976L5.05097 14.3066L5.05728 14.3156L5.06357 14.3246L5.06984 14.3336L5.07609 14.3425L5.08232 14.3514L5.08853 14.3603L5.09472 14.3691L5.10089 14.3779L5.10704 14.3867L5.11317 14.3954L5.11928 14.4042L5.12537 14.4129L5.13143 14.4215L5.13748 14.4302L5.14351 14.4388L5.14952 14.4473L5.1555 14.4559L5.16147 14.4644L5.16741 14.4729L5.17333 14.4814L5.17924 14.4898L5.18512 14.4982L5.19097 14.5066L5.19681 14.5149L5.20263 14.5232L5.20842 14.5315L5.21419 14.5397L5.21994 14.5479L5.22567 14.5561L5.23137 14.5642L5.23706 14.5724L5.24272 14.5804L5.24836 14.5885L5.25397 14.5965L5.25957 14.6045L5.26514 14.6125L5.27068 14.6204L5.27621 14.6283L5.28171 14.6361L5.28719 14.6439L5.29264 14.6517L5.29807 14.6595L5.30348 14.6672L5.30886 14.6749L5.31423 14.6826L5.31956 14.6902L5.32487 14.6978L5.33016 14.7053L5.33543 14.7128L5.34067 14.7203L5.34588 14.7278L5.35108 14.7352L5.35624 14.7426L5.36139 14.7499L5.3665 14.7572L5.3716 14.7645L5.37667 14.7717L5.38171 14.7789L5.38673 14.7861L5.39172 14.7932L5.39669 14.8003L5.40163 14.8074L5.40654 14.8144L5.41144 14.8214L5.4163 14.8283L5.42114 14.8352L5.42595 14.8421L5.43074 14.8489L5.4355 14.8557L5.44024 14.8625L5.44494 14.8692L5.44963 14.8759L5.45428 14.8826L5.45891 14.8892L5.46351 14.8957L5.46809 14.9023L5.47264 14.9088L5.47716 14.9152L5.48165 14.9216L5.48612 14.928L5.49056 14.9344L5.49497 14.9407L5.49935 14.9469L5.50371 14.9531L5.50804 14.9593L5.51234 14.9655L5.51661 14.9716L5.52086 14.9776L5.52508 14.9837L5.52926 14.9896L5.53342 14.9956L5.53756 15.0015L5.54166 15.0073L5.54573 15.0132L5.54978 15.0189L5.5538 15.0247L5.55778 15.0304L5.56174 15.036L5.56567 15.0416L5.56957 15.0472L5.57344 15.0527L5.57728 15.0582L5.5811 15.0637L5.58488 15.0691L5.58863 15.0744L5.59235 15.0797L5.59604 15.085L5.59971 15.0902L5.60334 15.0954L5.60694 15.1006L5.61051 15.1057L5.61405 15.1107L5.61756 15.1157L5.62104 15.1207L5.62449 15.1256L5.62791 15.1305L5.63129 15.1353L5.63465 15.1401L5.63797 15.1449L5.64127 15.1496L5.64453 15.1542L5.64776 15.1589L5.65096 15.1634L5.65412 15.1679L5.65726 15.1724L5.66036 15.1768L5.66343 15.1812L5.66647 15.1856L5.66948 15.1899L5.67245 15.1941L5.67539 15.1983L5.6783 15.2025L5.68118 15.2066L5.68402 15.2106L5.68683 15.2147L5.68961 15.2186L5.69235 15.2225L5.69507 15.2264L5.69774 15.2302L5.70039 15.234L5.703 15.2377L5.70558 15.2414L5.70812 15.2451L5.71063 15.2486L5.71311 15.2522L5.71555 15.2557L5.71796 15.2591L5.72034 15.2625L5.72268 15.2658L5.72498 15.2691L5.72725 15.2724L5.72949 15.2756C6.80683 16.814 8.32828 17.2848 9.77481 17.5662C10.0133 17.6126 10.2538 17.6545 10.4908 17.6957L10.491 17.6957C10.9579 17.7769 11.4108 17.8556 11.8056 17.962C12.4068 18.124 12.9531 18.3678 13.2902 18.8492L14.5439 20.6395L16.5761 18.2447ZM19.0113 21.7223L18.9928 21.7441L18.9686 21.7727L18.9442 21.8013L18.9199 21.83L18.8954 21.8588L18.8709 21.8877L18.8464 21.9167L18.8218 21.9457L18.7971 21.9748L18.7723 22.0039L18.7475 22.0332L18.7226 22.0625L18.6977 22.0919L18.6727 22.1214L18.6476 22.1509L18.6225 22.1805L18.5973 22.2102L18.572 22.2399L18.5467 22.2698L18.5214 22.2997L18.4959 22.3297L18.4704 22.3597L18.4449 22.3898L18.4192 22.42L18.3936 22.4503L18.3678 22.4806L18.342 22.511L18.3162 22.5415L18.2903 22.572L18.2643 22.6026L18.2382 22.6333L18.2121 22.6641L18.186 22.6949L18.1598 22.7258L18.1335 22.7567L18.1072 22.7878L18.0808 22.8189L18.0543 22.85L18.0278 22.8813L18.0013 22.9126L17.9746 22.9439L17.948 22.9754L17.9212 23.0069L17.8944 23.0385L17.8676 23.0701L17.8407 23.1018L17.8137 23.1336L17.7867 23.1654L17.7596 23.1973L17.7325 23.2293L17.7053 23.2613L17.6781 23.2934L17.6508 23.3256L17.6234 23.3578L17.596 23.3901L17.5685 23.4225L17.541 23.4549L17.5135 23.4874L17.4858 23.52L17.4582 23.5526L17.4304 23.5853L17.4026 23.618L17.3748 23.6508L17.3469 23.6837L17.319 23.7166L17.291 23.7496L17.2629 23.7827L17.2348 23.8158L17.2066 23.849L17.1784 23.8822L17.1502 23.9155L17.1219 23.9489L17.0935 23.9823L17.0651 24.0158L17.0366 24.0494L17.0081 24.083L16.9795 24.1166L16.9509 24.1504L16.927 24.1785L16.9908 24.1338L25.0328 35.618C25.7761 36.6795 26.4983 37.3302 27.1032 37.6551C27.7153 37.9839 28.1537 37.9565 28.4028 37.7821C28.6518 37.6077 28.8275 37.2051 28.7278 36.5174C28.6294 35.8379 28.2648 34.9367 27.5215 33.8753L27.5033 33.8492L27.485 33.8231L27.4667 33.797L27.4484 33.7709L27.4302 33.7448L27.4119 33.7187L27.3936 33.6926L27.3753 33.6664L27.357 33.6403L27.3388 33.6142L27.3205 33.5881L27.3022 33.562L27.2839 33.5359L27.2656 33.5098L27.2473 33.4836L27.229 33.4575L27.2107 33.4314L27.1924 33.4053L27.1742 33.3792L27.1559 33.353L27.1376 33.3269L27.1193 33.3008L27.101 33.2747L27.0827 33.2485L27.0644 33.2224L27.0461 33.1963L27.0278 33.1702L27.0095 33.144L26.9912 33.1179L26.9729 33.0918L26.9546 33.0656L26.9363 33.0395L26.918 33.0134L26.8997 32.9872L26.8814 32.9611L26.8631 32.935L26.8448 32.9088L26.8265 32.8827L26.8082 32.8566L26.7899 32.8305L26.7716 32.8043L26.7533 32.7782L26.735 32.7521L26.7167 32.7259L26.6984 32.6998L26.6801 32.6737L26.6618 32.6475L26.6435 32.6214L26.6252 32.5953L26.6069 32.5692L26.5886 32.543L26.5703 32.5169L26.552 32.4908L26.5338 32.4647L26.5155 32.4385L26.4972 32.4124L26.4789 32.3863L26.4606 32.3602L26.4423 32.334L26.424 32.3079L26.4057 32.2818L26.3874 32.2557L26.3691 32.2296L26.3509 32.2035L26.3326 32.1774L26.3143 32.1512L26.296 32.1251L26.2777 32.099L26.2594 32.0729L26.2412 32.0468L26.2229 32.0207L26.2046 31.9946L26.1863 31.9685L26.1681 31.9424L26.1498 31.9163L26.1315 31.8903L26.1133 31.8642L26.095 31.8381L26.0767 31.812L26.0585 31.7859L26.0402 31.7598L26.0219 31.7338L26.0037 31.7077L25.9854 31.6816L25.9672 31.6555L25.9489 31.6295L25.9307 31.6034L25.9124 31.5773L25.8942 31.5513L25.8759 31.5252L25.8577 31.4992L25.8394 31.4731L25.8212 31.4471L25.8029 31.421L25.7847 31.395L25.7665 31.369L25.7483 31.3429L25.73 31.3169L25.7118 31.2909L25.6936 31.2648L25.6754 31.2388L25.6571 31.2128L25.6389 31.1868L25.6207 31.1608L25.6025 31.1348L25.5843 31.1088L25.5661 31.0828L25.5479 31.0568L25.5297 31.0308L25.5115 31.0048L25.4933 30.9788L25.4751 30.9528L25.4569 30.9269L25.4387 30.9009L25.4205 30.8749L25.4024 30.849L25.3842 30.823L25.366 30.7971L25.3478 30.7711L25.3297 30.7452L25.3115 30.7192L25.2933 30.6933L25.2752 30.6674L25.257 30.6414L25.2389 30.6155L25.2207 30.5896L25.2026 30.5637L25.1844 30.5378L25.1663 30.5119L25.1482 30.486L25.13 30.4601L25.1119 30.4342L25.0938 30.4083L25.0757 30.3825L25.0576 30.3566L25.0395 30.3307L25.0213 30.3049L25.0032 30.279L24.9851 30.2532L24.967 30.2273L24.949 30.2015L24.9309 30.1757L24.9128 30.1499L24.8947 30.124L24.8766 30.0982L24.8586 30.0724L24.8405 30.0466L24.8224 30.0208L24.8044 29.995L24.7863 29.9693L24.7683 29.9435L24.7502 29.9177L24.7322 29.8919L24.7141 29.8662L24.6961 29.8404L24.6781 29.8147L24.6601 29.789L24.642 29.7632L24.624 29.7375L24.606 29.7118L24.588 29.6861L24.57 29.6604L24.552 29.6347L24.534 29.609L24.5161 29.5833L24.4981 29.5576L24.4801 29.532L24.4621 29.5063L24.4442 29.4807L24.4262 29.455L24.4083 29.4294L24.3903 29.4037L24.3724 29.3781L24.3544 29.3525L24.3365 29.3269L24.3186 29.3013L24.3006 29.2757L24.2827 29.2501L24.2648 29.2245L24.2469 29.199L24.229 29.1734L24.2111 29.1478L24.1932 29.1223L24.1753 29.0968L24.1575 29.0712L24.1396 29.0457L24.1217 29.0202L24.1039 28.9947L24.086 28.9692L24.0682 28.9437L24.0503 28.9182L24.0325 28.8927L24.0146 28.8673L23.9968 28.8418L23.979 28.8164L23.9612 28.7909L23.9434 28.7655L23.9256 28.7401L23.9078 28.7147L23.89 28.6893L23.8722 28.6639L23.8544 28.6385L23.8367 28.6131L23.8189 28.5878L23.8012 28.5624L23.7834 28.5371L23.7657 28.5117L23.7479 28.4864L23.7302 28.4611L23.7125 28.4358L23.6948 28.4105L23.6771 28.3852L23.6594 28.3599L23.6417 28.3346L23.624 28.3094L23.6063 28.2841L23.5886 28.2589L23.5709 28.2337L23.5533 28.2084L23.5356 28.1832L23.518 28.158L23.5003 28.1328L23.4827 28.1077L23.4651 28.0825L23.4475 28.0573L23.4299 28.0322L23.4122 28.007L23.3947 27.9819L23.3771 27.9568L23.3595 27.9317L23.3419 27.9066L23.3243 27.8815L23.3068 27.8564L23.2892 27.8314L23.2717 27.8063L23.2542 27.7813L23.2366 27.7562L23.2191 27.7312L23.2016 27.7062L23.1841 27.6812L23.1666 27.6562L23.1491 27.6313L23.1316 27.6063L23.1141 27.5813L23.0967 27.5564L23.0792 27.5315L23.0618 27.5066L23.0443 27.4816L23.0269 27.4567L23.0095 27.4319L22.9921 27.407L22.9747 27.3821L22.9573 27.3573L22.9399 27.3325L22.9225 27.3076L22.9051 27.2828L22.8877 27.258L22.8704 27.2332L22.853 27.2085L22.8357 27.1837L22.8184 27.1589L22.801 27.1342L22.7837 27.1095L22.7664 27.0848L22.7491 27.0601L22.7318 27.0354L22.7146 27.0107L22.6973 26.986L22.68 26.9614L22.6628 26.9368L22.6455 26.9121L22.6283 26.8875L22.6111 26.8629L22.5939 26.8383L22.5766 26.8138L22.5594 26.7892L22.5423 26.7647L22.5251 26.7401L22.5079 26.7156L22.4908 26.6911L22.4736 26.6666L22.4565 26.6421L22.4393 26.6177L22.4222 26.5932L22.4051 26.5688L22.388 26.5444L22.3709 26.52L22.3538 26.4956L22.3367 26.4712L22.3197 26.4468L22.3026 26.4225L22.2856 26.3981L22.2685 26.3738L22.2515 26.3495L22.2345 26.3252L22.2175 26.3009L22.2005 26.2766L22.1835 26.2524L22.1665 26.2281L22.1496 26.2039L22.1326 26.1797L22.1157 26.1555L22.0987 26.1313L22.0818 26.1071L22.0649 26.083L22.048 26.0589L22.0311 26.0347L22.0142 26.0106L21.9974 25.9865L21.9805 25.9625L21.9637 25.9384L21.9468 25.9143L21.93 25.8903L21.9132 25.8663L21.8964 25.8423L21.8796 25.8183L21.8628 25.7943L21.846 25.7704L21.8292 25.7464L21.8125 25.7225L21.7957 25.6986L21.779 25.6747L21.7623 25.6508L21.7456 25.627L21.7289 25.6031L21.7122 25.5793L21.6955 25.5555L21.6789 25.5317L21.6622 25.5079L21.6456 25.4841L21.6289 25.4604L21.6123 25.4367L21.5957 25.413L21.5791 25.3893L21.5625 25.3656L21.5459 25.3419L21.5294 25.3183L21.5128 25.2946L21.4963 25.271L21.4798 25.2474L21.4633 25.2238L21.4468 25.2002L21.4303 25.1767L21.4138 25.1532L21.3973 25.1296L21.3809 25.1061L21.3644 25.0827L21.348 25.0592L21.3316 25.0358L21.3152 25.0123L21.2988 24.9889L21.2824 24.9655L21.266 24.9421L21.2497 24.9188L21.2333 24.8954L21.217 24.8721L21.2006 24.8488L21.1843 24.8255L21.168 24.8022L21.1518 24.779L21.1355 24.7557L21.1192 24.7325L21.103 24.7093L21.0867 24.6861L21.0705 24.663L21.0543 24.6398L21.0381 24.6167L21.0219 24.5936L21.0058 24.5705L20.9896 24.5474L20.9735 24.5244L20.9573 24.5013L20.9412 24.4783L20.9251 24.4553L20.909 24.4323L20.8929 24.4094L20.8769 24.3864L20.8608 24.3635L20.8448 24.3406L20.8287 24.3177L20.8127 24.2948L20.7967 24.272L20.7807 24.2492L20.7648 24.2264L20.7488 24.2036L20.7329 24.1808L20.7169 24.158L20.701 24.1353L20.6851 24.1126L20.6692 24.0899L20.6533 24.0672L20.6375 24.0446L20.6216 24.0219L20.6058 23.9993L20.59 23.9767L20.5742 23.9541L20.5584 23.9316L20.5426 23.9091L20.5268 23.8865L20.5111 23.864L20.4953 23.8416L20.4796 23.8191L20.4639 23.7967L20.4482 23.7743L20.4325 23.7519L20.4168 23.7295L20.4012 23.7071L20.3855 23.6848L20.3699 23.6625L20.3543 23.6402L20.3387 23.6179L20.3231 23.5957L20.3076 23.5734L20.292 23.5512L20.2765 23.529L20.2609 23.5069L20.2454 23.4847L20.2299 23.4626L20.2145 23.4405L20.199 23.4184L20.1835 23.3963L20.1681 23.3743L20.1527 23.3523L20.1373 23.3303L20.1219 23.3083L20.1065 23.2863L20.0912 23.2644L20.0758 23.2425L20.0605 23.2206L20.0452 23.1987L20.0299 23.1769L20.0146 23.1551L19.9993 23.1332L19.9841 23.1115L19.9688 23.0897L19.9536 23.068L19.9384 23.0462L19.9232 23.0246L19.908 23.0029L19.8929 22.9812L19.8777 22.9596L19.8626 22.938L19.8475 22.9164L19.8324 22.8949L19.8173 22.8733L19.8022 22.8518L19.7872 22.8303L19.7721 22.8088L19.7571 22.7874L19.7421 22.766L19.7271 22.7446L19.7122 22.7232L19.6972 22.7018L19.6823 22.6805L19.6673 22.6592L19.6524 22.6379L19.6375 22.6166L19.6227 22.5954L19.6078 22.5742L19.593 22.553L19.5781 22.5318L19.5633 22.5107L19.5485 22.4895L19.5338 22.4684L19.519 22.4474L19.5043 22.4263L19.4895 22.4053L19.4748 22.3843L19.4601 22.3633L19.4455 22.3423L19.4308 22.3214L19.4162 22.3005L19.4015 22.2796L19.3869 22.2588L19.3723 22.2379L19.3578 22.2171L19.3432 22.1963L19.3287 22.1756L19.3141 22.1548L19.2996 22.1341L19.2852 22.1134L19.2707 22.0927L19.2562 22.0721L19.2418 22.0515L19.2274 22.0309L19.213 22.0103L19.1986 21.9898L19.1842 21.9693L19.1699 21.9488L19.1555 21.9283L19.1412 21.9079L19.1269 21.8874L19.1126 21.8671L19.0984 21.8467L19.0841 21.8263L19.0699 21.806L19.0557 21.7857L19.0415 21.7655L19.0273 21.7452L19.0132 21.725L19.0113 21.7223ZM31.1323 3.14015C31.5109 3.45568 31.5651 4.01718 31.2538 4.39928L25.4998 11.461L25.3394 11.6579L25.5346 11.8203L27.0395 13.0723L27.2349 13.2348L27.3993 13.041L32.483 7.05018C32.8086 6.6664 33.3838 6.61929 33.7675 6.94496C34.1513 7.27063 34.1984 7.84576 33.8728 8.22954L28.7891 14.2204C27.246 16.0388 25.7788 16.604 24.5011 16.9384C24.2773 16.997 24.052 17.05 23.83 17.1021L23.83 17.1021L23.83 17.1022C23.4286 17.1965 23.0383 17.2882 22.6878 17.4059C22.1257 17.5946 21.6123 17.8641 21.1921 18.3593L21.1781 18.3757L21.1641 18.3923L21.1499 18.4089L21.1357 18.4257L21.1214 18.4426L21.107 18.4595L21.0925 18.4766L21.078 18.4938L21.0633 18.511L21.0485 18.5284L21.0337 18.5459L21.0188 18.5635L21.0038 18.5812L20.9887 18.599L20.9735 18.6169L20.9582 18.6348L20.9429 18.6529L20.9274 18.6711L20.9119 18.6894L20.8963 18.7078L20.8806 18.7263L20.8648 18.7449L20.849 18.7636L20.833 18.7824L20.817 18.8013L20.8008 18.8203L20.7846 18.8394L20.7684 18.8586L20.752 18.8779L20.7355 18.8973L20.719 18.9168L20.7024 18.9364L20.6856 18.9561L20.6689 18.9759L20.652 18.9957L20.635 19.0157L20.618 19.0358L20.6009 19.056L20.5837 19.0763L20.5664 19.0966L20.549 19.1171L20.5316 19.1377L20.514 19.1583L20.4964 19.1791L20.4787 19.1999L20.4609 19.2209L20.4431 19.2419L20.4252 19.263L20.4071 19.2843L20.389 19.3056L20.3709 19.327L20.3526 19.3485L20.3343 19.3701L20.3159 19.3918L20.2974 19.4136L20.2788 19.4355L20.2601 19.4575L20.2414 19.4796L20.2226 19.5017L20.2037 19.524L20.1848 19.5463L20.1657 19.5688L20.1466 19.5913L20.1274 19.6139L20.1081 19.6367L20.0888 19.6595L20.0693 19.6824L20.0498 19.7054L20.0302 19.7284L20.0106 19.7516L19.9908 19.7749L19.971 19.7982L19.9511 19.8216L19.9312 19.8452L19.9111 19.8688L19.891 19.8925L19.8708 19.9163L19.8506 19.9402L19.8302 19.9641L19.8098 19.9882L19.7893 20.0123L19.7688 20.0366L19.7481 20.0609L19.7274 20.0853L19.7066 20.1098L19.6858 20.1344L19.6648 20.1591L19.6438 20.1838L19.6227 20.2086L19.6016 20.2336L19.5804 20.2586L19.5591 20.2837L19.5377 20.3089L19.5163 20.3341L19.4947 20.3595L19.4732 20.3849L19.4515 20.4104L19.4298 20.4361L19.408 20.4617L19.3861 20.4875L19.3642 20.5134L19.3421 20.5393L19.3201 20.5653L19.2979 20.5914L19.2757 20.6176L19.2534 20.6439L19.231 20.6703L19.2086 20.6967L19.1861 20.7232L19.1635 20.7498L19.1409 20.7765L19.1182 20.8032L19.0954 20.8301L19.0725 20.857L19.0496 20.884L19.0267 20.9111L19.0036 20.9383L18.9805 20.9655L18.9573 20.9928L18.934 21.0202L18.9107 21.0477L18.8873 21.0753L18.8639 21.1029L18.8404 21.1306L18.8168 21.1584L18.7931 21.1863L18.7694 21.2143L18.7456 21.2423L18.7218 21.2704L18.6978 21.2986L18.6739 21.3268L18.6498 21.3552L18.6257 21.3836L18.6015 21.4121L18.5773 21.4407L18.553 21.4693L18.5286 21.498L18.5042 21.5268L18.4797 21.5557L18.4551 21.5846L18.4305 21.6136L18.4058 21.6427L18.381 21.6719L18.3562 21.7012L18.3313 21.7305L18.3064 21.7599L18.2814 21.7893L18.2563 21.8189L18.2312 21.8485L18.206 21.8782L18.1808 21.9079L18.1555 21.9378L18.1301 21.9677L18.1046 21.9976L18.0791 22.0277L18.0536 22.0578L18.028 22.088L18.0023 22.1182L17.9766 22.1486L17.9508 22.179L17.9249 22.2095L17.899 22.24L17.873 22.2706L17.847 22.3013L17.8209 22.332L17.7947 22.3629L17.7685 22.3938L17.7422 22.4247L17.7159 22.4558L17.6895 22.4869L17.6631 22.518L17.6366 22.5493L17.61 22.5806L17.5834 22.6119L17.5567 22.6434L17.53 22.6749L17.5032 22.7064L17.4763 22.7381L17.4494 22.7698L17.4224 22.8016L17.3954 22.8334L17.3684 22.8653L17.3412 22.8973L17.314 22.9293L17.2868 22.9614L17.2595 22.9936L17.2321 23.0258L17.2047 23.0581L17.1773 23.0905L17.1498 23.1229L17.1222 23.1554L17.0946 23.188L17.0669 23.2206L17.0392 23.2533L17.0114 23.286L16.9835 23.3188L16.9556 23.3517L16.9277 23.3846L16.8997 23.4176L16.8716 23.4507L16.8435 23.4838L16.8154 23.517L16.7872 23.5502L16.7589 23.5835L16.7306 23.6169L16.7022 23.6503L16.6738 23.6838L16.6453 23.7173L16.6168 23.7509L16.5882 23.7846L16.5596 23.8183L16.531 23.8521L16.5022 23.886L16.4735 23.9199L16.4446 23.9539L16.4158 23.9879L16.3868 24.022L16.3579 24.0561L16.3289 24.0903L16.2998 24.1246L16.2707 24.1589L16.2415 24.1932L16.2123 24.2277L16.183 24.2622L16.1537 24.2967L16.1243 24.3313L16.0949 24.366L16.0655 24.4007L16.036 24.4354L16.0064 24.4703L15.9768 24.5051L15.9472 24.5401L15.9175 24.5751L15.8877 24.6101L15.858 24.6452L15.8281 24.6804L15.7983 24.7156L15.7683 24.7508L15.7384 24.7862L15.7084 24.8215L15.6783 24.8569L15.6482 24.8924L15.618 24.928L15.5878 24.9635L15.5576 24.9992L15.5273 25.0349L15.497 25.0706L15.4666 25.1064L15.4362 25.1422L15.4057 25.1781L15.3752 25.2141L15.3447 25.2501L15.3141 25.2861L15.2835 25.3222L15.2528 25.3584L15.2221 25.3946L15.1913 25.4308L15.1605 25.4671L15.1297 25.5034L15.0988 25.5398L15.0679 25.5763L15.0369 25.6128L15.0059 25.6493L14.9748 25.6859L14.9438 25.7226L14.9126 25.7592L14.8814 25.796L14.8502 25.8328L14.819 25.8696L14.7877 25.9065L14.7564 25.9434L14.725 25.9804L14.6936 26.0174L14.6621 26.0544L14.6306 26.0916L14.5991 26.1287L14.5675 26.1659L14.5359 26.2032L14.5043 26.2405L14.4726 26.2778L14.4409 26.3152L14.4091 26.3526L14.3773 26.3901L14.3455 26.4276L14.3136 26.4651L14.2817 26.5028L14.2498 26.5404L14.2178 26.5781L14.1857 26.6158L14.1537 26.6536L14.1216 26.6914L14.0895 26.7293L14.0573 26.7672L14.0251 26.8051L13.9929 26.8431L13.9606 26.8811L13.9283 26.9192L13.896 26.9573L13.8636 26.9955L13.8312 27.0337L13.7987 27.0719L13.7663 27.1102L13.7337 27.1485L13.7012 27.1868L13.6686 27.2252L13.636 27.2637L13.6034 27.3021L13.5707 27.3406L13.538 27.3792L13.5052 27.4178L13.4725 27.4564L13.4396 27.4951L13.4068 27.5338L13.3739 27.5725L13.341 27.6113L13.3081 27.6501L13.2751 27.6889L13.2421 27.7278L13.2091 27.7667L13.176 27.8057L13.1429 27.8447L13.1098 27.8837L13.0767 27.9228L13.0435 27.9619L13.0103 28.0011L12.977 28.0402L12.9438 28.0794L12.9105 28.1187L12.8771 28.158L12.8438 28.1973L12.8104 28.2366L12.777 28.276L12.7435 28.3154L12.71 28.3549L12.6765 28.3943L12.643 28.4339L12.6094 28.4734L12.5759 28.513L12.5422 28.5526L12.5086 28.5922L12.4749 28.6319L12.4412 28.6716L12.4075 28.7114L12.3738 28.7511L12.34 28.7909L12.3062 28.8308L12.2724 28.8706L12.2385 28.9105L12.2046 28.9504L12.1707 28.9904L12.1368 29.0304L12.1029 29.0704L12.0689 29.1104L12.0349 29.1505L12.0009 29.1906L11.9668 29.2307L11.9327 29.2709L11.8986 29.3111L11.8645 29.3513L11.8304 29.3915L11.7962 29.4318L11.762 29.4721L11.7278 29.5124L11.6935 29.5527L11.6593 29.5931L11.625 29.6335L11.5907 29.6739L11.5564 29.7144L11.522 29.7549L11.4876 29.7954L11.4532 29.8359L11.4188 29.8765L11.3844 29.9171L11.3499 29.9577L11.3155 29.9983L11.281 30.0389L11.2464 30.0796L11.2119 30.1203L11.1773 30.1611L11.1428 30.2018L11.1082 30.2426L11.0735 30.2834L11.0389 30.3242L11.0042 30.365L10.9696 30.4059L10.9349 30.4468L10.9002 30.4877L10.8654 30.5286L10.8307 30.5696L10.7959 30.6105L10.7611 30.6515L10.7263 30.6926L10.6915 30.7336L10.6566 30.7747L10.6218 30.8157L10.5869 30.8568L10.552 30.8979L10.5171 30.9391L10.4822 30.9802L10.4473 31.0214L10.4123 31.0626L10.3773 31.1038L10.3423 31.145L10.3073 31.1863L10.2723 31.2276L10.2373 31.2689L10.2022 31.3102L10.1672 31.3515L10.1321 31.3928L10.097 31.4342L10.0619 31.4755L10.0268 31.5169L9.99163 31.5583L9.95648 31.5998L9.92132 31.6412L9.88615 31.6826L9.85096 31.7241L9.81575 31.7656L9.78054 31.8071L9.74531 31.8486L9.71007 31.8901L9.67482 31.9317L9.63956 31.9732L9.60428 32.0148L9.56899 32.0564L9.53369 32.098L9.49838 32.1396L9.46306 32.1812L9.42773 32.2229L9.39238 32.2645L9.35703 32.3062L9.32166 32.3478L9.28629 32.3895L9.2509 32.4312L9.21551 32.4729L9.18011 32.5147L9.14469 32.5564L9.10927 32.5981L9.07384 32.6399L9.03839 32.6817L9.00294 32.7234L8.96749 32.7652L8.93202 32.807L8.89654 32.8488L8.86106 32.8906L8.82557 32.9325L8.79007 32.9743L8.75456 33.0161L8.71905 33.058L8.68352 33.0999L8.648 33.1417L8.61246 33.1836L8.57692 33.2255L8.54137 33.2674L8.50582 33.3093L8.47025 33.3512L8.43469 33.3931L8.39912 33.435L8.36354 33.4769L8.32796 33.5189L8.29237 33.5608L8.25678 33.6028L8.22118 33.6447L8.18558 33.6867L8.14997 33.7286L8.11436 33.7706L8.07874 33.8126L8.04313 33.8545L8.0075 33.8965L7.97188 33.9385L7.93625 33.9805L7.90062 34.0225L7.86498 34.0645L7.82934 34.1065L7.7937 34.1485L7.75806 34.1905L7.72241 34.2325L7.68676 34.2745L7.65111 34.3165L7.61546 34.3585L7.57981 34.4005L7.54416 34.4425L7.5085 34.4846L7.47285 34.5266L7.43719 34.5686L7.40153 34.6106L7.36587 34.6526L7.33022 34.6947L7.29456 34.7367L7.2589 34.7787L7.22324 34.8207L7.18759 34.8627L7.15193 34.9048L7.11627 34.9468L7.08062 34.9888L7.04497 35.0308L7.00932 35.0728L6.97366 35.1148L6.93802 35.1568L6.90237 35.1988L6.86673 35.2408L6.83109 35.2828L6.79545 35.3248L6.75981 35.3668L6.72418 35.4088L6.68855 35.4508L6.65292 35.4928L6.61729 35.5348L6.58168 35.5768L6.54606 35.6187L6.51045 35.6607L6.47484 35.7027C5.53976 36.8046 4.68444 37.4698 3.99744 37.7904C3.29676 38.1175 2.84395 38.059 2.61793 37.8672C2.39191 37.6754 2.26055 37.2382 2.46919 36.4936C2.67376 35.7636 3.19091 34.8114 4.12599 33.7095L18.8432 16.3661C19.2539 15.8821 19.3855 15.2589 19.4206 14.5921C19.4436 14.1557 19.4254 13.6692 19.4066 13.1666C19.397 12.911 19.3873 12.6512 19.3827 12.3916C19.3554 10.825 19.5053 9.10588 20.8687 7.49929L25.975 1.48176C26.2941 1.10571 26.854 1.05061 27.2403 1.35724C27.6451 1.67855 27.7032 2.27129 27.3685 2.66512L22.2586 8.67851L22.0923 8.87417L22.2881 9.04029L23.7038 10.2416L23.9012 10.4091L24.0669 10.2103L29.8656 3.25515C30.1837 2.87367 30.7507 2.82219 31.1323 3.14015Z" fill="white"/>
</svg>
