<svg width="48" height="28" viewBox="0 0 48 28" fill="none" xmlns="http://www.w3.org/2000/svg">
<path d="M20.2675 3.76471C17.372 4.70588 7.19752 3.37255 2.47221 2.58824C0.0592851 5.17647 1.01679 9.64706 2.47221 12.8824C3.73133 14.6471 4.03294 16.1176 4.03294 16.7059C3.42971 18.4706 2.82648 20.9216 2.82648 22L4.63618 27H7.59967C6.44587 25.8235 5.48836 22.4902 5.48836 20.8235C6.39321 19.7451 8.08226 17.8235 7.59967 18.7647C7.11709 19.7059 10.4674 24.6471 11.8749 27H14.8384L11.2191 20.8235V17.5882C11.7218 17.4902 13.3907 17.5882 16.0449 18.7647C18.6991 19.9412 22.5799 19.6471 24.1885 19.3529C24.6711 19.8235 24.3896 24.2549 24.1885 26.4118L25.4476 27H28.4111L26.9031 25.2353L27.5063 20.8235C27.9085 20.3333 28.8334 19.3529 29.316 19.3529C29.7986 19.3529 29.5171 23.2745 29.316 25.2353H29.9192L30.5225 27H33.8402L32.6338 25.5294L31.7289 23.4706V18.7647C33.1767 17.5882 35.1472 14.3529 35.9515 12.8824C36.0521 12.6863 36.9167 12.4118 39.5709 12.8824C42.8887 13.4706 44.0951 13.4706 44.3968 12.2941C44.6381 11.3529 43.693 9.35294 43.1903 8.47059V6.41177C44.1555 6.17647 44.7989 5.33333 45 4.94118H43.4919C43.4919 3.52941 42.4865 2.58824 41.9838 2.29412C42.4664 3 42.386 4.35294 42.2855 4.94118H39.5709C38.6057 4.94118 39.1688 2.98039 39.5709 2C38.1232 2.47059 37.7612 4.15686 37.7612 4.94118H33.5386C30.3214 4.15686 23.163 2.82353 20.2675 3.76471Z" stroke="#676565"/>
</svg>
