<svg width="36" height="21" viewBox="0 0 36 21" fill="none" xmlns="http://www.w3.org/2000/svg">
<path d="M15.253 3.49948C13.1263 4.19074 5.65354 3.21146 2.18297 2.63541C0.410764 4.53637 1.11402 7.81985 2.18297 10.1961C3.10775 11.4922 3.32927 12.5723 3.32927 13.0043C2.88622 14.3004 2.44317 16.1006 2.44317 16.8926L3.77232 20.565H5.9489C5.10148 19.7009 4.39822 17.2527 4.39822 16.0286C5.0628 15.2365 6.30334 13.8252 5.9489 14.5164C5.59446 15.2077 8.05515 18.8368 9.08894 20.565H11.2655L8.60721 16.0286V13.6524C8.97642 13.5804 10.2022 13.6524 12.1516 14.5164C14.101 15.3805 16.9513 15.1645 18.1328 14.9485C18.4872 15.2941 18.2805 18.5488 18.1328 20.1329L19.0576 20.565H21.2342L20.1265 19.2688L20.5696 16.0286C20.865 15.6685 21.5443 14.9485 21.8987 14.9485C22.2532 14.9485 22.0464 17.8287 21.8987 19.2688H22.3418L22.7848 20.565H25.2216L24.3355 19.4849L23.6709 17.9727V14.5164C24.7343 13.6524 26.1816 11.2762 26.7723 10.1961C26.8461 10.052 27.4812 9.85043 29.4306 10.1961C31.8674 10.6281 32.7535 10.6281 32.975 9.76402C33.1522 9.07276 32.4581 7.60384 32.0889 6.95578V5.44365C32.7978 5.27083 33.2704 4.65158 33.4181 4.36356H32.3104C32.3104 3.32667 31.572 2.63541 31.2028 2.41939C31.5573 2.93783 31.4982 3.93152 31.4243 4.36356H29.4306C28.7217 4.36356 29.1352 2.92343 29.4306 2.20337C28.3673 2.549 28.1015 3.78751 28.1015 4.36356H25.0001C22.6372 3.78751 17.3796 2.80822 15.253 3.49948Z" stroke="#676565" stroke-width="0.734463"/>
</svg>
