<svg width="19" height="22" viewBox="0 0 19 22" fill="none" xmlns="http://www.w3.org/2000/svg">
<path d="M17.2606 11.0641C17.2606 10.0856 15.7447 7.38594 15.1122 5.78675C15.8713 6.36246 16.061 4.90719 16.061 4.1076H17.7215L16.7727 3.38796L16.2982 2.9082L16.7727 2.18857L16.061 1.70881L15.3629 1.46893H14.6377L14.1633 2.18857C12.0284 2.42845 11.7911 6.50638 10.605 7.4659C9.65616 8.23351 8.48361 8.42541 7.53474 7.94565L6.34866 6.98614L4.6746 4.58735H3.72573V5.06711L2.77686 4.58735V5.54687L1.12988 4.58735C1.3671 5.54687 1.12987 8.1147 2.30244 8.90517C3.72574 9.86468 4.20017 11.7837 4.20017 12.2635C4.44189 14.0082 5.73188 17.4582 8.95803 17.3009C9.82782 17.4608 12.74 17.6847 14.6377 16.3414C17.0099 14.6623 17.2606 12.9831 17.2606 11.0641Z" stroke="#676565" stroke-width="0.734463"/>
<path d="M9.10669 17.4224V19.6559M9.10669 19.6559H10.702M9.10669 19.6559L9.74483 20.6131M11.6593 17.4224V19.975M11.6593 19.975H13.5737M11.6593 19.975L12.6165 20.9322" stroke="#676565" stroke-width="0.734463"/>
</svg>
