<svg width="26" height="29" viewBox="0 0 26 29" fill="none" xmlns="http://www.w3.org/2000/svg">
<path d="M22.9626 15.0642C22.9626 13.7319 20.8987 10.0562 20.0374 7.87887C21.0709 8.66272 21.3293 6.68132 21.3293 5.59264H23.5902L22.2983 4.61283L21.6523 3.95962L22.2983 2.97981L21.3293 2.3266L20.3788 2H19.3914L18.7455 2.97981C15.8387 3.30642 15.5157 8.85868 13.9008 10.1651C12.6088 11.2102 11.0124 11.4715 9.72046 10.8183L8.10556 9.51189L5.82626 6.24585H4.53434V6.89906L3.24242 6.24585V7.55227L1 6.24585C1.32298 7.55227 0.999983 11.0485 2.59648 12.1247C4.53436 13.4311 5.18032 16.044 5.18032 16.6972C5.50943 19.0727 7.26579 23.7701 11.6583 23.5559C12.8426 23.7736 16.8076 24.0784 19.3914 22.2494C22.6212 19.9632 22.9626 17.677 22.9626 15.0642Z" fill="#AC9416" stroke="#AC9416"/>
<path d="M11.8607 23.7213V26.7623M11.8607 26.7623H14.0328M11.8607 26.7623L12.7295 28.0656M15.3361 23.7213V27.1967M15.3361 27.1967H17.9426M15.3361 27.1967L16.6393 28.5" stroke="#AC9416"/>
</svg>
