<svg width="33" height="37" viewBox="0 0 33 37" fill="none" xmlns="http://www.w3.org/2000/svg">
<path d="M16.5 1C11.66 1 12.2833 3.54545 13.2 4.81818H19.8C21.0833 3.54545 21.34 1 16.5 1Z" stroke="white"/>
<path d="M32.315 20.6364C32.315 29.2901 25.2398 36.315 16.5 36.315C7.76025 36.315 0.685 29.2901 0.685 20.6364C0.685 11.9826 7.76025 4.95773 16.5 4.95773C25.2398 4.95773 32.315 11.9826 32.315 20.6364Z" stroke="white" stroke-width="1.37"/>
<ellipse cx="16.5" cy="20.6364" rx="2.2" ry="2.18182" fill="white"/>
<line x1="16.755" y1="5.36364" x2="16.755" y2="9.72728" stroke="white" stroke-width="0.51"/>
<line x1="16.755" y1="31.5455" x2="16.755" y2="35.9091" stroke="white" stroke-width="0.51"/>
<line y1="-0.255" x2="4.37233" y2="-0.255" transform="matrix(-0.491097 0.871105 -0.874555 -0.484926 24.0153 7.30576)" stroke="white" stroke-width="0.51"/>
<line y1="-0.255" x2="4.37232" y2="-0.255" transform="matrix(-0.491097 0.871105 -0.874555 -0.484926 11.1319 30.1582)" stroke="white" stroke-width="0.51"/>
<line y1="-0.255" x2="4.38976" y2="-0.255" transform="matrix(-0.849025 0.528353 -0.534683 -0.845053 29.5445 12.5187)" stroke="white" stroke-width="0.51"/>
<line y1="-0.255" x2="4.38976" y2="-0.255" transform="matrix(-0.849024 0.528354 -0.534683 -0.845053 7.1825 26.4348)" stroke="white" stroke-width="0.51"/>
<line y1="-0.255" x2="4.37323" y2="-0.255" transform="matrix(0.515903 0.856647 -0.860394 0.50963 8.60342 7.52435)" stroke="white" stroke-width="0.51"/>
<line y1="-0.255" x2="4.37323" y2="-0.255" transform="matrix(0.515902 0.856647 -0.860394 0.50963 22.1404 30.0022)" stroke="white" stroke-width="0.51"/>
<line y1="-0.255" x2="4.3909" y2="-0.255" transform="matrix(0.867138 0.498068 -0.504297 0.86353 3.17371 12.982)" stroke="white" stroke-width="0.51"/>
<line y1="-0.255" x2="4.39089" y2="-0.255" transform="matrix(0.867138 0.498068 -0.504297 0.86353 26.0188 26.1038)" stroke="white" stroke-width="0.51"/>
<line x1="31.9" y1="20.8914" x2="27.5" y2="20.8914" stroke="white" stroke-width="0.51"/>
<line x1="5.5" y1="20.8914" x2="1.1" y2="20.8914" stroke="white" stroke-width="0.51"/>
<line y1="-0.5" x2="10.3534" y2="-0.5" transform="matrix(-0.849966 -0.526838 0.533164 -0.846012 25.3 25)" stroke="white"/>
</svg>
