<svg width="33" height="28" viewBox="0 0 33 28" fill="none" xmlns="http://www.w3.org/2000/svg">
<path d="M16.9375 20.693C13.752 20.6621 11.184 19.5468 9.90625 18.6428C9.125 19.1071 8.03125 19.1071 6.625 17.25C5.20198 15.3707 2.5625 13.5357 1 13.0714H5.6875L2.875 11.2143H5.6875C10.9375 7.87143 19.4375 9.04762 23.0312 9.82143C22.6562 8.33571 22.5625 5.33333 22.5625 4.25C22.7188 3.16667 23.5937 1 25.8438 1C28.0938 1 28.6562 3.16667 28.6562 4.25L31 7.03569C30.375 6.88094 28.8438 6.38571 27.7188 5.64284C25.4687 4.89998 25.2187 6.26188 25.375 7.03569C27.7188 9.35712 30.0156 15.3929 24.4375 18.6428C22.3202 19.8764 20.2478 20.4613 18.3438 20.6357M16.9375 20.693V25.6071M16.9375 20.693C17.3942 20.6975 17.8636 20.6796 18.3438 20.6357M16.9375 25.6071L20.6875 27L21.1562 25.6071H16.9375ZM18.3438 20.6357V23.75M18.3438 23.75L21.1562 24.2143V23.2857L18.3438 23.75Z" stroke="#676565"/>
</svg>
