<svg width="34" height="38" viewBox="0 0 34 38" fill="none" xmlns="http://www.w3.org/2000/svg">
<path fill-rule="evenodd" clip-rule="evenodd" d="M3.69277 0.255779C0.339385 2.60404 -1.10104 6.81266 1.20083 10.0998L1.20727 10.109L1.21373 10.1182L1.2202 10.1275L1.22669 10.1367L1.23319 10.146L1.23971 10.1553L1.24625 10.1647L1.2528 10.174L1.25937 10.1834L1.26596 10.1928L1.27256 10.2022L1.27918 10.2117L1.28581 10.2212L1.29245 10.2307L1.29912 10.2402L1.3058 10.2497L1.31249 10.2593L1.3192 10.2688L1.32592 10.2784L1.33266 10.2881L1.33941 10.2977L1.34618 10.3074L1.35296 10.3171L1.35976 10.3268L1.36657 10.3365L1.3734 10.3462L1.38024 10.356L1.38709 10.3658L1.39396 10.3756L1.40084 10.3854L1.40774 10.3953L1.41465 10.4051L1.42157 10.415L1.4285 10.4249L1.43545 10.4349L1.44242 10.4448L1.44939 10.4548L1.45638 10.4647L1.46339 10.4747L1.4704 10.4848L1.47743 10.4948L1.48447 10.5049L1.49152 10.5149L1.49859 10.525L1.50567 10.5351L1.51276 10.5453L1.51986 10.5554L1.52698 10.5656L1.5341 10.5757L1.54124 10.5859L1.54839 10.5961L1.55556 10.6064L1.56273 10.6166L1.56992 10.6269L1.57712 10.6372L1.58432 10.6475L1.59154 10.6578L1.59878 10.6681L1.60602 10.6784L1.61327 10.6888L1.62053 10.6992L1.62781 10.7096L1.63509 10.72L1.64239 10.7304L1.6497 10.7408L1.65701 10.7513L1.66434 10.7617L1.67168 10.7722L1.67903 10.7827L1.68638 10.7932L1.69375 10.8037L1.70113 10.8143L1.70851 10.8248L1.71591 10.8354L1.72332 10.8459L1.73073 10.8565L1.73816 10.8671L1.74559 10.8777L1.75303 10.8884L1.76048 10.899L1.76794 10.9097L1.77541 10.9203L1.78289 10.931L1.79038 10.9417L1.79787 10.9524L1.80538 10.9631L1.81289 10.9739L1.82041 10.9846L1.82794 10.9953L1.83547 11.0061L1.84302 11.0169L1.85057 11.0277L1.85813 11.0385L1.8657 11.0493L1.87327 11.0601L1.88085 11.0709L1.88844 11.0817L1.89604 11.0926L1.90364 11.1035L1.91126 11.1143L1.91887 11.1252L1.9265 11.1361L1.93413 11.147L1.94177 11.1579L1.94941 11.1688L1.95706 11.1797L1.96472 11.1907L1.97238 11.2016L1.98005 11.2126L1.98773 11.2235L1.99541 11.2345L2.0031 11.2455L2.01079 11.2565L2.01849 11.2675L2.0262 11.2785L2.03391 11.2895L2.04162 11.3005L2.04934 11.3115L2.05707 11.3225L2.0648 11.3336L2.07254 11.3446L2.08028 11.3557L2.08802 11.3668L2.09577 11.3778L2.10353 11.3889L2.11129 11.4L2.11905 11.4111L2.12682 11.4222L2.13459 11.4333L2.14237 11.4444L2.15015 11.4555L2.15793 11.4666L2.16572 11.4777L2.17351 11.4888L2.18131 11.5L2.18911 11.5111L2.19691 11.5222L2.20471 11.5334L2.21252 11.5445L2.22033 11.5557L2.22815 11.5669L2.23597 11.578L2.24379 11.5892L2.25161 11.6004L2.25944 11.6115L2.26727 11.6227L2.2751 11.6339L2.28293 11.6451L2.29076 11.6563L2.2986 11.6675L2.30644 11.6787L2.31428 11.6899L2.32213 11.7011L2.32997 11.7123L2.33782 11.7235L2.34567 11.7347L2.35352 11.7459L2.36137 11.7571L2.36922 11.7683L2.37707 11.7795L2.38493 11.7907L2.39278 11.802L2.40064 11.8132L2.40849 11.8244L2.41635 11.8356L2.42421 11.8468L2.43207 11.8581L2.43993 11.8693L2.44779 11.8805L2.45565 11.8917L2.46351 11.903L2.47137 11.9142L2.47922 11.9254L2.48708 11.9366L2.49494 11.9478L2.5028 11.9591L2.51066 11.9703L2.51852 11.9815L2.52637 11.9927L2.53423 12.0039L2.54208 12.0152L2.54994 12.0264L2.55779 12.0376L2.56564 12.0488L2.57349 12.06L2.58134 12.0712L2.58919 12.0824L2.59703 12.0936L2.60488 12.1048L2.61272 12.116L2.62056 12.1272L2.6284 12.1384L2.63623 12.1496L2.64407 12.1608L2.6519 12.172L2.65973 12.1832L2.66755 12.1943L2.67538 12.2055L2.6832 12.2167L2.69102 12.2278L2.69883 12.239L2.70665 12.2502L2.71446 12.2613L2.72226 12.2725L2.73007 12.2836L2.73787 12.2947L2.74566 12.3059L2.75346 12.317L2.76124 12.3281L2.76903 12.3393L2.77681 12.3504L2.78459 12.3615L2.79236 12.3726L2.80013 12.3837L2.8079 12.3948L2.81566 12.4058L2.82341 12.4169L2.83117 12.428L2.83891 12.439L2.84666 12.4501L2.85439 12.4612L2.86213 12.4722L2.86985 12.4832L2.87758 12.4943L2.88529 12.5053L2.89301 12.5163L2.90071 12.5273L2.90841 12.5383L2.91611 12.5493L2.9238 12.5603L2.93148 12.5712L2.93916 12.5822L2.94683 12.5932L2.9545 12.6041L2.96216 12.615L2.96981 12.626L2.97746 12.6369L2.9851 12.6478L2.99273 12.6587L3.00036 12.6696L3.00798 12.6805L3.01559 12.6914L3.0232 12.7022L3.0308 12.7131L3.03839 12.7239L3.04597 12.7347L3.05355 12.7456L3.06112 12.7564L3.06868 12.7672L3.07624 12.778L3.08379 12.7887L3.09132 12.7995L3.09885 12.8103L3.10638 12.821L3.11389 12.8317L3.1214 12.8424L3.1289 12.8532L3.13639 12.8638L3.14387 12.8745L3.15134 12.8852L3.1588 12.8959L3.16626 12.9065L3.1737 12.9171L3.18114 12.9278L3.18857 12.9384L3.19599 12.949L3.20339 12.9595L3.21079 12.9701L3.21818 12.9807L3.22556 12.9912L3.23294 13.0017L3.2403 13.0122L3.24765 13.0227L3.25499 13.0332L3.26232 13.0437L3.26964 13.0541L3.27695 13.0646L3.28425 13.075L3.29154 13.0854L3.29881 13.0958L3.30608 13.1062L3.31334 13.1165L3.32059 13.1269L3.32782 13.1372L3.33504 13.1475L3.34226 13.1578L3.34946 13.1681L3.35665 13.1784L3.36383 13.1886L3.37099 13.1989L3.37815 13.2091L3.38529 13.2193L3.39242 13.2295L3.39954 13.2396L3.40665 13.2498L3.41374 13.2599L3.42083 13.27L3.4279 13.2801L3.43495 13.2902L3.442 13.3003L3.44903 13.3103L3.45605 13.3203L3.46306 13.3303L3.47005 13.3403L3.47703 13.3503L3.484 13.3603L3.49095 13.3702L3.49789 13.3801L3.50482 13.39L3.51174 13.3999L3.51864 13.4097L3.52552 13.4195L3.53239 13.4294L3.53925 13.4392L3.5461 13.4489L3.55293 13.4587L3.55974 13.4684L3.56655 13.4781L3.57333 13.4878L3.58011 13.4975L3.58686 13.5071L3.59361 13.5168L3.60034 13.5264L3.60705 13.536L3.61375 13.5455L3.62043 13.5551L3.6271 13.5646L3.63375 13.5741L3.64039 13.5836L3.64701 13.593L3.65362 13.6025L3.66021 13.6119L3.66678 13.6213L3.67334 13.6306L3.67988 13.64L3.68641 13.6493L3.69292 13.6586L3.69941 13.6679L3.70589 13.6771L3.71235 13.6863L3.7188 13.6956L3.72522 13.7047L3.73163 13.7139L3.73803 13.723L3.74441 13.7321L3.75077 13.7412L3.75711 13.7503L3.76343 13.7593L3.76974 13.7683L3.77603 13.7773L3.78231 13.7862L3.78856 13.7952L3.7948 13.8041L3.80102 13.813L3.80722 13.8218L3.8134 13.8307L3.81957 13.8395L3.82571 13.8482L3.83184 13.857L3.83795 13.8657L3.84404 13.8744L3.85012 13.8831L3.85617 13.8917L3.86221 13.9003L3.86822 13.9089L3.87422 13.9175L3.8802 13.926L3.88616 13.9345L3.8921 13.943L3.89802 13.9515L3.90392 13.9599L3.9098 13.9683L3.91566 13.9767L3.9215 13.985L3.92732 13.9933L3.93312 14.0016L3.9389 14.0099L3.94466 14.0181L3.9504 14.0263L3.95612 14.0345L3.96182 14.0426L3.9675 14.0507L3.97316 14.0588L3.9788 14.0668L3.98441 14.0749L3.99001 14.0828L3.99558 14.0908L4.00113 14.0987L4.00666 14.1066L4.01217 14.1145L4.01766 14.1223L4.02313 14.1301L4.02858 14.1379L4.034 14.1457L4.0394 14.1534L4.04478 14.1611L4.05014 14.1687L4.05547 14.1763L4.06078 14.1839L4.06608 14.1915L4.07134 14.199L4.07659 14.2065L4.08181 14.2139L4.08701 14.2214L4.09219 14.2288L4.09734 14.2361L4.10247 14.2435L4.10758 14.2507L4.11266 14.258L4.11773 14.2652L4.12276 14.2724L4.12778 14.2796L4.13277 14.2867L4.13773 14.2938L4.14268 14.3009L4.14759 14.3079L4.15249 14.3149L4.15736 14.3218L4.16221 14.3288L4.16703 14.3356L4.17182 14.3425L4.1766 14.3493L4.18135 14.3561L4.18607 14.3628L4.19077 14.3695L4.19544 14.3762L4.20009 14.3829L4.20471 14.3895L4.20931 14.396L4.21388 14.4025L4.21843 14.409L4.22295 14.4155L4.22745 14.4219L4.23192 14.4283L4.23636 14.4347L4.24078 14.441L4.24517 14.4472L4.24954 14.4535L4.25388 14.4597L4.25819 14.4658L4.26248 14.472L4.26674 14.478L4.27098 14.4841L4.27518 14.4901L4.27936 14.4961L4.28352 14.502L4.28764 14.5079L4.29174 14.5137L4.29582 14.5196L4.29986 14.5253L4.30388 14.5311L4.30787 14.5368L4.31183 14.5424L4.31577 14.548L4.31967 14.5536L4.32355 14.5592L4.3274 14.5647L4.33123 14.5701L4.33502 14.5755L4.33879 14.5809L4.34253 14.5863L4.34624 14.5916L4.34992 14.5968L4.35357 14.602L4.35719 14.6072L4.36079 14.6123L4.36436 14.6174L4.36789 14.6225L4.3714 14.6275L4.37488 14.6325L4.37833 14.6374L4.38175 14.6423L4.38514 14.6471L4.3885 14.6519L4.39183 14.6567L4.39513 14.6614L4.3984 14.666L4.40164 14.6707L4.40485 14.6753L4.40803 14.6798L4.41118 14.6843L4.4143 14.6887L4.41739 14.6932L4.42044 14.6975L4.42347 14.7019L4.42647 14.7061L4.42943 14.7104L4.43237 14.7146L4.43527 14.7187L4.43815 14.7228L4.44099 14.7269L4.4438 14.7309L4.44657 14.7348L4.44932 14.7388L4.45203 14.7426L4.45472 14.7465L4.45737 14.7503L4.45999 14.754L4.46257 14.7577L4.46513 14.7613L4.46765 14.7649L4.47014 14.7685L4.4726 14.772L4.47502 14.7755L4.47741 14.7789L4.47977 14.7822L4.4821 14.7856L4.48439 14.7888L4.48665 14.7921L4.48888 14.7953L4.49107 14.7984L4.49323 14.8015C5.64974 16.453 7.28543 16.941 8.71683 17.2195C8.97244 17.2692 9.21721 17.3117 9.45115 17.3522L9.4512 17.3522C9.88582 17.4276 10.2831 17.4966 10.6432 17.5936C11.1906 17.7411 11.573 17.9363 11.7945 18.2519L11.795 18.2527L13.5133 20.746L3.97314 31.9884C3.04174 33.086 2.49568 34.0692 2.27198 34.8675C2.05236 35.6512 2.12767 36.3351 2.57495 36.7147C3.02223 37.0942 3.70934 37.0573 4.44687 36.713C5.19809 36.3624 6.07928 35.6636 7.01068 34.566L7.04507 34.5255L7.07946 34.485L7.11386 34.4444L7.14826 34.4039L7.18266 34.3634L7.21707 34.3228L7.25148 34.2823L7.28589 34.2417L7.32031 34.2012L7.35473 34.1606L7.38915 34.12L7.42357 34.0795L7.458 34.0389L7.49243 33.9983L7.52686 33.9578L7.56129 33.9172L7.59572 33.8766L7.63015 33.836L7.66459 33.7955L7.69902 33.7549L7.73346 33.7143L7.76789 33.6737L7.80233 33.6331L7.83677 33.5925L7.8712 33.552L7.90564 33.5114L7.94007 33.4708L7.97451 33.4302L8.00895 33.3896L8.04338 33.3491L8.07781 33.3085L8.11225 33.2679L8.14667 33.2273L8.1811 33.1868L8.21553 33.1462L8.24996 33.1056L8.28438 33.0651L8.3188 33.0245L8.35321 32.9839L8.38763 32.9434L8.42204 32.9028L8.45645 32.8623L8.49086 32.8217L8.52526 32.7812L8.55966 32.7407L8.59405 32.7001L8.62845 32.6596L8.66283 32.6191L8.69722 32.5786L8.73159 32.538L8.76597 32.4975L8.80034 32.457L8.8347 32.4165L8.86906 32.376L8.90342 32.3356L8.93776 32.2951L8.97211 32.2546L9.00644 32.2142L9.04077 32.1737L9.0751 32.1332L9.10942 32.0928L9.14373 32.0524L9.17803 32.0119L9.21233 31.9715L9.24662 31.9311L9.2809 31.8907L9.31518 31.8503L9.34945 31.8099L9.38371 31.7696L9.41796 31.7292L9.45221 31.6888L9.48645 31.6485L9.52067 31.6082L9.55489 31.5678L9.5891 31.5275L9.6233 31.4872L9.6575 31.4469L9.69168 31.4066L9.72585 31.3664L9.76001 31.3261L9.79417 31.2859L9.82831 31.2456L9.86245 31.2054L9.89657 31.1652L9.93068 31.125L9.96478 31.0848L9.99887 31.0446L10.033 31.0045L10.067 30.9643L10.1011 30.9242L10.1351 30.8841L10.1692 30.844L10.2032 30.8039L10.2372 30.7638L10.2712 30.7237L10.3052 30.6837L10.3391 30.6437L10.3731 30.6036L10.407 30.5636L10.441 30.5236L10.4749 30.4837L10.5088 30.4437L10.5427 30.4038L10.5766 30.3639L10.6104 30.324L10.6443 30.2841L10.6781 30.2442L10.7119 30.2043L10.7457 30.1645L10.7795 30.1247L10.8133 30.0849L10.8471 30.0451L10.8808 30.0053L10.9145 29.9656L10.9482 29.9259L10.9819 29.8862L11.0156 29.8465L11.0493 29.8068L11.0829 29.7671L11.1166 29.7275L11.1502 29.6879L11.1838 29.6483L11.2173 29.6087L11.2509 29.5692L11.2844 29.5297L11.318 29.4902L11.3515 29.4507L11.385 29.4112L11.4184 29.3718L11.4519 29.3323L11.4853 29.2929L11.5187 29.2536L11.5521 29.2142L11.5855 29.1749L11.6189 29.1356L11.6522 29.0963L11.6855 29.057L11.7188 29.0178L11.7521 28.9786L11.7854 28.9394L11.8186 28.9002L11.8518 28.8611L11.885 28.8219L11.9182 28.7828L11.9513 28.7438L11.9845 28.7047L12.0176 28.6657L12.0507 28.6267L12.0837 28.5878L12.1168 28.5488L12.1498 28.5099L12.1828 28.471L12.2158 28.4321L12.2487 28.3933L12.2817 28.3545L12.3146 28.3157L12.3475 28.277L12.3803 28.2382L12.4132 28.1996L12.446 28.1609L12.4788 28.1222L12.5115 28.0836L12.5443 28.045L12.577 28.0065L12.6097 27.968L12.6423 27.9295L12.675 27.891L12.7076 27.8526L12.7402 27.8142L12.7728 27.7758L12.8053 27.7374L12.8378 27.6991L12.8703 27.6608L12.9028 27.6226L12.9352 27.5843L12.9676 27.5462L13 27.508L13.0323 27.4699L13.0647 27.4318L13.097 27.3937L13.1292 27.3557L13.1615 27.3177L13.1937 27.2797L13.2259 27.2418L13.2581 27.2039L13.2902 27.166L13.3223 27.1282L13.3544 27.0904L13.3864 27.0526L13.4184 27.0149L13.4504 26.9772L13.4824 26.9395L13.5143 26.9019L13.5462 26.8643L13.5781 26.8268L13.6099 26.7892L13.6417 26.7517L13.6735 26.7143L13.7053 26.6769L13.737 26.6395L13.7687 26.6022L13.8003 26.5649L13.8319 26.5276L13.8635 26.4904L13.8951 26.4532L13.9266 26.416L13.9581 26.3789L13.9896 26.3418L14.021 26.3048L14.0524 26.2678L14.0838 26.2308L14.1151 26.1939L14.1464 26.157L14.1777 26.1202L14.2089 26.0834L14.2401 26.0466L14.2713 26.0099L14.3024 25.9732L14.3335 25.9366L14.3645 25.9L14.3956 25.8634L14.4266 25.8269L14.4575 25.7904L14.4884 25.7539L14.5193 25.7175L14.5502 25.6812L14.581 25.6449L14.6118 25.6086L14.6425 25.5724L14.6732 25.5362L14.7039 25.5L14.7345 25.4639L14.7651 25.4279L14.7957 25.3919L14.8262 25.3559L14.8567 25.32L14.8872 25.2841L14.9176 25.2482L14.9479 25.2124L14.9783 25.1767L15.0086 25.141L15.0388 25.1053L15.0691 25.0697L15.0992 25.0341L15.1294 24.9986L15.1595 24.9631L15.1896 24.9277L15.2196 24.8923L15.2496 24.857L15.2795 24.8217L15.3094 24.7865L15.3393 24.7513L15.3691 24.7161L15.3989 24.681L15.4287 24.646L15.4584 24.6109L15.488 24.576L15.5177 24.5411L15.5472 24.5062L15.5768 24.4714L15.6063 24.4366L15.6357 24.4019L15.6652 24.3673L15.6945 24.3326L15.7239 24.2981L15.7531 24.2636L15.7824 24.2291L15.8116 24.1947L15.8182 24.187L23.1355 34.4473L23.1361 34.4482C23.8818 35.5129 24.6337 36.2066 25.3094 36.5696C25.978 36.9287 26.6267 36.9872 27.0925 36.661C27.5583 36.3349 27.7251 35.7052 27.6163 34.9542C27.5062 34.1949 27.1112 33.2508 26.3653 32.1856C24.8579 30.0329 23.3917 28.0175 22.0163 26.1317L21.7384 25.7506C20.5453 24.115 19.4248 22.5791 18.4081 21.1348L18.4129 21.1292L18.4371 21.1007L18.4611 21.0723L18.4852 21.044L18.5091 21.0158L18.533 20.9876L18.5569 20.9595L18.5807 20.9315L18.6044 20.9035L18.6281 20.8757L18.6517 20.8479L18.6752 20.8201L18.6987 20.7925L18.7221 20.7649L18.7454 20.7373L18.7687 20.7099L18.7919 20.6825L18.8151 20.6552L18.8382 20.628L18.8612 20.6009L18.8842 20.5738L18.9071 20.5468L18.93 20.5199L18.9527 20.493L18.9754 20.4663L18.9981 20.4396L19.0207 20.413L19.0432 20.3864L19.0657 20.36L19.0881 20.3336L19.1104 20.3073L19.1326 20.281L19.1548 20.2549L19.177 20.2288L19.199 20.2028L19.221 20.1769L19.243 20.151L19.2648 20.1253L19.2866 20.0996L19.3084 20.074L19.33 20.0484L19.3516 20.023L19.3731 19.9976L19.3946 19.9723L19.416 19.9471L19.4373 19.922L19.4586 19.8969L19.4798 19.872L19.5009 19.8471L19.522 19.8223L19.5429 19.7975L19.5639 19.7729L19.5847 19.7483L19.6055 19.7238L19.6262 19.6994L19.6468 19.6751L19.6674 19.6509L19.6879 19.6267L19.7083 19.6026L19.7287 19.5786L19.749 19.5547L19.7692 19.5309L19.7893 19.5072L19.8094 19.4835L19.8294 19.4599L19.8493 19.4365L19.8692 19.4131L19.889 19.3897L19.9087 19.3665L19.9283 19.3434L19.9479 19.3203L19.9674 19.2973L19.9868 19.2744L20.0062 19.2516L20.0255 19.2289L20.0447 19.2063L20.0638 19.1837L20.0829 19.1612L20.1019 19.1389L20.1208 19.1166L20.1396 19.0944L20.1584 19.0723L20.1771 19.0502L20.1957 19.0283L20.2142 19.0064L20.2327 18.9847L20.2511 18.963L20.2694 18.9414L20.2876 18.9199L20.3058 18.8985L20.3239 18.8772L20.3419 18.856L20.3598 18.8348L20.3777 18.8138L20.3955 18.7928L20.4132 18.772L20.4308 18.7512L20.4484 18.7305L20.4659 18.7099L20.4833 18.6894L20.5006 18.669L20.5178 18.6487L20.535 18.6285L20.5521 18.6083L20.5691 18.5883L20.586 18.5683L20.6029 18.5485L20.6196 18.5287L20.6363 18.509L20.6529 18.4895L20.6695 18.47L20.6859 18.4506L20.7023 18.4313L20.7186 18.4121L20.7348 18.393L20.751 18.3739L20.767 18.355L20.783 18.3362L20.7989 18.3175L20.8147 18.2988L20.8304 18.2803L20.8461 18.2619L20.8616 18.2435L20.8771 18.2253L20.8925 18.2071L20.9079 18.189L20.9231 18.1711L20.9383 18.1532L20.9533 18.1354L20.9683 18.1178L20.9832 18.1002L20.9981 18.0827L21.0128 18.0654L21.0275 18.0481L21.0421 18.0309L21.0566 18.0138L21.071 17.9968L21.0853 17.98L21.0995 17.9632L21.1137 17.9465L21.1278 17.9299L21.1418 17.9134L21.1557 17.897L21.1695 17.8808L21.1832 17.8646L21.1969 17.8485L21.2104 17.8325L21.2239 17.8166C21.5502 17.4321 21.9536 17.2125 22.4444 17.0477C22.7634 16.9406 23.0981 16.8622 23.4667 16.7758L23.4668 16.7758L23.4669 16.7758C23.6856 16.7246 23.9163 16.6705 24.1627 16.606C25.4655 16.2651 26.9852 15.6761 28.5607 13.8194L33.4703 8.03377C33.9651 7.45074 33.8935 6.57702 33.3105 6.08227C32.7274 5.58752 31.8537 5.65909 31.359 6.24213L26.6138 11.8341L25.551 10.9499L30.9475 4.32694C31.4227 3.74367 31.34 2.88654 30.762 2.40487C30.1796 1.9195 29.314 1.99809 28.8285 2.58041L23.394 9.0986L22.4199 8.27198L27.1886 2.66017C27.6965 2.06253 27.6083 1.16303 26.994 0.675433C26.4078 0.210126 25.5581 0.293744 25.0739 0.864403L20.1424 6.67585C18.706 8.36856 18.5605 10.1821 18.5877 11.7358C18.5925 12.0118 18.6024 12.2749 18.6119 12.5267L18.6119 12.527C18.6297 12.9961 18.6459 13.4257 18.6248 13.8256C18.5929 14.432 18.4756 14.8982 18.1863 15.239L16.1342 17.6573C15.9905 17.4437 15.8193 17.1848 15.6516 16.9308L15.5865 16.8324C15.3534 16.4792 15.1349 16.1482 15.0248 15.991L4.05012 0.318775L3.90295 0.108603L3.69277 0.255779ZM15.7895 18.0636C15.6287 17.827 15.4217 17.514 15.2233 17.2136L15.1607 17.1188C14.9249 16.7615 14.7102 16.4364 14.6044 16.2853L3.77901 0.826226C0.731726 3.08947 -0.420964 6.88922 1.62118 9.80546L1.62761 9.81466L1.63407 9.82388L1.64054 9.83312L1.64703 9.84238L1.65353 9.85167L1.66006 9.86099L1.66659 9.87032L1.67315 9.87968L1.67972 9.88906L1.6863 9.89846L1.6929 9.90789L1.69952 9.91734L1.70615 9.92681L1.7128 9.9363L1.71946 9.94582L1.72614 9.95535L1.73283 9.96491L1.73954 9.97449L1.74626 9.98409L1.753 9.99372L1.75976 10.0034L1.76652 10.013L1.77331 10.0227L1.7801 10.0324L1.78691 10.0421L1.79374 10.0519L1.80058 10.0617L1.80743 10.0714L1.8143 10.0813L1.82118 10.0911L1.82808 10.1009L1.83499 10.1108L1.84191 10.1207L1.84885 10.1306L1.8558 10.1405L1.86276 10.1505L1.86974 10.1604L1.87673 10.1704L1.88373 10.1804L1.89074 10.1904L1.89777 10.2005L1.90481 10.2105L1.91187 10.2206L1.91893 10.2307L1.92601 10.2408L1.9331 10.2509L1.94021 10.261L1.94732 10.2712L1.95445 10.2814L1.96159 10.2916L1.96874 10.3018L1.9759 10.312L1.98308 10.3223L1.99026 10.3325L1.99746 10.3428L2.00467 10.3531L2.01189 10.3634L2.01912 10.3737L2.02636 10.3841L2.03361 10.3944L2.04088 10.4048L2.04815 10.4152L2.05544 10.4256L2.06273 10.436L2.07004 10.4465L2.07736 10.4569L2.08468 10.4674L2.09202 10.4778L2.09937 10.4883L2.10673 10.4988L2.11409 10.5094L2.12147 10.5199L2.12886 10.5304L2.13625 10.541L2.14366 10.5516L2.15107 10.5622L2.1585 10.5728L2.16593 10.5834L2.17338 10.594L2.18083 10.6047L2.18829 10.6153L2.19576 10.626L2.20324 10.6367L2.21072 10.6474L2.21822 10.6581L2.22572 10.6688L2.23323 10.6795L2.24075 10.6902L2.24828 10.701L2.25582 10.7118L2.26336 10.7225L2.27091 10.7333L2.27847 10.7441L2.28604 10.7549L2.29362 10.7657L2.3012 10.7766L2.30879 10.7874L2.31638 10.7982L2.32399 10.8091L2.3316 10.82L2.33922 10.8308L2.34684 10.8417L2.35447 10.8526L2.36211 10.8635L2.36976 10.8745L2.37741 10.8854L2.38506 10.8963L2.39273 10.9073L2.4004 10.9182L2.40807 10.9292L2.41576 10.9401L2.42344 10.9511L2.43114 10.9621L2.43884 10.9731L2.44654 10.9841L2.45425 10.9951L2.46197 11.0061L2.46969 11.0172L2.47741 11.0282L2.48514 11.0392L2.49288 11.0503L2.50062 11.0613L2.50837 11.0724L2.51612 11.0835L2.52387 11.0945L2.53163 11.1056L2.53939 11.1167L2.54716 11.1278L2.55494 11.1389L2.56271 11.15L2.57049 11.1611L2.57828 11.1722L2.58606 11.1834L2.59386 11.1945L2.60165 11.2056L2.60945 11.2168L2.61725 11.2279L2.62506 11.239L2.63287 11.2502L2.64068 11.2613L2.64849 11.2725L2.65631 11.2837L2.66413 11.2948L2.67195 11.306L2.67978 11.3172L2.68761 11.3284L2.69544 11.3395L2.70327 11.3507L2.71111 11.3619L2.71894 11.3731L2.72678 11.3843L2.73463 11.3955L2.74247 11.4067L2.75031 11.4179L2.75816 11.4291L2.76601 11.4403L2.77386 11.4515L2.78171 11.4627L2.78956 11.474L2.79742 11.4852L2.80527 11.4964L2.81313 11.5076L2.82098 11.5188L2.82884 11.53L2.8367 11.5413L2.84455 11.5525L2.85241 11.5637L2.86027 11.5749L2.86813 11.5862L2.87599 11.5974L2.88385 11.6086L2.89171 11.6198L2.89957 11.6311L2.90743 11.6423L2.91529 11.6535L2.92314 11.6647L2.931 11.6759L2.93886 11.6872L2.94672 11.6984L2.95457 11.7096L2.96243 11.7208L2.97028 11.732L2.97813 11.7432L2.98598 11.7545L2.99383 11.7657L3.00168 11.7769L3.00953 11.7881L3.01738 11.7993L3.02522 11.8105L3.03306 11.8217L3.0409 11.8329L3.04874 11.8441L3.05658 11.8553L3.06441 11.8664L3.07224 11.8776L3.08007 11.8888L3.0879 11.9L3.09572 11.9112L3.10354 11.9223L3.11136 11.9335L3.11918 11.9447L3.12699 11.9558L3.1348 11.967L3.14261 11.9781L3.15041 11.9893L3.15821 12.0004L3.16601 12.0115L3.1738 12.0227L3.18159 12.0338L3.18937 12.0449L3.19715 12.056L3.20493 12.0671L3.21271 12.0782L3.22048 12.0893L3.22824 12.1004L3.236 12.1115L3.24376 12.1226L3.25151 12.1336L3.25926 12.1447L3.267 12.1558L3.27474 12.1668L3.28247 12.1778L3.2902 12.1889L3.29792 12.1999L3.30564 12.2109L3.31335 12.2219L3.32106 12.2329L3.32876 12.2439L3.33645 12.2549L3.34414 12.2659L3.35183 12.2769L3.3595 12.2879L3.36718 12.2988L3.37484 12.3098L3.3825 12.3207L3.39015 12.3316L3.3978 12.3425L3.40544 12.3535L3.41307 12.3644L3.4207 12.3752L3.42832 12.3861L3.43594 12.397L3.44354 12.4079L3.45114 12.4187L3.45873 12.4296L3.46632 12.4404L3.47389 12.4512L3.48146 12.462L3.48903 12.4728L3.49658 12.4836L3.50413 12.4944L3.51167 12.5051L3.5192 12.5159L3.52672 12.5266L3.53424 12.5374L3.54174 12.5481L3.54924 12.5588L3.55673 12.5695L3.56421 12.5802L3.57168 12.5909L3.57915 12.6015L3.5866 12.6122L3.59405 12.6228L3.60148 12.6334L3.60891 12.644L3.61633 12.6546L3.62374 12.6652L3.63114 12.6758L3.63853 12.6863L3.64591 12.6968L3.65328 12.7074L3.66064 12.7179L3.66799 12.7284L3.67533 12.7389L3.68266 12.7493L3.68998 12.7598L3.69729 12.7702L3.70459 12.7806L3.71188 12.7911L3.71916 12.8015L3.72643 12.8118L3.73368 12.8222L3.74093 12.8325L3.74816 12.8429L3.75539 12.8532L3.7626 12.8635L3.7698 12.8738L3.77699 12.884L3.78417 12.8943L3.79134 12.9045L3.79849 12.9147L3.80563 12.9249L3.81276 12.9351L3.81988 12.9453L3.82699 12.9554L3.83409 12.9656L3.84117 12.9757L3.84824 12.9858L3.8553 12.9959L3.86234 13.0059L3.86937 13.016L3.87639 13.026L3.8834 13.036L3.89039 13.046L3.89738 13.056L3.90434 13.0659L3.9113 13.0758L3.91824 13.0857L3.92516 13.0956L3.93208 13.1055L3.93898 13.1154L3.94587 13.1252L3.95274 13.135L3.9596 13.1448L3.96644 13.1546L3.97327 13.1643L3.98009 13.1741L3.98689 13.1838L3.99368 13.1935L4.00045 13.2031L4.00721 13.2128L4.01395 13.2224L4.02068 13.232L4.02739 13.2416L4.03409 13.2512L4.04077 13.2607L4.04744 13.2703L4.0541 13.2798L4.06073 13.2892L4.06735 13.2987L4.07396 13.3081L4.08055 13.3175L4.08712 13.3269L4.09368 13.3363L4.10023 13.3456L4.10675 13.3549L4.11326 13.3642L4.11976 13.3735L4.12623 13.3828L4.1327 13.392L4.13914 13.4012L4.14557 13.4104L4.15198 13.4195L4.15837 13.4287L4.16475 13.4378L4.17111 13.4469L4.17745 13.4559L4.18378 13.4649L4.19008 13.474L4.19638 13.4829L4.20265 13.4919L4.2089 13.5008L4.21514 13.5097L4.22136 13.5186L4.22756 13.5275L4.23375 13.5363L4.23991 13.5451L4.24606 13.5539L4.25219 13.5626L4.2583 13.5714L4.26439 13.5801L4.27046 13.5887L4.27651 13.5974L4.28255 13.606L4.28857 13.6146L4.29456 13.6231L4.30054 13.6317L4.3065 13.6402L4.31244 13.6487L4.31836 13.6571L4.32426 13.6656L4.33014 13.674L4.336 13.6823L4.34184 13.6907L4.34766 13.699L4.35346 13.7073L4.35924 13.7155L4.36501 13.7237L4.37075 13.7319L4.37646 13.7401L4.38216 13.7482L4.38784 13.7564L4.3935 13.7644L4.39914 13.7725L4.40475 13.7805L4.41035 13.7885L4.41592 13.7965L4.42148 13.8044L4.42701 13.8123L4.43252 13.8202L4.43801 13.828L4.44347 13.8358L4.44892 13.8436L4.45434 13.8513L4.45974 13.859L4.46512 13.8667L4.47048 13.8744L4.47581 13.882L4.48113 13.8896L4.48642 13.8971L4.49169 13.9046L4.49693 13.9121L4.50215 13.9196L4.50735 13.927L4.51253 13.9344L4.51768 13.9418L4.52282 13.9491L4.52792 13.9564L4.53301 13.9637L4.53807 13.9709L4.54311 13.9781L4.54812 13.9852L4.55311 13.9924L4.55808 13.9995L4.56302 14.0065L4.56794 14.0135L4.57283 14.0205L4.5777 14.0275L4.58255 14.0344L4.58737 14.0413L4.59217 14.0481L4.59694 14.055L4.60169 14.0617L4.60641 14.0685L4.61111 14.0752L4.61578 14.0819L4.62043 14.0885L4.62506 14.0951L4.62965 14.1017L4.63423 14.1082L4.63877 14.1147L4.6433 14.1212L4.64779 14.1276L4.65226 14.134L4.65671 14.1403L4.66112 14.1466L4.66552 14.1529L4.66988 14.1591L4.67422 14.1653L4.67854 14.1715L4.68282 14.1776L4.68709 14.1837L4.69132 14.1897L4.69553 14.1957L4.69971 14.2017L4.70386 14.2076L4.70799 14.2135L4.71209 14.2194L4.71616 14.2252L4.7202 14.231L4.72422 14.2367L4.72821 14.2424L4.73218 14.2481L4.73611 14.2537L4.74002 14.2593L4.7439 14.2648L4.74775 14.2703L4.75157 14.2758L4.75537 14.2812L4.75913 14.2866L4.76287 14.2919L4.76658 14.2972L4.77026 14.3025L4.77391 14.3077L4.77754 14.3129L4.78113 14.318L4.7847 14.3231L4.78823 14.3281L4.79174 14.3331L4.79522 14.3381L4.79867 14.343L4.80209 14.3479L4.80548 14.3528L4.80884 14.3576L4.81217 14.3623L4.81547 14.367L4.81874 14.3717L4.82198 14.3763L4.82519 14.3809L4.82837 14.3854L4.83152 14.3899L4.83464 14.3944L4.83773 14.3988L4.84079 14.4032L4.84382 14.4075L4.84681 14.4118L4.84978 14.416L4.85271 14.4202L4.85562 14.4244L4.85849 14.4285L4.86133 14.4325L4.86414 14.4365L4.86692 14.4405L4.86966 14.4444L4.87238 14.4483L4.87506 14.4521L4.87771 14.4559L4.88033 14.4596L4.88292 14.4633L4.88547 14.467L4.88799 14.4706L4.89048 14.4741L4.89294 14.4777L4.89536 14.4811L4.89776 14.4845L4.90012 14.4879L4.90244 14.4912L4.90474 14.4945L4.90699 14.4977L4.90922 14.5009L4.91142 14.504L4.91358 14.5071C5.952 15.99 7.41845 16.4441 8.81483 16.7158C9.04462 16.7605 9.27668 16.8008 9.50536 16.8406L9.50571 16.8406C9.95697 16.9191 10.3951 16.9953 10.7767 17.0981C11.3578 17.2547 11.8879 17.4908 12.2153 17.9583L12.2164 17.9599L13.8572 20.3407L15.7895 18.0636ZM13.9295 21.0486L14.2112 20.8544L14.1588 20.7783L18.5776 15.5711C18.9761 15.1014 19.1033 14.4972 19.1373 13.8526C19.1595 13.4307 19.1419 12.9602 19.1237 12.4746V12.4745V12.4745C19.1145 12.2277 19.1051 11.977 19.1008 11.7268C19.0743 10.2146 19.2191 8.55699 20.5337 7.00787L25.4652 1.19643C25.7703 0.836873 26.3056 0.784188 26.675 1.07736C27.062 1.38458 27.1176 1.95132 26.7976 2.32788L21.8626 8.13534L21.6964 8.33099L21.8921 8.49712L23.2594 9.65733L23.4567 9.82479L23.6224 9.626L29.2226 2.90902C29.5267 2.54434 30.0688 2.49512 30.4335 2.79909C30.7955 3.10073 30.8473 3.63752 30.5496 4.0028L24.9927 10.8226L24.8323 11.0195L25.0275 11.182L26.4809 12.3911L26.6762 12.5536L26.8406 12.3598L31.7503 6.57415C32.0616 6.20721 32.6115 6.16217 32.9785 6.47354C33.3454 6.78492 33.3904 7.33481 33.0791 7.70175L28.1695 13.4874C26.6807 15.2418 25.2656 15.787 24.0328 16.1096C23.8172 16.166 23.5998 16.2171 23.3856 16.2675L23.3855 16.2675L23.3855 16.2675C22.9976 16.3587 22.6199 16.4474 22.281 16.5612C21.7373 16.7438 21.2399 17.0047 20.8326 17.4846L20.8191 17.5005L20.8056 17.5165L20.7919 17.5325L20.7782 17.5487L20.7644 17.565L20.7505 17.5814L20.7365 17.5979L20.7224 17.6145L20.7083 17.6311L20.694 17.6479L20.6797 17.6648L20.6653 17.6818L20.6508 17.6989L20.6362 17.7161L20.6216 17.7333L20.6068 17.7507L20.592 17.7682L20.5771 17.7858L20.5621 17.8034L20.547 17.8212L20.5318 17.8391L20.5166 17.857L20.5013 17.8751L20.4859 17.8932L20.4704 17.9115L20.4548 17.9298L20.4392 17.9483L20.4234 17.9668L20.4076 17.9854L20.3917 18.0042L20.3757 18.023L20.3597 18.0419L20.3436 18.0609L20.3273 18.08L20.311 18.0993L20.2947 18.1185L20.2782 18.1379L20.2617 18.1574L20.2451 18.177L20.2284 18.1967L20.2116 18.2164L20.1947 18.2363L20.1778 18.2563L20.1608 18.2763L20.1437 18.2964L20.1265 18.3167L20.1093 18.337L20.092 18.3574L20.0746 18.3779L20.0571 18.3985L20.0396 18.4192L20.0219 18.44L20.0042 18.4608L19.9864 18.4818L19.9686 18.5028L19.9506 18.524L19.9326 18.5452L19.9145 18.5665L19.8964 18.5879L19.8781 18.6094L19.8598 18.631L19.8414 18.6527L19.823 18.6744L19.8044 18.6963L19.7858 18.7182L19.7671 18.7402L19.7483 18.7624L19.7295 18.7846L19.7106 18.8068L19.6916 18.8292L19.6725 18.8517L19.6534 18.8742L19.6342 18.8969L19.6149 18.9196L19.5956 18.9424L19.5761 18.9653L19.5566 18.9883L19.5371 19.0113L19.5174 19.0345L19.4977 19.0577L19.4779 19.081L19.4581 19.1044L19.4381 19.1279L19.4181 19.1515L19.3981 19.1752L19.3779 19.1989L19.3577 19.2227L19.3374 19.2466L19.317 19.2706L19.2966 19.2947L19.2761 19.3188L19.2556 19.3431L19.2349 19.3674L19.2142 19.3918L19.1934 19.4163L19.1726 19.4409L19.1517 19.4655L19.1307 19.4902L19.1096 19.515L19.0885 19.5399L19.0673 19.5649L19.0461 19.59L19.0247 19.6151L19.0033 19.6403L18.9819 19.6656L18.9603 19.691L18.9387 19.7164L18.9171 19.7419L18.8954 19.7676L18.8736 19.7932L18.8517 19.819L18.8298 19.8449L18.8078 19.8708L18.7857 19.8968L18.7636 19.9229L18.7414 19.949L18.7191 19.9752L18.6968 20.0016L18.6744 20.0279L18.6519 20.0544L18.6294 20.0809L18.6068 20.1076L18.5842 20.1343L18.5615 20.161L18.5387 20.1879L18.5158 20.2148L18.4929 20.2418L18.47 20.2689L18.4469 20.296L18.4238 20.3232L18.4007 20.3505L18.3774 20.3779L18.3542 20.4053L18.3308 20.4328L18.3074 20.4604L18.2839 20.4881L18.2604 20.5158L18.2368 20.5436L18.2131 20.5715L18.1894 20.5995L18.1656 20.6275L18.1418 20.6556L18.1179 20.6838L18.0939 20.712L18.0699 20.7403L18.0458 20.7687L18.0216 20.7972L17.9974 20.8257L17.9732 20.8543L17.9488 20.883L17.9245 20.9117L17.9 20.9405L17.8755 20.9694L17.8509 20.9983L17.8263 21.0273L17.8016 21.0564L17.7769 21.0856L17.7521 21.1148L17.7272 21.1441L17.7023 21.1735L17.6774 21.2029L17.6523 21.2324L17.6272 21.262L17.6021 21.2916L17.5769 21.3213L17.5516 21.3511L17.5263 21.3809L17.5009 21.4108L17.4755 21.4408L17.45 21.4708L17.4245 21.5009L17.3989 21.5311L17.3732 21.5613L17.3475 21.5916L17.3218 21.622L17.2959 21.6524L17.2701 21.6829L17.2441 21.7134L17.2181 21.744L17.1921 21.7747L17.166 21.8055L17.1399 21.8363L17.1137 21.8672L17.0874 21.8981L17.0611 21.9291L17.0347 21.9602L17.0083 21.9913L16.9819 22.0225L16.9553 22.0538L16.9288 22.0851L16.9021 22.1164L16.8755 22.1479L16.8487 22.1794L16.8219 22.2109L16.7951 22.2426L16.7682 22.2743L16.7413 22.306L16.7143 22.3378L16.6872 22.3697L16.6602 22.4016L16.633 22.4336L16.6058 22.4656L16.5786 22.4977L16.5513 22.5299L16.5239 22.5621L16.4965 22.5944L16.4691 22.6267L16.4416 22.6591L16.4141 22.6916L16.3865 22.7241L16.3588 22.7567L16.3311 22.7893L16.3034 22.822L16.2756 22.8548L16.2478 22.8876L16.2199 22.9204L16.192 22.9533L16.164 22.9863L16.136 23.0193L16.1079 23.0524L16.0798 23.0856L16.0516 23.1187L16.0234 23.152L15.9951 23.1853L15.9668 23.2187L15.9385 23.2521L15.9101 23.2856L15.8816 23.3191L15.8531 23.3527L15.8246 23.3863L15.796 23.42L15.7674 23.4537L15.7387 23.4875L15.71 23.5213L15.6812 23.5552L15.6524 23.5892L15.6235 23.6232L15.5946 23.6572L15.5657 23.6914L15.5367 23.7255L15.5077 23.7597L15.4786 23.794L15.4495 23.8283L15.4203 23.8627L15.3911 23.8971L15.3619 23.9315L15.3326 23.9661L15.3033 24.0006L15.2739 24.0352L15.2445 24.0699L15.215 24.1046L15.1855 24.1394L15.156 24.1742L15.1264 24.2091L15.0968 24.244L15.0671 24.2789L15.0374 24.3139L15.0076 24.349L14.9779 24.3841L14.948 24.4192L14.9182 24.4544L14.8883 24.4897L14.8583 24.525L14.8283 24.5603L14.7983 24.5957L14.7682 24.6311L14.7381 24.6666L14.708 24.7021L14.6778 24.7377L14.6476 24.7733L14.6173 24.809L14.587 24.8447L14.5567 24.8804L14.5263 24.9162L14.4959 24.9521L14.4654 24.9879L14.435 25.0239L14.4044 25.0598L14.3739 25.0959L14.3433 25.1319L14.3126 25.168L14.282 25.2042L14.2513 25.2403L14.2205 25.2766L14.1897 25.3128L14.1589 25.3492L14.1281 25.3855L14.0972 25.4219L14.0662 25.4584L14.0353 25.4948L14.0043 25.5314L13.9733 25.5679L13.9422 25.6045L13.9111 25.6412L13.88 25.6779L13.8488 25.7146L13.8176 25.7514L13.7864 25.7882L13.7551 25.825L13.7238 25.8619L13.6925 25.8988L13.6611 25.9358L13.6297 25.9728L13.5983 26.0098L13.5668 26.0469L13.5353 26.084L13.5038 26.1212L13.4723 26.1583L13.4407 26.1956L13.409 26.2328L13.3774 26.2701L13.3457 26.3075L13.314 26.3449L13.2822 26.3823L13.2505 26.4197L13.2186 26.4572L13.1868 26.4947L13.1549 26.5323L13.123 26.5699L13.0911 26.6075L13.0592 26.6452L13.0272 26.6829L12.9951 26.7206L12.9631 26.7584L12.931 26.7962L12.8989 26.834L12.8668 26.8719L12.8346 26.9098L12.8024 26.9477L12.7702 26.9857L12.738 27.0237L12.7057 27.0617L12.6734 27.0997L12.6411 27.1378L12.6087 27.176L12.5763 27.2141L12.5439 27.2523L12.5115 27.2905L12.479 27.3288L12.4465 27.3671L12.414 27.4054L12.3815 27.4438L12.3489 27.4821L12.3163 27.5205L12.2837 27.559L12.2511 27.5974L12.2184 27.6359L12.1857 27.6745L12.153 27.713L12.1203 27.7516L12.0875 27.7902L12.0547 27.8289L12.0219 27.8675L11.989 27.9062L11.9562 27.945L11.9233 27.9837L11.8904 28.0225L11.8575 28.0613L11.8245 28.1001L11.7915 28.139L11.7585 28.1779L11.7255 28.2168L11.6925 28.2557L11.6594 28.2947L11.6263 28.3337L11.5932 28.3727L11.5601 28.4118L11.5269 28.4508L11.4937 28.4899L11.4605 28.529L11.4273 28.5682L11.3941 28.6073L11.3608 28.6465L11.3276 28.6858L11.2943 28.725L11.2609 28.7643L11.2276 28.8035L11.1942 28.8428L11.1609 28.8822L11.1275 28.9215L11.0941 28.9609L11.0606 29.0003L11.0272 29.0397L10.9937 29.0792L10.9602 29.1186L10.9267 29.1581L10.8932 29.1976L10.8596 29.2372L10.8261 29.2767L10.7925 29.3163L10.7589 29.3559L10.7253 29.3955L10.6917 29.4351L10.658 29.4748L10.6243 29.5144L10.5907 29.5541L10.557 29.5938L10.5233 29.6336L10.4895 29.6733L10.4558 29.7131L10.422 29.7529L10.3883 29.7927L10.3545 29.8325L10.3207 29.8723L10.2868 29.9122L10.253 29.952L10.2192 29.9919L10.1853 30.0318L10.1514 30.0718L10.1175 30.1117L10.0836 30.1517L10.0497 30.1916L10.0158 30.2316L9.98182 30.2716L9.94786 30.3116L9.91389 30.3517L9.87991 30.3917L9.84591 30.4318L9.8119 30.4719L9.77788 30.5119L9.74385 30.552L9.70981 30.5922L9.67575 30.6323L9.64168 30.6724L9.6076 30.7126L9.57351 30.7528L9.53941 30.793L9.5053 30.8332L9.47118 30.8734L9.43704 30.9136L9.4029 30.9538L9.36874 30.9941L9.33458 31.0343L9.30041 31.0746L9.26623 31.1149L9.23203 31.1552L9.19783 31.1955L9.16362 31.2358L9.1294 31.2761L9.09518 31.3165L9.06094 31.3568L9.02669 31.3972L8.99244 31.4375L8.95818 31.4779L8.92391 31.5183L8.88964 31.5587L8.85535 31.5991L8.82106 31.6395L8.78676 31.6799L8.75246 31.7203L8.71815 31.7608L8.68383 31.8012L8.6495 31.8417L8.61517 31.8821L8.58084 31.9226L8.54649 31.9631L8.51215 32.0035L8.47779 32.044L8.44343 32.0845L8.40907 32.125L8.3747 32.1655L8.34032 32.206L8.30595 32.2465L8.27156 32.2871L8.23718 32.3276L8.20279 32.3681L8.16839 32.4086L8.13399 32.4492L8.09959 32.4897L8.06518 32.5303L8.03077 32.5708L7.99636 32.6114L7.96194 32.6519L7.92753 32.6925L7.89311 32.733L7.85869 32.7736L7.82426 32.8142L7.78983 32.8547L7.7554 32.8953L7.72098 32.9359L7.68654 32.9765L7.65211 33.017L7.61768 33.0576L7.58324 33.0982L7.54881 33.1388L7.51437 33.1794L7.47993 33.2199L7.4455 33.2605L7.41106 33.3011L7.37662 33.3417L7.34219 33.3823L7.30775 33.4228L7.27332 33.4634L7.23888 33.504L7.20445 33.5446L7.17002 33.5852L7.13559 33.6257L7.10116 33.6663L7.06673 33.7069L7.0323 33.7474L6.99788 33.788L6.96346 33.8286L6.92904 33.8691L6.89463 33.9097L6.86021 33.9502L6.8258 33.9908L6.79139 34.0313L6.75699 34.0719L6.72259 34.1124L6.68819 34.153L6.6538 34.1935L6.61941 34.234C5.71685 35.2976 4.89179 35.9391 4.22984 36.248C3.55422 36.5634 3.12126 36.5053 2.90698 36.3234C2.69269 36.1416 2.56492 35.7239 2.76611 35.0059C2.96322 34.3025 3.46184 33.3841 4.36441 32.3205L13.9295 21.0486ZM18.0652 21.539L18.0436 21.5644L18.0185 21.594L17.9934 21.6236L17.9682 21.6533L17.9429 21.6831L17.9176 21.7129L17.8922 21.7428L17.8668 21.7728L17.8413 21.8028L17.8157 21.8329L17.7901 21.8631L17.7645 21.8933L17.7388 21.9236L17.713 21.954L17.6872 21.9844L17.6613 22.0149L17.6354 22.0454L17.6094 22.0761L17.5834 22.1068L17.5573 22.1375L17.5311 22.1683L17.5049 22.1992L17.4787 22.2301L17.4524 22.2611L17.426 22.2922L17.3996 22.3233L17.3731 22.3545L17.3466 22.3858L17.32 22.4171L17.2934 22.4485L17.2667 22.4799L17.24 22.5114L17.2132 22.543L17.1864 22.5746L17.1595 22.6063L17.1325 22.638L17.1056 22.6698L17.0785 22.7017L17.0514 22.7336L17.0243 22.7656L16.9971 22.7977L16.9698 22.8298L16.9426 22.8619L16.9152 22.8941L16.8878 22.9264L16.8604 22.9588L16.8329 22.9912L16.8053 23.0236L16.7777 23.0561L16.7501 23.0887L16.7224 23.1213L16.6947 23.154L16.6669 23.1868L16.639 23.2196L16.6112 23.2524L16.5832 23.2854L16.5553 23.3183L16.5272 23.3514L16.4992 23.3844L16.471 23.4176L16.4429 23.4508L16.4146 23.484L16.3864 23.5173L16.3581 23.5507L16.3297 23.5841L16.3013 23.6176L16.2729 23.6511L16.2444 23.6847L16.2158 23.7183L16.1873 23.752L16.1586 23.7857L16.13 23.8195L16.1012 23.8534L16.0725 23.8873L16.0437 23.9212L16.0148 23.9552L15.9859 23.9893L15.957 24.0234L15.9413 24.0418L16.2089 23.851L23.5545 34.1511L23.5558 34.1529C24.2732 35.1773 24.9697 35.8046 25.5522 36.1175C26.1421 36.4343 26.5615 36.4064 26.7981 36.2407C27.0347 36.075 27.2044 35.6904 27.1084 35.0278C27.0136 34.3733 26.6623 33.5043 25.9449 32.4799C24.4406 30.3317 22.9771 28.3199 21.6017 26.4341L21.323 26.052C20.1606 24.4585 19.0641 22.9554 18.0652 21.539Z" fill="#AC9416"/>
<path d="M18.78 12.4348C17.7347 12.1513 16.635 12 15.5 12C14.684 12 13.8862 12.0782 13.1138 12.2275C12.8118 12.2859 12.5138 12.3551 12.22 12.4348M25 16C26.9486 18.2044 28 21.3265 28 24.5C28 27.1731 27.1609 29.6502 25.7318 31.6823M6.33477 16C4.2653 18.2304 3 21.2174 3 24.5C3 26.9576 3.70922 29.2495 4.93415 31.1823M7.37561 34C9.56056 35.8703 12.3984 37 15.5 37C18.4326 37 21.1292 35.9901 23.2613 34.2992" stroke="#AC9416" stroke-width="1.4"/>
</svg>
