<svg width="174" height="42" viewBox="0 0 174 42" fill="none" xmlns="http://www.w3.org/2000/svg">
<circle cx="18.9297" cy="32.1192" r="1.67565" stroke="#C4C4C4" stroke-width="1.21865"/>
<path d="M19.6462 33.6322L21.1692 32.4899V36.5012L19.6462 37.0588V33.6322Z" fill="#C4C4C4"/>
<path d="M53.0193 12.3123V10.3715H63.2255V12.3123H59.2763V25H56.9685V12.3123H53.0193ZM65.4309 25V10.3715H67.7386V16.3484H73.0686V10.3715H75.3763V25H73.0686V18.2892H67.7386V25H65.4309ZM81.7241 18.8203H84.4566L83.0952 14.0986L81.7241 18.8203ZM77.5721 25L81.7434 10.3715H84.2732L88.4445 25H86.214L85.007 20.7611H81.1737L79.9667 25H77.5721ZM90.4085 25V10.3715H92.7162V25H90.4085ZM101.366 19.4962C101.263 18.8911 101.211 18.2796 101.211 17.6616C101.211 17.0436 101.26 16.4353 101.356 15.8367C101.453 15.238 101.594 14.6554 101.781 14.089C101.974 13.516 102.222 12.9914 102.525 12.5151C102.834 12.0323 103.184 11.6106 103.577 11.2502C104.414 10.4841 105.453 10.1011 106.696 10.1011C108.273 10.1011 109.519 10.8897 110.433 12.4668C110.877 13.2328 111.176 14.0214 111.331 14.8325V14.8421L109.322 15.3828C109.219 14.6941 109.097 14.1919 108.955 13.8765C108.814 13.5547 108.672 13.2875 108.53 13.0751C108.389 12.8562 108.234 12.676 108.067 12.5344C107.668 12.2061 107.214 12.0419 106.706 12.0419C106.203 12.0419 105.772 12.1578 105.412 12.3895C105.051 12.6148 104.755 12.9142 104.523 13.2875C104.292 13.6544 104.098 14.0857 103.944 14.5814C103.661 15.4955 103.519 16.5254 103.519 17.6713C103.519 20.7096 104.24 22.5249 105.682 23.1171C105.991 23.2459 106.319 23.3102 106.667 23.3102C107.015 23.3102 107.323 23.2652 107.594 23.1751C107.871 23.0849 108.102 22.9691 108.289 22.8274C108.476 22.6794 108.64 22.5056 108.782 22.306C108.93 22.1065 109.045 21.9069 109.129 21.7074C109.219 21.5014 109.29 21.2922 109.342 21.0797C109.438 20.7064 109.486 20.3588 109.486 20.0369L111.64 20.3363C111.35 21.5722 110.845 22.644 110.124 23.5516C109.21 24.6846 108.061 25.2511 106.677 25.2511C104.977 25.2511 103.609 24.4432 102.573 22.8274C101.987 21.9198 101.585 20.8094 101.366 19.4962ZM116.114 15.6435C116.05 16.0233 116.005 16.3806 115.979 16.7153C115.953 17.0501 115.94 17.3945 115.94 17.7485C115.94 18.0961 115.953 18.4405 115.979 18.7817C116.005 19.1228 116.05 19.4833 116.114 19.8631C116.185 20.2429 116.272 20.5937 116.375 20.9156C116.478 21.2375 116.616 21.5497 116.79 21.8522C116.97 22.1483 117.17 22.4026 117.389 22.615C117.884 23.0785 118.509 23.3102 119.262 23.3102C121.354 23.3102 122.4 21.4499 122.4 17.7292C122.4 14.6973 121.692 12.8691 120.276 12.2447C119.967 12.1095 119.622 12.0419 119.243 12.0419C118.869 12.0419 118.522 12.1095 118.2 12.2447C117.884 12.3799 117.614 12.5601 117.389 12.7854C117.17 13.0043 116.97 13.2714 116.79 13.5869C116.616 13.9023 116.478 14.2274 116.375 14.5621C116.272 14.8968 116.185 15.2573 116.114 15.6435ZM113.729 19.1969C113.665 18.7076 113.633 18.2216 113.633 17.7388C113.633 17.2561 113.662 16.77 113.719 16.2808C113.777 15.7916 113.874 15.2959 114.009 14.7938C114.144 14.2853 114.312 13.8057 114.511 13.3551C114.711 12.9045 114.962 12.4797 115.264 12.0805C115.573 11.675 115.918 11.3274 116.298 11.0377C117.115 10.4133 118.11 10.1011 119.281 10.1011C120.891 10.1011 122.178 10.7641 123.144 12.0902C124.186 13.5321 124.708 15.415 124.708 17.7388C124.708 20.1077 124.206 21.9745 123.201 23.3392C122.262 24.6138 120.955 25.2511 119.281 25.2511C117.691 25.2511 116.388 24.6105 115.371 23.3295C114.508 22.2481 113.961 20.8705 113.729 19.1969ZM129.81 16.7057H132.253C132.929 16.7057 133.492 16.5222 133.943 16.1553C134.419 15.7626 134.657 15.1607 134.657 14.3497C134.657 12.9914 133.579 12.3123 131.422 12.3123H129.81V16.7057ZM127.502 25V10.3715H132.417C134.676 10.3715 136.105 11.1793 136.704 12.7951C136.878 13.265 136.965 13.751 136.965 14.2531C136.965 14.7552 136.907 15.2122 136.791 15.6242C136.682 16.0362 136.517 16.4192 136.299 16.7733C135.816 17.5457 135.104 18.0317 134.165 18.2313L136.868 25H134.503L131.973 18.6561H129.81V25H127.502ZM146.991 19.3514V10.3715H149.289V25H147.455L141.546 13.78V25H139.247V10.3715H142.221L146.991 19.3514ZM152.596 25V10.3715H160.967V12.3123H154.903V16.3581H159.123V18.3085H154.903V22.924H161.334V25H152.596ZM166.32 16.7057H168.763C169.439 16.7057 170.002 16.5222 170.453 16.1553C170.929 15.7626 171.168 15.1607 171.168 14.3497C171.168 12.9914 170.089 12.3123 167.933 12.3123H166.32V16.7057ZM164.013 25V10.3715H168.927C171.187 10.3715 172.616 11.1793 173.215 12.7951C173.388 13.265 173.475 13.751 173.475 14.2531C173.475 14.7552 173.417 15.2122 173.302 15.6242C173.192 16.0362 173.028 16.4192 172.809 16.7733C172.326 17.5457 171.615 18.0317 170.675 18.2313L173.379 25H171.013L168.483 18.6561H166.32V25H164.013Z" fill="white"/>
<path d="M54.3903 32.7096V37.3828H53.3244V30.4823H54.8002L56.1256 35.2511H56.1712L57.4966 30.4823H58.9724V37.3828H57.902V32.7096H57.861L56.5674 37.3828H55.7294L54.4358 32.7096H54.3903ZM65.4053 37.3828V30.4823H69.3543V31.3978H66.4939V33.3062H68.4843V34.2263H66.4939V36.4035H69.5274V37.3828H65.4053ZM75.6415 37.3828V30.4823H76.7301V36.3352H79.5814V37.3828H75.6415ZM85.5953 37.3828V30.4823H86.6839V36.3352H89.5352V37.3828H85.5953ZM96.6377 33.3381H97.7582C98.0649 33.3381 98.3306 33.2197 98.5553 32.9828C98.7314 32.8007 98.8194 32.5593 98.8194 32.2586C98.8194 31.6847 98.4657 31.3978 97.7582 31.3978H96.6377V33.3381ZM96.6377 36.4672H97.8037C98.2288 36.4672 98.5295 36.367 98.7056 36.1666C98.8544 35.9996 98.9288 35.7521 98.9288 35.4242C98.9288 35.154 98.827 34.8989 98.6236 34.659C98.408 34.4039 98.1347 34.2764 97.8037 34.2764H96.6377V36.4672ZM95.5491 37.3828V30.4823H97.7673C98.4171 30.4823 98.9227 30.6417 99.284 30.9605C99.6332 31.2672 99.8078 31.6574 99.8078 32.1311C99.8078 32.9115 99.5254 33.4095 98.9606 33.6251C98.8635 33.6645 98.7496 33.6995 98.619 33.7298C99.0016 33.8027 99.3174 33.9864 99.5664 34.281C99.8306 34.5937 99.9627 35.0036 99.9627 35.5107C99.9627 36.2334 99.735 36.7451 99.2795 37.0457C98.9303 37.2704 98.4384 37.3828 97.8037 37.3828H95.5491ZM108.395 34.1899V37.3828H107.311V34.1899L105.307 30.4823H106.455L107.853 33.0922L109.252 30.4823H110.399L108.395 34.1899ZM115.716 35.6155L116.591 35.3286C116.594 35.3286 116.6 35.3513 116.609 35.3969C116.618 35.4424 116.633 35.5032 116.655 35.5791C116.679 35.6519 116.711 35.7339 116.75 35.825C116.793 35.9131 116.854 36.0027 116.932 36.0938C117.011 36.1818 117.104 36.2623 117.21 36.3352C117.447 36.5022 117.742 36.5857 118.094 36.5857C118.446 36.5857 118.704 36.4991 118.868 36.326C119.035 36.153 119.119 35.948 119.119 35.7112C119.119 35.4713 119.094 35.2784 119.046 35.1327C118.997 34.9839 118.912 34.8549 118.791 34.7455C118.587 34.5634 118.235 34.3994 117.734 34.2536C116.85 33.9955 116.283 33.5962 116.031 33.0557C115.9 32.7733 115.835 32.4408 115.835 32.0582C115.835 31.7364 115.949 31.4221 116.176 31.1154C116.574 30.6083 117.139 30.3547 117.871 30.3547C118.451 30.3547 118.926 30.5293 119.296 30.8785C119.561 31.1245 119.758 31.4342 119.889 31.8077L119.975 32.0491C120.002 32.122 120.021 32.1691 120.03 32.1903L119.142 32.5046C118.941 31.8669 118.628 31.4737 118.203 31.3249C118.097 31.2885 117.986 31.2703 117.871 31.2703C117.239 31.2703 116.923 31.5952 116.923 32.245C116.923 32.5426 117.011 32.7703 117.188 32.9282C117.333 33.0648 117.525 33.1726 117.761 33.2516L117.98 33.3245C118.105 33.367 118.173 33.3897 118.185 33.3928L118.385 33.4611C118.905 33.6433 119.255 33.8042 119.438 33.9439C119.705 34.1504 119.879 34.3402 119.961 34.5132C120.125 34.8685 120.207 35.2435 120.207 35.6383C120.207 35.948 120.119 36.2623 119.943 36.5811C119.706 37.0093 119.331 37.2901 118.818 37.4237C118.621 37.4754 118.405 37.5012 118.171 37.5012C117.938 37.5012 117.717 37.4799 117.511 37.4374C117.307 37.3949 117.131 37.3372 116.983 37.2643C116.834 37.1915 116.697 37.1079 116.573 37.0138C116.448 36.9197 116.343 36.821 116.258 36.7178C116.173 36.6115 116.099 36.5067 116.035 36.4035C115.971 36.2972 115.92 36.197 115.88 36.1029C115.844 36.0087 115.814 35.9252 115.789 35.8524C115.765 35.7795 115.747 35.7218 115.735 35.6793C115.725 35.6368 115.719 35.6155 115.716 35.6155ZM125.561 31.3978V30.4823H130.375V31.3978H128.512V37.3828H127.424V31.3978H125.561ZM137.355 33.4702H138.507C138.826 33.4702 139.092 33.3837 139.304 33.2106C139.529 33.0254 139.641 32.7414 139.641 32.3588C139.641 31.7181 139.133 31.3978 138.115 31.3978H137.355V33.4702ZM136.266 37.3828V30.4823H138.585C139.65 30.4823 140.324 30.8634 140.607 31.6255C140.689 31.8472 140.73 32.0764 140.73 32.3133C140.73 32.5501 140.703 32.7657 140.648 32.9601C140.596 33.1544 140.519 33.3351 140.416 33.5021C140.188 33.8665 139.852 34.0957 139.409 34.1899L140.684 37.3828H139.568L138.375 34.3903H137.355V37.3828H136.266ZM148.101 34.4677H149.39L148.748 32.2404L148.101 34.4677ZM146.143 37.3828L148.11 30.4823H149.304L151.271 37.3828H150.219L149.65 35.3832H147.841L147.272 37.3828H146.143ZM160.774 34.7182V30.4823H161.858V37.3828H160.993L158.205 32.0901V37.3828H157.121V30.4823H158.524L160.774 34.7182ZM169.357 36.4672H170.013C170.647 36.4672 171.136 36.238 171.479 35.7795C171.816 35.324 171.985 34.7243 171.985 33.9803C171.985 32.5623 171.531 31.7273 170.623 31.4752C170.438 31.4236 170.234 31.3978 170.013 31.3978H169.357V36.4672ZM168.268 37.3828V30.4823H169.894C171.558 30.4823 172.563 31.1518 172.91 32.4909C173.019 32.9191 173.074 33.37 173.074 33.8437C173.074 34.3174 173.04 34.7167 172.973 35.0416C172.91 35.3665 172.799 35.6747 172.641 35.9662C172.483 36.2577 172.286 36.5067 172.049 36.7132C171.53 37.1596 170.811 37.3828 169.894 37.3828H168.268Z" fill="#AC9416"/>
<path fill-rule="evenodd" clip-rule="evenodd" d="M30.2562 19.1001C31.7901 19.4786 33.6296 20.3645 35.6543 22.1761V11.1346L37.6172 10.1531V24.3844L36.145 24.8751C34.9766 23.5692 32.4798 21.166 30.2562 20.5483V21.9307L30.2562 21.9307C30.2562 23.5569 28.938 24.8751 27.3118 24.8751C25.6857 24.8751 24.3674 23.5569 24.3674 21.9307C24.3674 20.4357 25.4817 19.2009 26.9251 19.0115C27.4203 18.8997 28.0471 18.8285 28.784 18.8726V15.648C28.351 15.8985 27.8481 16.0419 27.3118 16.0419C25.6857 16.0419 24.3674 14.7237 24.3674 13.0975C24.3674 11.4714 25.6857 10.1531 27.3118 10.1531C28.938 10.1531 30.2562 11.4714 30.2562 13.0975L30.2562 13.1023V19.1001ZM28.784 13.0975C28.784 13.9106 28.1249 14.5697 27.3118 14.5697C26.4988 14.5697 25.8396 13.9106 25.8396 13.0975C25.8396 12.2844 26.4988 11.6253 27.3118 11.6253C28.1249 11.6253 28.784 12.2844 28.784 13.0975ZM28.784 21.9307C28.784 22.7438 28.1249 23.4029 27.3118 23.4029C26.4988 23.4029 25.8396 22.7438 25.8396 21.9307C25.8396 21.1176 26.3304 20.4094 27.8026 20.2622C28.3005 20.2124 28.784 20.2622 28.784 20.2622V21.9307Z" fill="#C4C4C4"/>
<path fill-rule="evenodd" clip-rule="evenodd" d="M11.9807 19.1001C13.5145 19.4786 15.3541 20.3645 17.3787 22.1761V11.1346L19.3417 10.1531V24.3844L17.8695 24.8751C16.701 23.5692 14.2042 21.166 11.9807 20.5483V21.9307L11.9807 21.9307C11.9807 23.5569 10.6624 24.8751 9.03626 24.8751C7.41011 24.8751 6.09186 23.5569 6.09186 21.9307C6.09186 20.4357 7.20613 19.2009 8.64951 19.0115C9.1447 18.8997 9.77153 18.8285 10.5085 18.8726V15.648C10.0754 15.8985 9.57256 16.0419 9.03626 16.0419C7.41011 16.0419 6.09186 14.7237 6.09186 13.0975C6.09186 11.4714 7.41011 10.1531 9.03626 10.1531C10.6624 10.1531 11.9806 11.4714 11.9807 13.0975L11.9807 13.0975V19.1001ZM10.5085 13.0975C10.5085 13.9106 9.84933 14.5697 9.03626 14.5697C8.22319 14.5697 7.56406 13.9106 7.56406 13.0975C7.56406 12.2844 8.22319 11.6253 9.03626 11.6253C9.84933 11.6253 10.5085 12.2844 10.5085 13.0975ZM10.5085 21.9307C10.5085 22.7438 9.84934 23.4029 9.03626 23.4029C8.22319 23.4029 7.56406 22.7438 7.56406 21.9307C7.56406 21.1176 8.0548 20.4094 9.527 20.2622C10.025 20.2124 10.5085 20.2622 10.5085 20.2622V21.9307Z" fill="#C4C4C4"/>
<line y1="5.22887" x2="44.166" y2="5.22887" stroke="#C4C4C4" stroke-width="0.710717"/>
<line x1="43.8106" y1="41.1201" x2="43.8106" y2="5.58422" stroke="#C4C4C4" stroke-width="0.710717"/>
</svg>
