<svg width="34" height="40" viewBox="0 0 34 40" fill="none" xmlns="http://www.w3.org/2000/svg">
<path d="M5.87107 16.4823L9.31208 36.9875C9.478 37.9763 10.3339 38.7005 11.3364 38.7005H23.3126C24.2839 38.7005 25.1222 38.0198 25.3216 37.0692L29.64 16.4823M5.87107 16.4823H29.64M5.87107 16.4823L11.9298 23.4255H22.6491L29.64 16.4823M5.87107 16.4823L1.21051 23.4255M29.64 16.4823L33.3684 23.4255" stroke="white" stroke-width="1.36842"/>
<path d="M18.0231 12.5263C15.8023 10.4492 15.554 8.6509 18.0231 5.87965C20.2438 3.38723 18.0231 2.14099 17.7436 0.894737" stroke="white" stroke-width="0.513158" stroke-linecap="round"/>
<path d="M13.9178 12.5263C11.6971 10.4492 11.4487 8.6509 13.9178 5.87965C16.1385 3.38723 13.9178 2.14099 13.6384 0.894737" stroke="white" stroke-width="0.513158" stroke-linecap="round"/>
<path d="M22.1283 12.5263C19.9076 10.4492 19.6593 8.6509 22.1283 5.87965C24.349 3.38723 22.1283 2.14099 21.8489 0.894737" stroke="white" stroke-width="0.513158" stroke-linecap="round"/>
</svg>
