<svg width="93" height="33" viewBox="0 0 93 33" fill="none" xmlns="http://www.w3.org/2000/svg">
<path d="M16.1291 5.04456H10.2625V21H6.31641V5.04456H0.52878V1.84822H16.1291V5.04456ZM33.9786 21H30.0325V12.7921H22.3376V21H18.3915V1.84822H22.3376V9.6089H30.0325V1.84822H33.9786V21ZM48.4872 17.0539H41.5683L40.2529 21H36.0569L43.1862 1.84822H46.843L54.0117 21H49.8157L48.4872 17.0539ZM42.6338 13.8575H47.4217L45.0146 6.68878L42.6338 13.8575ZM59.9966 21H56.0505V1.84822H59.9966V21Z" fill="#BE0303"/>
<path d="M36.978 27.8699C36.8848 29.1579 36.408 30.1718 35.5475 30.9117C34.6926 31.6516 33.5635 32.0216 32.1605 32.0216C30.6259 32.0216 29.4174 31.5064 28.535 30.476C27.6581 29.4402 27.2196 28.0207 27.2196 26.2175V25.4858C27.2196 24.3349 27.4224 23.3209 27.828 22.444C28.2335 21.5671 28.8118 20.8957 29.5626 20.4299C30.3189 19.9585 31.1959 19.7229 32.1934 19.7229C33.5745 19.7229 34.6871 20.0928 35.5311 20.8327C36.3751 21.5726 36.8629 22.6112 36.9945 23.9485H34.5281C34.4678 23.1757 34.2514 22.6167 33.8787 22.2714C33.5115 21.9206 32.9497 21.7452 32.1934 21.7452C31.3712 21.7452 30.7547 22.0412 30.3436 22.6331C29.938 23.2196 29.7298 24.1321 29.7188 25.3707V26.275C29.7188 27.5685 29.9134 28.5139 30.3025 29.1113C30.6971 29.7087 31.3164 30.0074 32.1605 30.0074C32.9223 30.0074 33.4895 29.8348 33.8622 29.4895C34.2404 29.1387 34.4569 28.5989 34.5117 27.8699H36.978ZM48.4299 26.1435C48.4299 27.3219 48.2217 28.355 47.8051 29.2428C47.3886 30.1307 46.7912 30.8158 46.013 31.2981C45.2402 31.7804 44.3523 32.0216 43.3493 32.0216C42.3573 32.0216 41.4722 31.7832 40.6939 31.3063C39.9157 30.8295 39.3128 30.1499 38.8853 29.2675C38.4578 28.3796 38.2413 27.3602 38.2358 26.2093V25.6174C38.2358 24.439 38.4468 23.4032 38.8689 22.5098C39.2963 21.611 39.8965 20.9231 40.6693 20.4463C41.4475 19.964 42.3354 19.7229 43.3329 19.7229C44.3304 19.7229 45.2155 19.964 45.9883 20.4463C46.7666 20.9231 47.3667 21.611 47.7887 22.5098C48.2162 23.4032 48.4299 24.4363 48.4299 25.6091V26.1435ZM45.9307 25.6009C45.9307 24.3458 45.706 23.3922 45.2566 22.74C44.8072 22.0878 44.166 21.7617 43.3329 21.7617C42.5053 21.7617 41.8668 22.085 41.4174 22.7318C40.968 23.373 40.7405 24.3157 40.735 25.5598V26.1435C40.735 27.3657 40.9597 28.3139 41.4092 28.988C41.8586 29.6621 42.5053 29.9992 43.3493 29.9992C44.1769 29.9992 44.8127 29.6758 45.2566 29.0291C45.7006 28.3769 45.9253 27.4287 45.9307 26.1846V25.6009ZM54.6533 27.4753H52.6885V31.8571H50.2221V19.8873H54.6697C56.0838 19.8873 57.1744 20.2024 57.9417 20.8327C58.709 21.463 59.0927 22.3536 59.0927 23.5045C59.0927 24.3212 58.9145 25.0035 58.5583 25.5516C58.2075 26.0942 57.6732 26.5272 56.9552 26.8505L59.5448 31.7421V31.8571H56.8976L54.6533 27.4753ZM52.6885 25.4776H54.678C55.2973 25.4776 55.7768 25.3214 56.1166 25.009C56.4564 24.6911 56.6263 24.2554 56.6263 23.7019C56.6263 23.1373 56.4647 22.6934 56.1413 22.37C55.8234 22.0467 55.3329 21.885 54.6697 21.885H52.6885V25.4776ZM70.709 31.8571H68.2427L63.4416 23.9814V31.8571H60.9753V19.8873H63.4416L68.2509 27.7795V19.8873H70.709V31.8571ZM80.0646 26.6697H75.3293V29.8759H80.8867V31.8571H72.8629V19.8873H80.8703V21.885H75.3293V24.7377H80.0646V26.6697ZM86.7648 27.4753H84.7999V31.8571H82.3336V19.8873H86.7812C88.1952 19.8873 89.2859 20.2024 90.0532 20.8327C90.8205 21.463 91.2041 22.3536 91.2041 23.5045C91.2041 24.3212 91.026 25.0035 90.6698 25.5516C90.319 26.0942 89.7846 26.5272 89.0667 26.8505L91.6563 31.7421V31.8571H89.0091L86.7648 27.4753ZM84.7999 25.4776H86.7894C87.4087 25.4776 87.8883 25.3214 88.2281 25.009C88.5679 24.6911 88.7378 24.2554 88.7378 23.7019C88.7378 23.1373 88.5761 22.6934 88.2528 22.37C87.9349 22.0467 87.4444 21.885 86.7812 21.885H84.7999V25.4776Z" fill="white"/>
</svg>
