<svg width="44" height="36" viewBox="0 0 44 36" fill="none" xmlns="http://www.w3.org/2000/svg">
<circle cx="18.6443" cy="27.1349" r="1.65038" stroke="white" stroke-width="1.20028"/>
<path d="M19.3499 28.625L20.8499 27.5V31.4507L19.3499 32V28.625Z" fill="white"/>
<path fill-rule="evenodd" clip-rule="evenodd" d="M29.8 8.4L29.7999 8.41739V14.3121C31.3107 14.6848 33.1225 15.5574 35.1166 17.3417V6.46667L37.0499 5.5V19.5167L35.5999 20C34.4491 18.7138 31.99 16.3468 29.7999 15.7385V17.0875L29.8 17.1C29.8 18.7016 28.5016 20 26.9 20C25.2983 20 24 18.7016 24 17.1C24 15.6275 25.0975 14.4113 26.5191 14.2248C27.0068 14.1147 27.6242 14.0446 28.3499 14.088V10.9121C27.9234 11.1588 27.4282 11.3 26.9 11.3C25.2984 11.3 24 10.0016 24 8.4C24 6.79837 25.2984 5.5 26.9 5.5C28.5016 5.5 29.8 6.79837 29.8 8.4ZM28.3499 8.4C28.3499 9.20081 27.7008 9.85 26.8999 9.85C26.0991 9.85 25.4499 9.20081 25.4499 8.4C25.4499 7.59919 26.0991 6.95 26.8999 6.95C27.7008 6.95 28.3499 7.59919 28.3499 8.4ZM28.3499 17.1C28.3499 17.9008 27.7007 18.55 26.8999 18.55C26.0991 18.55 25.4499 17.9008 25.4499 17.1C25.4499 16.2992 25.9332 15.6016 27.3832 15.4567C27.8737 15.4076 28.3499 15.4567 28.3499 15.4567V17.1Z" fill="white"/>
<path fill-rule="evenodd" clip-rule="evenodd" d="M11.8 8.4L11.7999 8.41689V14.3121C13.3107 14.6848 15.1225 15.5574 17.1166 17.3417V6.46667L19.0499 5.5V19.5167L17.5999 20C16.4491 18.7138 13.99 16.3468 11.7999 15.7385V17.0876L11.8 17.1C11.8 18.7016 10.5016 20 8.89997 20C7.29834 20 5.99997 18.7016 5.99997 17.1C5.99997 15.6275 7.09746 14.4113 8.51908 14.2248C9.0068 14.1147 9.62415 14.0446 10.3499 14.088V10.9121C9.9234 11.1588 9.42819 11.3 8.89999 11.3C7.29837 11.3 5.99999 10.0016 5.99999 8.4C5.99999 6.79837 7.29837 5.5 8.89999 5.5C10.5016 5.5 11.8 6.79837 11.8 8.4ZM10.3499 8.4C10.3499 9.20081 9.70075 9.85 8.89994 9.85C8.09913 9.85 7.44994 9.20081 7.44994 8.4C7.44994 7.59919 8.09913 6.95 8.89994 6.95C9.70075 6.95 10.3499 7.59919 10.3499 8.4ZM10.3499 17.1C10.3499 17.9008 9.70073 18.55 8.89992 18.55C8.0991 18.55 7.44992 17.9008 7.44992 17.1C7.44992 16.2992 7.93325 15.6016 9.38325 15.4567C9.87371 15.4076 10.3499 15.4567 10.3499 15.4567V17.1Z" fill="white"/>
<line y1="0.65" x2="43.5" y2="0.65" stroke="white" stroke-width="0.7"/>
<line x1="43.15" y1="36" x2="43.15" y2="1" stroke="white" stroke-width="0.7"/>
</svg>
