<svg width="36" height="20" viewBox="0 0 36 20" fill="none" xmlns="http://www.w3.org/2000/svg">
<path d="M19.8276 1.54851C9.38088 0.0111054 4.35357 3.95439 3.6827 6.59311C3.01184 9.23184 4.40827 13.3971 4.40827 13.3971L3.449 15.9603C3.09004 16.6867 3.15452 16.4395 3.44899 17.5623C3.507 17.7835 4.02403 18.6397 4.08851 18.844C4.2163 19.2487 3.97172 19.2892 4.08851 19.565H6.29437C4.77485 17.2588 5.02811 15.715 6.29437 15.3947L7.99806 18.5235L8.56512 18.844V19.565H11.5177C11.5177 19.565 8.88488 17.1628 9.14346 16.4421C9.40205 15.7214 10.8054 14.7606 10.8054 14.7606C14.4143 15.3371 16.741 15.0008 17.4533 14.7606C16.8835 16.1058 17.2159 18.524 17.4533 19.565H19.8276L19.1153 18.5235V17.1628L19.8276 14.7606C19.8276 15.8516 20.8595 17.6485 21.6752 18.844C22.2018 18.844 22.0523 19.3683 22.2018 19.565H24.576L22.2018 16.4421V14.0399L27.4251 11.6377C31.9837 11.6377 34.2313 10.5167 34.7853 9.95618V7.79421C32.696 8.17856 31.3822 6.0326 30.9865 4.91157L32.6485 2.7496H29.7994C26.9172 4.54839 25.1162 3.4991 24.576 2.7496C24.3386 2.58945 23.0565 2.12503 19.8276 1.54851Z" stroke="#676565" stroke-width="0.734463"/>
<path d="M3.93785 6.53211C2.95857 7.10809 1 8.02966 1 7.10809C1 6.18652 1.65286 6.24412 1.97928 6.53212C2.51996 7.00914 2.76271 7.62648 1.97928 8.54806" stroke="#676565" stroke-width="0.734463"/>
</svg>
