<svg width="48" height="27" viewBox="0 0 48 27" fill="none" xmlns="http://www.w3.org/2000/svg">
<path d="M26.6345 1.46992C12.4109 -0.623313 5.56604 4.74562 4.65263 8.33834C3.73922 11.9311 5.64051 17.6022 5.64051 17.6022L4.33444 21.0921C3.8457 22.0811 3.93349 21.7445 4.33443 23.2734C4.41341 23.5745 5.11736 24.7403 5.20515 25.0183C5.37914 25.5694 5.04614 25.6246 5.20515 26H8.20852C6.13964 22.8601 6.48445 20.7581 8.20852 20.322L10.5282 24.5821L11.3002 25.0183V26H15.3203C15.3203 26 11.7356 22.7293 12.0877 21.7481C12.4397 20.7669 14.3505 19.4586 14.3505 19.4586C19.2641 20.2436 22.4321 19.7857 23.4018 19.4586C22.626 21.2902 23.0786 24.5827 23.4018 26H26.6345L25.6647 24.5821V22.7293L26.6345 19.4586C26.6345 20.9442 28.0395 23.3907 29.1501 25.0183C29.8671 25.0183 29.6635 25.7322 29.8671 26H33.0997L29.8671 21.7481V18.4774L36.9789 15.2068C43.1855 15.2068 46.2457 13.6804 47 12.9173V9.97367C44.1553 10.497 42.3666 7.57518 41.8278 6.04886L44.0906 3.10525H40.2115C36.2872 5.55438 33.8352 4.12572 33.0997 3.10525C32.7765 2.88721 31.0308 2.25488 26.6345 1.46992Z" stroke="#676565"/>
<path d="M5 8.25521C3.66667 9.03943 1 10.2942 1 9.03943C1 7.78468 1.88889 7.86311 2.33333 8.25523C3.06948 8.90471 3.4 9.74525 2.33333 11" stroke="#676565"/>
</svg>
