<svg width="25" height="20" viewBox="0 0 25 20" fill="none" xmlns="http://www.w3.org/2000/svg">
<path d="M13.3638 0.782544C9.5401 0.513458 3.85952 2.68857 1.49719 3.80976L2.32126 5.15518C4.29902 5.82789 8.68306 7.27423 10.3971 7.67785C12.1112 8.08148 13.8582 7.28544 14.5175 6.83696L14.6823 7.3415C16.2645 7.74513 17.7588 9.19146 18.3082 9.86418C18.8576 10.8172 19.6597 13.295 18.473 15.5822C17.2863 17.8695 15.8745 17.7847 15.1767 17.7686C14.1878 17.7457 12.5946 16.7595 11.8804 16.0868L11.0564 16.5913L10.8916 17.9367L11.2212 18.9458C11.7486 18.8113 14.2977 19.0019 15.5063 19.114C17.2204 19.2485 20.0662 17.4883 21.2748 16.5913C21.11 16.4231 20.9452 16.0868 20.9452 16.0868C20.9452 16.0868 21.4396 16.1989 21.6045 16.255C22.3956 15.4477 23.3625 13.6762 23.747 12.8914L23.0878 12.364C23.0878 12.364 23.802 12.1958 23.9118 12.0277C24.5711 10.0095 24.1865 8.1035 23.747 6.98231H23.0878C23.4174 6.14142 23.5822 6.3096 23.0878 5.30053C22.4285 3.9551 20.6156 3.00209 19.6267 2.44149L19.1322 3.1142V2.27331C18.7367 1.86968 16.2205 1.11889 15.1767 0.950712V1.62343C14.913 1.08525 13.8582 0.8386 13.3638 0.782544Z" stroke="#676565" stroke-width="0.734463"/>
<path d="M12.1469 7.73712C10.6546 7.73712 6.62021 8.15332 5.90393 11.287" stroke="#676565" stroke-width="0.734463"/>
<path d="M8.10736 7.00262C6.61512 7.00262 2.21347 7.36986 1.49719 10.5036" stroke="#676565" stroke-width="0.734463"/>
<path d="M18.7815 10.5035C17.9111 10.5035 16.0657 10.8169 15.6478 12.0704" stroke="#676565" stroke-width="0.734463"/>
<path d="M19.1733 12.8539C18.5204 12.8539 16.7446 13.0106 16.4313 13.6373" stroke="#676565" stroke-width="0.734463"/>
<path d="M17.6064 8.93665C16.9535 8.93665 15.1778 9.09333 14.8644 9.72007" stroke="#676565" stroke-width="0.734463"/>
</svg>
