<svg width="33" height="27" viewBox="0 0 33 27" fill="none" xmlns="http://www.w3.org/2000/svg">
<path d="M15.8432 0.631072C21.0493 0.264701 28.7836 3.2262 32 4.75274L30.878 6.58458C28.1852 7.5005 22.2162 9.46974 19.8824 10.0193C17.5486 10.5689 15.17 9.48501 14.2724 8.87439L14.048 9.56134C11.8938 10.1109 9.8592 12.0801 9.1112 12.9961C8.3632 14.2936 7.27112 17.6673 8.8868 20.7814C10.5025 23.8956 12.4248 23.7801 13.3748 23.7582C14.7212 23.7271 16.8904 22.3843 17.8628 21.4684L18.9848 22.1553L19.2092 23.9872L18.7604 25.3611C18.0423 25.1779 14.5716 25.4374 12.926 25.59C10.5922 25.7732 6.7176 23.3766 5.072 22.1553C5.2964 21.9263 5.5208 21.4684 5.5208 21.4684C5.5208 21.4684 4.8476 21.621 4.6232 21.6974C3.54608 20.5982 2.2296 18.1863 1.706 17.1177L2.6036 16.3997C2.6036 16.3997 1.6312 16.1707 1.4816 15.9417C0.583998 13.194 1.1076 10.5988 1.706 9.07229H2.6036C2.1548 7.92738 1.9304 8.15637 2.6036 6.78248C3.5012 4.95062 5.9696 3.65306 7.316 2.88979L7.9892 3.80572V2.66081C8.52776 2.11125 11.9536 1.08902 13.3748 0.86004V1.77597C13.7338 1.04322 15.17 0.707394 15.8432 0.631072Z" stroke="#676565"/>
<path d="M17.5 10.1C19.5317 10.1 25.0248 10.6666 26 14.9333" stroke="#676565"/>
<path d="M23 9.09998C25.0317 9.09998 31.0248 9.59998 32 13.8666" stroke="#676565"/>
<path d="M8.46667 13.8666C9.65186 13.8666 12.1644 14.2933 12.7333 16" stroke="#676565"/>
<path d="M7.93335 17.0667C8.82224 17.0667 11.24 17.28 11.6667 18.1333" stroke="#676565"/>
<path d="M10.0667 11.7333C10.9555 11.7333 13.3733 11.9466 13.8 12.8" stroke="#676565"/>
</svg>
