<svg width="30" height="28" viewBox="0 0 30 28" fill="none" xmlns="http://www.w3.org/2000/svg">
<path d="M7.59134 26.1921C9.89093 26.1089 15.4126 25.4053 19.1027 23.2566C19.8702 22.5074 21.7174 20.8085 22.9661 20.0071C24.2147 19.2056 25.4836 15.2389 25.962 13.3558C26.1466 12.1011 25.8181 9.46764 23.0277 8.97157C19.5397 8.35148 18.8776 11.6904 18.4973 14.3536C18.193 16.4842 16.5835 18.9175 15.8168 19.8678L7.59134 26.1921ZM20.839 9.2075C21.1216 8.73289 22.1975 7.41706 23.2786 7.38291C23.4985 6.06887 24.6902 3.21802 23.6052 2.28706L23.6052 2.3332C24.5581 3.54437 23.7599 6.27796 23.1954 7.38803C23.6346 7.52762 24.6389 8.40793 24.5581 9.51543C24.0113 9.15168 21.9991 8.66242 20.839 9.2075Z" stroke="#676565"/>
</svg>
