<svg width="41" height="28" viewBox="0 0 41 28" fill="none" xmlns="http://www.w3.org/2000/svg">
<path d="M18.2573 23.0205C14.5673 25.1692 9.04559 25.8728 6.74601 25.956L14.9714 19.6317C15.7382 18.6814 17.3476 16.2481 17.6519 14.1176C17.9336 12.1453 18.3698 9.80252 19.9937 8.97141C19.9937 8.97141 19.9937 8.97142 19.9937 8.97142C20.269 8.50899 21.2975 7.24794 22.3501 7.15195C22.3966 7.06039 22.4448 6.95778 22.4934 6.8459C22.6904 5.97146 23.1348 4.66614 23.2011 3.59558C23.1863 3.01064 23.0599 2.47843 22.7599 2.09712L22.7599 2.05097C23.1415 2.37844 23.2415 2.94346 23.2011 3.59558C23.2294 4.71535 22.8487 6.02835 22.4934 6.8459C22.4692 6.95309 22.4488 7.05381 22.4332 7.14682C22.4055 7.1477 22.3778 7.14942 22.3501 7.15195C22.7893 7.29154 23.7936 8.17185 23.7127 9.27934C23.5891 9.19709 23.3905 9.10842 23.1438 9.02674C25.049 9.88825 25.2774 12.0269 25.1167 13.1197C24.6383 15.0028 23.3694 18.9695 22.1207 19.771C20.8721 20.5725 19.0249 22.2713 18.2573 23.0205Z" fill="#AA0909"/>
<path d="M6.74601 25.956C9.04559 25.8728 14.5673 25.1692 18.2573 23.0205C19.0249 22.2713 20.8721 20.5725 22.1207 19.771C23.3694 18.9695 24.6383 15.0028 25.1167 13.1197C25.3012 11.865 24.9728 9.23155 22.1824 8.73548C18.6944 8.11539 18.0323 11.4543 17.6519 14.1176C17.3476 16.2481 15.7382 18.6814 14.9714 19.6317L6.74601 25.956ZM19.9937 8.97142C20.2762 8.49681 21.3522 7.18097 22.4332 7.14682C22.6531 5.83279 23.8449 2.98193 22.7599 2.05097L22.7599 2.09712C23.7127 3.30828 22.9146 6.04187 22.3501 7.15195C22.7893 7.29154 23.7936 8.17185 23.7127 9.27934C23.1659 8.9156 21.1537 8.42633 19.9937 8.97142Z" stroke="#AA0909"/>
<path d="M30.2573 23.0205C26.5673 25.1692 21.0456 25.8728 18.746 25.956L26.9714 19.6317C27.7382 18.6814 29.3476 16.2481 29.6519 14.1176C29.9336 12.1453 30.3698 9.80252 31.9937 8.97141C31.9937 8.97141 31.9937 8.97142 31.9937 8.97142C32.269 8.50899 33.2975 7.24794 34.3501 7.15195C34.3966 7.06039 34.4448 6.95778 34.4934 6.8459C34.6904 5.97146 35.1348 4.66614 35.2011 3.59558C35.1863 3.01064 35.0599 2.47843 34.7599 2.09712L34.7599 2.05097C35.1415 2.37844 35.2415 2.94346 35.2011 3.59558C35.2294 4.71535 34.8487 6.02835 34.4934 6.8459C34.4692 6.95309 34.4488 7.05381 34.4332 7.14682C34.4055 7.1477 34.3778 7.14942 34.3501 7.15195C34.7893 7.29154 35.7936 8.17185 35.7127 9.27934C35.5891 9.19709 35.3905 9.10842 35.1438 9.02674C37.049 9.88825 37.2774 12.0269 37.1167 13.1197C36.6383 15.0028 35.3694 18.9695 34.1207 19.771C32.8721 20.5725 31.0249 22.2713 30.2573 23.0205Z" fill="#AA0909"/>
<path d="M18.746 25.956C21.0456 25.8728 26.5673 25.1692 30.2573 23.0205C31.0249 22.2713 32.8721 20.5725 34.1207 19.771C35.3694 18.9695 36.6383 15.0028 37.1167 13.1197C37.3012 11.865 36.9728 9.23155 34.1824 8.73548C30.6944 8.11539 30.0323 11.4543 29.6519 14.1176C29.3476 16.2481 27.7382 18.6814 26.9714 19.6317L18.746 25.956ZM31.9937 8.97142C32.2762 8.49681 33.3522 7.18097 34.4332 7.14682C34.6531 5.83279 35.8449 2.98193 34.7599 2.05097L34.7599 2.09712C35.7127 3.30828 34.9146 6.04187 34.3501 7.15195C34.7893 7.29154 35.7936 8.17185 35.7127 9.27934C35.1659 8.9156 33.1537 8.42633 31.9937 8.97142Z" stroke="#AA0909"/>
</svg>
