<svg width="53" height="51" viewBox="0 0 53 51" fill="none" xmlns="http://www.w3.org/2000/svg">
<path d="M10.2479 49.5716C14.8264 49.4062 25.8202 48.0077 33.1671 43.7372C34.6953 42.2481 38.3731 38.8716 40.8592 37.2787C43.3453 35.6857 45.8717 27.8019 46.8241 24.0591C47.1916 21.5653 46.5376 16.3313 40.9819 15.3453C34.0373 14.1129 32.719 20.7491 31.9617 26.0423C31.3559 30.2769 28.1514 35.1131 26.6249 37.0018L10.2479 49.5716ZM36.6242 15.8143C37.1868 14.871 39.329 12.2557 41.4814 12.1878C41.9192 9.57616 44.292 3.91003 42.1317 2.05972L42.1317 2.15143C44.0289 4.55865 42.4397 9.99172 41.3158 12.198C42.1902 12.4755 44.1898 14.2251 44.0289 16.4263C42.9402 15.7033 38.9339 14.7309 36.6242 15.8143Z" stroke="#C5B45C" stroke-width="1.32047"/>
</svg>
