<svg width="53" height="28" viewBox="0 0 53 28" fill="none" xmlns="http://www.w3.org/2000/svg">
<path d="M6.74601 26.1921C9.04559 26.1089 14.5673 25.4053 18.2573 23.2566C19.0249 22.5074 20.8721 20.8085 22.1207 20.0071C23.3694 19.2056 24.6383 15.2389 25.1167 13.3558C25.3012 12.1011 24.9728 9.46764 22.1824 8.97157C18.6944 8.35148 18.0323 11.6904 17.6519 14.3536C17.3476 16.4842 15.7382 18.9175 14.9714 19.8678L6.74601 26.1921ZM19.9937 9.2075C20.2762 8.73289 21.3522 7.41706 22.4332 7.38291C22.6531 6.06887 23.8449 3.21802 22.7599 2.28706L22.7599 2.3332C23.7127 3.54437 22.9146 6.27796 22.3501 7.38803C22.7893 7.52762 23.7936 8.40793 23.7127 9.51543C23.1659 9.15168 21.1537 8.66242 19.9937 9.2075Z" stroke="#676565"/>
<path d="M18.746 26.1921C21.0456 26.1089 26.5673 25.4053 30.2573 23.2566C31.0249 22.5074 32.8721 20.8085 34.1207 20.0071C35.3694 19.2056 36.6383 15.2389 37.1167 13.3558C37.3012 12.1011 36.9728 9.46764 34.1824 8.97157C30.6944 8.35148 30.0323 11.6904 29.6519 14.3536C29.3476 16.4842 27.7382 18.9175 26.9714 19.8678L18.746 26.1921ZM31.9937 9.2075C32.2762 8.73289 33.3522 7.41706 34.4332 7.38291C34.6531 6.06887 35.8449 3.21802 34.7599 2.28706L34.7599 2.3332C35.7127 3.54437 34.9146 6.27796 34.3501 7.38803C34.7893 7.52762 35.7936 8.40793 35.7127 9.51543C35.1659 9.15168 33.1537 8.66242 31.9937 9.2075Z" stroke="#676565"/>
<path d="M30.746 26.1921C33.0456 26.1089 38.5673 25.4053 42.2573 23.2566C43.0249 22.5074 44.8721 20.8085 46.1207 20.0071C47.3694 19.2056 48.6383 15.2389 49.1167 13.3558C49.3012 12.1011 48.9728 9.46764 46.1824 8.97157C42.6944 8.35148 42.0323 11.6904 41.6519 14.3536C41.3476 16.4842 39.7382 18.9175 38.9714 19.8678L30.746 26.1921ZM43.9937 9.2075C44.2762 8.73289 45.3522 7.41706 46.4332 7.38291C46.6531 6.06887 47.8449 3.21802 46.7599 2.28706L46.7599 2.3332C47.7127 3.54437 46.9146 6.27796 46.3501 7.38803C46.7893 7.52762 47.7936 8.40793 47.7127 9.51543C47.1659 9.15168 45.1537 8.66242 43.9937 9.2075Z" stroke="#676565"/>
</svg>
