<svg width="50" height="27" viewBox="0 0 50 27" fill="none" xmlns="http://www.w3.org/2000/svg">
<path d="M16.2573 23.0205C12.5673 25.1692 7.04559 25.8728 4.74601 25.956L12.9714 19.6317C13.7382 18.6814 15.3476 16.2481 15.6519 14.1176C15.9336 12.1453 16.3698 9.80252 17.9937 8.97141C17.9937 8.97141 17.9937 8.97142 17.9937 8.97142C18.269 8.50899 19.2975 7.24794 20.3501 7.15195C20.3966 7.06039 20.4448 6.95778 20.4934 6.8459C20.6904 5.97146 21.1348 4.66614 21.2011 3.59558C21.1863 3.01064 21.0599 2.47843 20.7599 2.09712L20.7599 2.05097C21.1415 2.37844 21.2415 2.94346 21.2011 3.59558C21.2294 4.71535 20.8487 6.02835 20.4934 6.8459C20.4692 6.95309 20.4488 7.05381 20.4332 7.14682C20.4055 7.1477 20.3778 7.14942 20.3501 7.15195C20.7893 7.29154 21.7936 8.17185 21.7127 9.27934C21.5891 9.19709 21.3905 9.10842 21.1438 9.02674C23.049 9.88825 23.2774 12.0269 23.1167 13.1197C22.6383 15.0028 21.3694 18.9695 20.1207 19.771C18.8721 20.5725 17.0249 22.2713 16.2573 23.0205Z" fill="#AA0909"/>
<path d="M4.74601 25.956C7.04559 25.8728 12.5673 25.1692 16.2573 23.0205C17.0249 22.2713 18.8721 20.5725 20.1207 19.771C21.3694 18.9695 22.6383 15.0028 23.1167 13.1197C23.3012 11.865 22.9728 9.23155 20.1824 8.73548C16.6944 8.11539 16.0323 11.4543 15.6519 14.1176C15.3476 16.2481 13.7382 18.6814 12.9714 19.6317L4.74601 25.956ZM17.9937 8.97142C18.2762 8.49681 19.3522 7.18097 20.4332 7.14682C20.6531 5.83279 21.8449 2.98193 20.7599 2.05097L20.7599 2.09712C21.7127 3.30828 20.9146 6.04187 20.3501 7.15195C20.7893 7.29154 21.7936 8.17185 21.7127 9.27934C21.1659 8.9156 19.1537 8.42633 17.9937 8.97142Z" stroke="#AA0909"/>
<path d="M28.2573 23.0205C24.5673 25.1692 19.0456 25.8728 16.746 25.956L24.9714 19.6317C25.7382 18.6814 27.3476 16.2481 27.6519 14.1176C27.9336 12.1453 28.3698 9.80252 29.9937 8.97141C29.9937 8.97141 29.9937 8.97142 29.9937 8.97142C30.269 8.50899 31.2975 7.24794 32.3501 7.15195C32.3966 7.06039 32.4448 6.95778 32.4934 6.8459C32.6904 5.97146 33.1348 4.66614 33.2011 3.59558C33.1863 3.01064 33.0599 2.47843 32.7599 2.09712L32.7599 2.05097C33.1415 2.37844 33.2415 2.94346 33.2011 3.59558C33.2294 4.71535 32.8487 6.02835 32.4934 6.8459C32.4692 6.95309 32.4488 7.05381 32.4332 7.14682C32.4055 7.1477 32.3778 7.14942 32.3501 7.15195C32.7893 7.29154 33.7936 8.17185 33.7127 9.27934C33.5891 9.19709 33.3905 9.10842 33.1438 9.02674C35.049 9.88825 35.2774 12.0269 35.1167 13.1197C34.6383 15.0028 33.3694 18.9695 32.1207 19.771C30.8721 20.5725 29.0249 22.2713 28.2573 23.0205Z" fill="#AA0909"/>
<path d="M16.746 25.956C19.0456 25.8728 24.5673 25.1692 28.2573 23.0205C29.0249 22.2713 30.8721 20.5725 32.1207 19.771C33.3694 18.9695 34.6383 15.0028 35.1167 13.1197C35.3012 11.865 34.9728 9.23155 32.1824 8.73548C28.6944 8.11539 28.0323 11.4543 27.6519 14.1176C27.3476 16.2481 25.7382 18.6814 24.9714 19.6317L16.746 25.956ZM29.9937 8.97142C30.2762 8.49681 31.3522 7.18097 32.4332 7.14682C32.6531 5.83279 33.8449 2.98193 32.7599 2.05097L32.7599 2.09712C33.7127 3.30828 32.9146 6.04187 32.3501 7.15195C32.7893 7.29154 33.7936 8.17185 33.7127 9.27934C33.1659 8.9156 31.1537 8.42633 29.9937 8.97142Z" stroke="#AA0909"/>
<path d="M40.2573 23.0205C36.5673 25.1692 31.0456 25.8728 28.746 25.956L36.9714 19.6317C37.7382 18.6814 39.3476 16.2481 39.6519 14.1176C39.9336 12.1453 40.3698 9.80252 41.9937 8.97141C41.9937 8.97141 41.9937 8.97142 41.9937 8.97142C42.269 8.50899 43.2975 7.24794 44.3501 7.15195C44.3966 7.06039 44.4448 6.95778 44.4934 6.8459C44.6904 5.97146 45.1348 4.66614 45.2011 3.59558C45.1863 3.01064 45.0599 2.47843 44.7599 2.09712L44.7599 2.05097C45.1415 2.37844 45.2415 2.94346 45.2011 3.59558C45.2294 4.71535 44.8487 6.02835 44.4934 6.8459C44.4692 6.95309 44.4488 7.05381 44.4332 7.14682C44.4055 7.1477 44.3778 7.14942 44.3501 7.15195C44.7893 7.29154 45.7936 8.17185 45.7127 9.27934C45.5891 9.19709 45.3905 9.10842 45.1438 9.02674C47.049 9.88825 47.2774 12.0269 47.1167 13.1197C46.6383 15.0028 45.3694 18.9695 44.1207 19.771C42.8721 20.5725 41.0249 22.2713 40.2573 23.0205Z" fill="#AA0909"/>
<path d="M28.746 25.956C31.0456 25.8728 36.5673 25.1692 40.2573 23.0205C41.0249 22.2713 42.8721 20.5725 44.1207 19.771C45.3694 18.9695 46.6383 15.0028 47.1167 13.1197C47.3012 11.865 46.9728 9.23155 44.1824 8.73548C40.6944 8.11539 40.0323 11.4543 39.6519 14.1176C39.3476 16.2481 37.7382 18.6814 36.9714 19.6317L28.746 25.956ZM41.9937 8.97142C42.2762 8.49681 43.3522 7.18097 44.4332 7.14682C44.6531 5.83279 45.8449 2.98193 44.7599 2.05097L44.7599 2.09712C45.7127 3.30828 44.9146 6.04187 44.3501 7.15195C44.7893 7.29154 45.7936 8.17185 45.7127 9.27934C45.1659 8.9156 43.1537 8.42633 41.9937 8.97142Z" stroke="#AA0909"/>
</svg>
