<svg width="35" height="38" viewBox="0 0 35 38" fill="none" xmlns="http://www.w3.org/2000/svg">
<path d="M5.76957 13.3413L9.30684 35.2696C9.46728 36.2642 10.3258 36.9953 11.3333 36.9953H23.6447C24.622 36.9953 25.4637 36.3064 25.6569 35.3484L30.0944 13.3413M5.76957 13.3413H30.0944M5.76957 13.3413L11.97 20.7332H22.94L30.0944 13.3413M5.76957 13.3413L1 20.7332M30.0944 13.3413L33.91 20.7332" stroke="white" stroke-width="1.36842"/>
<path d="M18.4106 10.2559C15.9071 8.60308 15.6271 7.17204 18.4106 4.96679C20.914 2.98342 18.4106 1.99172 18.0955 1" stroke="white" stroke-width="0.513158" stroke-linecap="round"/>
<path d="M14.2968 10.2559C11.7933 8.60308 11.5134 7.17204 14.2968 4.96679C16.8002 2.98342 14.2968 1.99172 13.9818 1" stroke="white" stroke-width="0.513158" stroke-linecap="round"/>
<path d="M22.5243 10.2559C20.0208 8.60308 19.7408 7.17204 22.5243 4.96679C25.0277 2.98342 22.5243 1.99172 22.2092 1" stroke="white" stroke-width="0.513158" stroke-linecap="round"/>
</svg>
