<svg width="36" height="39" viewBox="0 0 36 39" fill="none" xmlns="http://www.w3.org/2000/svg">
<path d="M5.91511 13.7179L9.56882 36.368C9.72926 37.3626 10.5878 38.0937 11.5953 38.0937H24.387C25.3643 38.0937 26.206 37.4048 26.3992 36.4468L30.9822 13.7179M5.91511 13.7179H30.9822M5.91511 13.7179L12.3048 21.3353H23.6095L30.9822 13.7179M5.91511 13.7179L1 21.3353M30.9822 13.7179L34.9143 21.3353" stroke="white" stroke-width="1.36842"/>
<path d="M18.9419 10.5384C16.362 8.8351 16.0735 7.36039 18.9419 5.08784C21.5217 3.04395 18.9419 2.02198 18.6172 1" stroke="white" stroke-width="0.513158" stroke-linecap="round"/>
<path d="M14.7026 10.5384C12.1227 8.8351 11.8342 7.36039 14.7026 5.08784C17.2824 3.04395 14.7026 2.02198 14.3779 1" stroke="white" stroke-width="0.513158" stroke-linecap="round"/>
<path d="M23.1811 10.5384C20.6012 8.8351 20.3128 7.36039 23.1811 5.08784C25.761 3.04395 23.1811 2.02198 22.8565 1" stroke="white" stroke-width="0.513158" stroke-linecap="round"/>
</svg>
