<svg width="41" height="44" viewBox="0 0 41 44" fill="none" xmlns="http://www.w3.org/2000/svg">
<path d="M8.78261 15.2812L12.3303 37.2743C12.4908 38.2689 13.3493 39 14.3568 39H26.7112C27.6885 39 28.5302 38.311 28.7234 37.3531L33.1739 15.2812M8.78261 15.2812H33.1739M8.78261 15.2812L15 22.6934H26L33.1739 15.2812M8.78261 15.2812L4 22.6934M33.1739 15.2812L37 22.6934" stroke="white" stroke-width="1.36842"/>
<path d="M21.4582 12.1875C18.9478 10.5301 18.6671 9.09517 21.4582 6.88389C23.9685 4.8951 21.4582 3.90068 21.1423 2.90625" stroke="white" stroke-width="0.513158" stroke-linecap="round"/>
<path d="M17.3332 12.1875C14.8228 10.5301 14.5421 9.09517 17.3332 6.88389C19.8435 4.8951 17.3332 3.90068 17.0173 2.90625" stroke="white" stroke-width="0.513158" stroke-linecap="round"/>
<path d="M25.5832 12.1875C23.0728 10.5301 22.7921 9.09517 25.5832 6.88389C28.0935 4.8951 25.5832 3.90068 25.2673 2.90625" stroke="white" stroke-width="0.513158" stroke-linecap="round"/>
</svg>
