<svg width="41" height="44" viewBox="0 0 41 44" fill="none" xmlns="http://www.w3.org/2000/svg">
<path d="M8.67732 14.7549L12.225 36.748C12.3855 37.7426 13.244 38.4737 14.2515 38.4737H26.606C27.5832 38.4737 28.4249 37.7847 28.6181 36.8268L33.0686 14.7549M8.67732 14.7549H33.0686M8.67732 14.7549L14.8947 22.1671H25.8947L33.0686 14.7549M8.67732 14.7549L3.89471 22.1671M33.0686 14.7549L36.8947 22.1671" stroke="#AC9416" stroke-width="1.36842"/>
<path d="M21.3529 11.6612C18.8425 10.0038 18.5618 8.56886 21.3529 6.35758C23.8632 4.36879 21.3529 3.37437 21.037 2.37994" stroke="#AC9416" stroke-width="0.513158" stroke-linecap="round"/>
<path d="M17.2279 11.6612C14.7175 10.0038 14.4368 8.56886 17.2279 6.35758C19.7382 4.36879 17.2279 3.37437 16.912 2.37994" stroke="#AC9416" stroke-width="0.513158" stroke-linecap="round"/>
<path d="M25.4779 11.6612C22.9675 10.0038 22.6868 8.56886 25.4779 6.35758C27.9882 4.36879 25.4779 3.37437 25.162 2.37994" stroke="#AC9416" stroke-width="0.513158" stroke-linecap="round"/>
</svg>
