<svg width="34" height="29" viewBox="0 0 34 29" fill="none" xmlns="http://www.w3.org/2000/svg">
<path d="M32.0001 6C32.8334 8.33333 33.9504 13.7873 31.0001 16C29 17.5 28 18.5 27.5 20.5C27.2541 21.4835 26.1441 24 23 24C20.5 24 20 25.5 18.5 26.5C17 27.5 13.7 28.9 10.5 26.5C8.9 25.7 7.5 25.5 7 25.5C8.83333 23.8333 13.2 20.4 16 20C18 19.5 18.9229 18.3333 19.5 17.5C20 16.8333 21.6 15.3 24 14.5C24.5 13.5 25.5001 8.99998 32.0001 6ZM32.0001 6C33.6001 4.8 33.3334 1.83333 33 0.5C33.4 2.9 31.1667 3.50001 30 3.50002M30 3.50002C29.6667 5.33335 28.1 9.40002 24.5 11C22.9 11.4 22 11.5 21 12.5C20.1667 13.6667 18.6 15.7 15 14.5C14.2 14.1 13 14 11.5 14.5C10 15 8.2 16.2 5 13C4.2 11.8 2.66667 10.8333 2 10.5C4 9.66668 8.7 8.2 11.5 9C13 9.42857 14 8.66667 14.5 8.5C15.5 7.83333 17 7 19.5 7.5C20 7.5 22.5 3.50003 30 3.50002Z" stroke="#676565"/>
<path d="M25.7621 17.6669C26.0705 18.1586 26.0974 18.8167 25.8079 19.5247C25.5188 20.2318 24.9257 20.9474 24.0802 21.4777C23.2348 22.008 22.3324 22.2305 21.5699 22.183C20.8065 22.1354 20.2258 21.8248 19.9174 21.3331C19.609 20.8414 19.5821 20.1834 19.8716 19.4753C20.1607 18.7682 20.7538 18.0526 21.5992 17.5223C22.4447 16.992 23.3471 16.7695 24.1095 16.8171C24.873 16.8647 25.4537 17.1753 25.7621 17.6669Z" stroke="#676565"/>
<path d="M30.8196 10.8098C31.5719 11.4465 31.6356 12.9125 30.5991 14.1373C29.5627 15.362 28.1063 15.5417 27.354 14.9051C26.6017 14.2684 26.538 12.8024 27.5744 11.5776C28.6109 10.3529 30.0673 10.1732 30.8196 10.8098Z" stroke="#676565"/>
<path d="M17.558 23.4053C17.7883 24.3635 16.9729 25.5835 15.4129 25.9585C13.8529 26.3335 12.572 25.6173 12.3417 24.6591C12.1114 23.7008 12.9268 22.4808 14.4868 22.1058C16.0468 21.7308 17.3277 22.4471 17.558 23.4053Z" stroke="#676565"/>
</svg>
