<svg width="34" height="29" viewBox="0 0 34 29" fill="none" xmlns="http://www.w3.org/2000/svg">
<path d="M32.0001 6.5C32.8334 8.83333 33.9504 14.2873 31.0001 16.5C29 18 28 19 27.5 21C27.2541 21.9835 26.1441 24.5 23 24.5C20.5 24.5 20 26 18.5 27C17 28 13.7 29.4 10.5 27C8.9 26.2 7.5 26 7 26C8.83333 24.3333 13.2 20.9 16 20.5C18 20 18.9229 18.8333 19.5 18C20 17.3333 21.6 15.8 24 15C24.5 14 25.5001 9.49998 32.0001 6.5C33.6001 5.3 33.3334 2.33333 33 1C33.4 3.4 31.1667 4.00001 30 4.00002C29.6667 5.83335 28.1 9.90001 24.5 11.5C22.9 11.9 22 12 21 13C20.1667 14.1667 18.6 16.2 15 15C14.2 14.6 13 14.5 11.5 15C10 15.5 8.2 16.7 5 13.5C4.2 12.3 2.66667 11.3333 2 11C4 10.1667 8.7 8.7 11.5 9.5C13 9.92857 14 9.16667 14.5 9C15.5 8.33333 17 7.5 19.5 8C20 8 22.5 4.00003 30 4.00002C31.1667 4.00001 33.4 3.4 33 1C33.3334 2.33333 33.6001 5.3 32.0001 6.5Z" fill="#AC9416"/>
<path d="M32.0001 6.5C32.8334 8.83333 33.9504 14.2873 31.0001 16.5C29 18 28 19 27.5 21C27.2541 21.9835 26.1441 24.5 23 24.5C20.5 24.5 20 26 18.5 27C17 28 13.7 29.4 10.5 27C8.9 26.2 7.5 26 7 26C8.83333 24.3333 13.2 20.9 16 20.5C18 20 18.9229 18.8333 19.5 18C20 17.3333 21.6 15.8 24 15C24.5 14 25.5001 9.49998 32.0001 6.5ZM32.0001 6.5C33.6001 5.3 33.3334 2.33333 33 1C33.4 3.4 31.1667 4.00001 30 4.00002M30 4.00002C29.6667 5.83335 28.1 9.90002 24.5 11.5C22.9 11.9 22 12 21 13C20.1667 14.1667 18.6 16.2 15 15C14.2 14.6 13 14.5 11.5 15C10 15.5 8.2 16.7 5 13.5C4.2 12.3 2.66667 11.3333 2 11C4 10.1667 8.7 8.7 11.5 9.5C13 9.92857 14 9.16667 14.5 9C15.5 8.33333 17 7.5 19.5 8C20 8 22.5 4.00003 30 4.00002Z" stroke="#AC9416"/>
</svg>
