<svg width="36" height="39" viewBox="0 0 36 39" fill="none" xmlns="http://www.w3.org/2000/svg">
<path d="M5.91511 13.6241L9.56882 36.2743C9.72926 37.2689 10.5878 38 11.5953 38H24.387C25.3643 38 26.206 37.311 26.3992 36.3531L30.9822 13.6241M5.91511 13.6241H30.9822M5.91511 13.6241L12.3048 21.2416H23.6095L30.9822 13.6241M5.91511 13.6241L1 21.2416M30.9822 13.6241L34.9143 21.2416" stroke="white" stroke-width="1.36842"/>
<path d="M18.9419 10.4446C16.362 8.74135 16.0735 7.26664 18.9419 4.99409C21.5217 2.9502 18.9419 1.92823 18.6172 0.90625" stroke="white" stroke-width="0.513158" stroke-linecap="round"/>
<path d="M14.7026 10.4446C12.1227 8.74135 11.8342 7.26664 14.7026 4.99409C17.2824 2.9502 14.7026 1.92823 14.3779 0.90625" stroke="white" stroke-width="0.513158" stroke-linecap="round"/>
<path d="M23.1811 10.4446C20.6012 8.74135 20.3128 7.26664 23.1811 4.99409C25.761 2.9502 23.1811 1.92823 22.8565 0.90625" stroke="white" stroke-width="0.513158" stroke-linecap="round"/>
</svg>
